<?xml version="1.0" encoding="utf-8"?>
<!-- Generator: Adobe Illustrator 20.1.0, SVG Export Plug-In . SVG Version: 6.00 Build 0)  -->
<!DOCTYPE svg PUBLIC "-//W3C//DTD SVG 1.1//EN" "http://www.w3.org/Graphics/SVG/1.1/DTD/svg11.dtd">
<svg version="1.1" id="Layer_1" xmlns="http://www.w3.org/2000/svg" xmlns:xlink="http://www.w3.org/1999/xlink" x="0px" y="0px"
	 viewBox="0 0 36.6 21.6" enable-background="new 0 0 36.6 21.6" xml:space="preserve">
<g>
	<path fill="#ECE94A" d="M36.6,4L13,0.2c-0.3-0.1-0.5-0.1-0.8-0.1l0,0l0,0C11.7,0,11.3,0,10.8,0C4.9,0,0,4.9,0,10.8
		s4.9,10.8,10.8,10.8c4.8,0,8.9-3.2,10.3-7.6l15.4-3.4V4z M10.8,19.6c-4.9,0-8.8-4-8.8-8.8S6,2,10.8,2c3.2,0,6.1,1.7,7.7,4.5
		c0.7,1.3,1.1,2.8,1.1,4.3C19.6,15.7,15.7,19.6,10.8,19.6z M34.6,9.1l-13,2.8c0-0.4,0.1-0.7,0.1-1.1c0-1.9-0.5-3.7-1.4-5.3
		c-0.5-0.8-1.1-1.6-1.7-2.3l16,2.5V9.1z"/>
</g>
</svg>
