<?xml version="1.0" encoding="utf-8"?>
<!-- Generator: Adobe Illustrator 17.1.0, SVG Export Plug-In . SVG Version: 6.00 Build 0)  -->
<!DOCTYPE svg PUBLIC "-//W3C//DTD SVG 1.1//EN" "http://www.w3.org/Graphics/SVG/1.1/DTD/svg11.dtd">
<svg version="1.1" id="Layer_1" xmlns="http://www.w3.org/2000/svg" xmlns:xlink="http://www.w3.org/1999/xlink" x="0px" y="0px"
	 viewBox="0 0 50 30" enable-background="new 0 0 50 30" xml:space="preserve">
<polyline fill="#414042" points="23.204,19.174 23.204,12.17 25.036,12.17 27.551,16.518 27.485,12.17 29.17,12.17 29.17,19.174 
	27.351,19.174 24.9,15.086 24.88,19.174 23.204,19.174 "/>
<polyline fill="#414042" points="32.094,19.174 32.104,13.772 30.036,13.772 30.027,12.17 36.005,12.17 36.015,13.772 
	33.872,13.772 33.863,19.174 32.094,19.174 "/>
<polyline fill="#414042" points="18.5,19.174 18.507,13.772 16.443,13.772 16.434,12.17 22.411,12.17 22.42,13.772 20.276,13.772 
	20.269,19.174 18.5,19.174 "/>
<path fill="#414042" d="M12.437,15.04c0-7.611,6.171-13.78,13.783-13.782C33.829,1.26,39.998,7.43,40,15.04
	c-0.002,7.612-6.171,13.781-13.781,13.783C18.607,28.822,12.437,22.653,12.437,15.04 M14.503,15.04
	c0.002,3.238,1.309,6.162,3.43,8.283c2.124,2.123,5.046,3.43,8.285,3.43c3.236,0,6.158-1.307,8.281-3.43
	c2.121-2.123,3.43-5.045,3.43-8.283S36.62,8.881,34.5,6.759c-2.124-2.122-5.045-3.432-8.281-3.432c-3.24,0-6.162,1.31-8.285,3.432
	C15.813,8.882,14.505,11.802,14.503,15.04z"/>
</svg>
