<?xml version="1.0" encoding="utf-8"?>
<!-- Generator: Adobe Illustrator 17.1.0, SVG Export Plug-In . SVG Version: 6.00 Build 0)  -->
<!DOCTYPE svg PUBLIC "-//W3C//DTD SVG 1.1//EN" "http://www.w3.org/Graphics/SVG/1.1/DTD/svg11.dtd">
<svg version="1.1" id="Layer_1" xmlns="http://www.w3.org/2000/svg" xmlns:xlink="http://www.w3.org/1999/xlink" x="0px" y="0px"
	 viewBox="0 0 50 30" enable-background="new 0 0 50 30" xml:space="preserve">
<g>
	<g>
		<path fill="#414042" d="M1.313,15.155c0-3.618,2.773-6.058,6.442-6.058c3.072,0,4.616,1.791,5.318,3.407l-3.054,1.422
			c-0.298-0.914-1.211-1.704-2.264-1.704c-1.702,0-2.844,1.299-2.844,2.933s1.141,2.933,2.844,2.933
			c1.053,0,1.966-0.791,2.264-1.704l3.054,1.405c-0.684,1.563-2.247,3.425-5.318,3.425C4.086,21.214,1.313,18.756,1.313,15.155"/>
		<path fill="#414042" d="M13.829,21.003V9.289h7.108c2.423,0,3.476,1.616,3.476,2.986c0,1.458-0.861,2.442-2.001,2.687
			c1.263,0.193,2.229,1.352,2.229,2.863c0,1.633-1.106,3.178-3.457,3.178 M20.814,12.907c0-0.403-0.333-0.667-0.702-0.667h-2.738
			v1.37h2.738C20.481,13.609,20.814,13.328,20.814,12.907z M21.043,17.316c0-0.422-0.317-0.755-0.826-0.755h-2.843v1.492h2.843
			C20.726,18.053,21.043,17.755,21.043,17.316z"/>
		<path fill="#414042" d="M24.819,19.353l1.843-2.634c0.877,0.843,2.193,1.51,3.773,1.51c0.667,0,1.298-0.176,1.298-0.632
			c0-1.124-6.529,0.018-6.529-4.601c0-1.985,1.651-3.882,4.862-3.882c1.913,0,3.633,0.545,4.967,1.633l-1.896,2.511
			c-1.017-0.773-2.333-1.159-3.44-1.159c-0.702,0-0.894,0.229-0.894,0.527c0,1.107,6.511,0.158,6.511,4.514
			c0,2.582-1.912,4.074-5.055,4.074C27.768,21.214,26.064,20.477,24.819,19.353"/>
		<path fill="#414042" d="M49,14.984c0,3.713-2.904,6.731-6.614,6.731c-3.695,0-6.63-3.018-6.63-6.731
			c0-3.681,2.936-6.699,6.63-6.699C46.096,8.285,49,11.304,49,14.984 M36.223,14.984c0.936,1.969,3.131,3.89,6.163,3.89
			c3.017,0,5.226-1.921,6.162-3.89c-0.936-1.937-3.146-3.858-6.162-3.858C39.353,11.126,37.159,13.047,36.223,14.984z
			 M45.935,14.984c0,1.986-1.581,3.567-3.549,3.567c-1.969,0-3.566-1.581-3.566-3.567c0-1.953,1.597-3.552,3.566-3.552
			C44.354,11.432,45.935,13.031,45.935,14.984z"/>
	</g>
</g>
</svg>
