<?xml version="1.0" encoding="utf-8"?>
<!-- Generator: Adobe Illustrator 17.1.0, SVG Export Plug-In . SVG Version: 6.00 Build 0)  -->
<!DOCTYPE svg PUBLIC "-//W3C//DTD SVG 1.1//EN" "http://www.w3.org/Graphics/SVG/1.1/DTD/svg11.dtd">
<svg version="1.1" id="Layer_1" xmlns="http://www.w3.org/2000/svg" xmlns:xlink="http://www.w3.org/1999/xlink" x="0px" y="0px"
	 viewBox="0 0 50 30" enable-background="new 0 0 50 30" xml:space="preserve">
<path fill-rule="evenodd" clip-rule="evenodd" fill="#414042" d="M14.326,2.297h2.401v2.437h1.928v1.527h-1.928v5.274
	c0,0.873,0.436,0.946,0.982,0.946h0.946V14.3h-1.855c-1.6,0-2.473-0.764-2.473-2.182V2.297L14.326,2.297z"/>
<path fill-rule="evenodd" clip-rule="evenodd" fill="#414042" d="M24.728,4.48c0.073,0,0.182,0,0.291,0
	c2.328,0,4.328,1.273,4.328,4.874c0,3.273-1.818,4.983-4.619,4.983v-1.6c1.273,0,2.328-1.455,2.328-3.346s-1.055-3.346-2.328-3.346
	V4.48L24.728,4.48z M20.072,2.297h2.255v3.419c0.582-0.764,1.491-1.164,2.401-1.237v1.564c-1.309,0-2.364,1.455-2.364,3.346
	s1.055,3.346,2.364,3.346v1.6c-0.036,0-0.036,0-0.036,0c-2.873,0-4.619-1.673-4.619-4.983c0-0.036,0,0,0,0V2.297L20.072,2.297z"/>
<path fill-rule="evenodd" clip-rule="evenodd" fill="#414042" d="M38.549,16.918c-0.036,6.656-5.456,12.111-12.148,12.111
	c-6.656,0-12.111-5.456-12.148-12.111H38.549L38.549,16.918z"/>
<path fill-rule="evenodd" clip-rule="evenodd" fill="#414042" d="M30.365,7.171c0-1.855,1.964-2.764,3.928-2.764
	c2.692,0,3.892,1.455,3.892,2.8c-0.764,0-1.382,0-2.146,0c0-0.836-0.8-1.273-1.746-1.273c-0.582-0.036-1.637,0.182-1.673,0.946
	c-0.073,2.146,5.819,0.545,5.819,4.292c0,2.037-1.673,3.128-4.074,3.128c-2.473,0-4.037-1.091-4.037-3.164c0.764,0,1.309,0,2.073,0
	c0,1.055,1.091,1.6,2.037,1.6c0.655-0.036,1.673-0.291,1.673-1.091C36.221,9.062,30.365,10.881,30.365,7.171L30.365,7.171z"/>
</svg>
