<?xml version="1.0" encoding="utf-8"?>
<!-- Generator: Adobe Illustrator 17.1.0, SVG Export Plug-In . SVG Version: 6.00 Build 0)  -->
<!DOCTYPE svg PUBLIC "-//W3C//DTD SVG 1.1//EN" "http://www.w3.org/Graphics/SVG/1.1/DTD/svg11.dtd">
<svg version="1.1" id="Layer_1" xmlns="http://www.w3.org/2000/svg" xmlns:xlink="http://www.w3.org/1999/xlink" x="0px" y="0px"
	 viewBox="0 0 50 30" enable-background="new 0 0 50 30" xml:space="preserve">
<circle fill="#414042" cx="40.848" cy="17.783" r="5.263"/>
<g transform="matrix(1.0 0.0 0.0 1.0 400.5 187.25)">
	<g transform="matrix(1.0 0.0 0.0 1.0 0.0 0.0)">
		<path fill="#FFFFFF" d="M-357.698-168.75l0.961-2.614h1.554l-1.842,4.832h-1.347l-1.337-3.496h-1.366v3.496h-1.466v-3.496h-1.555
			v-1.337h5.436L-357.698-168.75z"/>
	</g>
</g>
<g>
	<g transform="matrix(1.0 0.0 0.0 1.0 0.0 0.0)">
		<path fill="#414042" d="M12.996,13.628h-2.258v9.129H6.55v-9.129H4.471V10.42H6.55V6.954h4.188v3.466h2.258
			C12.996,10.42,12.996,13.628,12.996,13.628z"/>
	</g>
</g>
<g>
	<g transform="matrix(1.0 0.0 0.0 1.0 0.0 0.0)">
		<path fill="#414042" d="M34.647,10.209v12.338h-3.99v-1.505h-0.059c-0.376,0.799-0.961,1.35-1.753,1.654
			c-0.515,0.204-1.152,0.307-1.911,0.307c-0.667,0-1.311-0.099-1.931-0.297c-0.937-0.297-1.677-0.792-2.218-1.486
			c-0.535-0.66-0.888-1.317-1.059-1.971c-0.146-0.548-0.218-1.343-0.218-2.387v-6.653h4.228v6.021c0,0.798,0.096,1.389,0.287,1.772
			c0.337,0.699,0.997,1.049,1.981,1.049c0.673,0,1.231-0.254,1.673-0.762c0.496-0.581,0.743-1.396,0.743-2.446v-5.634H34.647z"/>
	</g>
</g>
<g>
	<g transform="matrix(1.0 0.0 0.0 1.0 0.0 0.0)">
		<path fill="#414042" d="M17.473,12.38h0.059c0.271-0.528,0.588-0.934,0.951-1.218c0.614-0.482,1.426-0.733,2.436-0.752v4.228
			c-1.057,0.039-1.822,0.214-2.297,0.524c-0.594,0.396-0.891,1.076-0.891,2.04v5.555h-4.188V10.42h3.931
			C17.473,10.42,17.473,12.38,17.473,12.38z"/>
	</g>
</g>
</svg>
