<?xml version="1.0" encoding="UTF-8" standalone="no"?>
<!DOCTYPE svg PUBLIC "-//W3C//DTD SVG 1.1//EN" "http://www.w3.org/Graphics/SVG/1.1/DTD/svg11.dtd">
<svg width="100%" height="100%" viewBox="0 0 100 100" version="1.1" xmlns="http://www.w3.org/2000/svg" xmlns:xlink="http://www.w3.org/1999/xlink" xml:space="preserve" style="fill-rule:evenodd;clip-rule:evenodd;stroke-linejoin:round;stroke-miterlimit:1.41421;">
    <circle cx="50" cy="50" r="45.097" style="fill:rgb(216,216,216);"/>
    <g transform="matrix(0.212873,0,0,0.212873,-221.019,-85.3341)">
        <path d="M1159,601C1159,601 1220,668.5 1213,748.5L1246,748.5C1246,748.5 1253,652.5 1159,601" style="fill:white;fill-rule:nonzero;"/>
    </g>
    <g transform="matrix(0.212873,0,0,0.212873,-221.019,-85.3341)">
        <path d="M1187,523C1187,523 1261.35,586.235 1257.95,748.5L1290.2,748.5C1290.2,748.5 1300,579.035 1187,523" style="fill:white;fill-rule:nonzero;"/>
    </g>
    <g transform="matrix(0.212873,0,0,0.212873,-221.019,-85.3341)">
        <path d="M1309.98,748.5C1309.98,748.5 1311.89,638.878 1387.3,601C1387.3,601 1342.94,664.483 1343.42,748.5L1309.98,748.5Z" style="fill:white;fill-rule:nonzero;"/>
    </g>
    <g transform="matrix(0.212873,0,0,0.212873,-221.019,-85.3341)">
        <path d="M1290.41,631.34C1290.41,631.34 1299.73,661.504 1299.73,674.75C1299.73,674.75 1315.09,585.247 1354.94,561.72C1354.94,561.72 1316.14,564.601 1290.41,631.34" style="fill:white;fill-rule:nonzero;"/>
    </g>
</svg>
