<?xml version="1.0" encoding="UTF-8" standalone="no"?>
<!DOCTYPE svg PUBLIC "-//W3C//DTD SVG 1.1//EN" "http://www.w3.org/Graphics/SVG/1.1/DTD/svg11.dtd">
<svg width="100%" height="100%" viewBox="0 0 100 100" version="1.1" xmlns="http://www.w3.org/2000/svg" xmlns:xlink="http://www.w3.org/1999/xlink" xml:space="preserve" style="fill-rule:evenodd;clip-rule:evenodd;stroke-linejoin:round;stroke-miterlimit:1.41421;">
    <circle cx="50" cy="50" r="45.097" style="fill:rgb(216,216,216);"/>
    <g transform="matrix(0.123931,0,0,0.123931,21.3096,21.3097)">
        <path d="M359.418,189.996C372.148,186.589 394.579,179.837 401.765,172.895C407.539,167.317 408.926,159.136 405.385,151.544C400.218,140.468 386.694,134.38 370.927,136.042C360.46,137.144 337.366,144.01 312.916,151.28C292.658,157.303 268.401,164.515 255.002,167.057L255.002,159.501C255.002,158.281 254.908,157.082 254.728,155.912L279.708,140.924C289.142,135.264 295.002,124.914 295.002,113.913L295.002,89.579L341.934,11.36C344.065,7.808 342.913,3.201 339.361,1.07C335.809,-1.061 331.202,0.09 329.071,3.642L281.071,83.642C280.372,84.808 280.003,86.142 280.003,87.501L280.003,113.913C280.003,119.675 276.934,125.097 271.992,128.061L247.789,142.583C245.316,140.202 242.326,138.357 239.003,137.235L239.003,71.501C239.003,67.359 235.646,64.001 231.503,64.001C227.36,64.001 224.003,67.359 224.003,71.501L224.003,137.235C220.681,138.357 217.69,140.201 215.217,142.583L191.014,128.061C186.073,125.096 183.003,119.675 183.003,113.913L183.003,87.501C183.003,86.142 182.634,84.808 181.935,83.642L133.935,3.642C131.802,0.09 127.197,-1.06 123.645,1.07C120.093,3.201 118.941,7.808 121.072,11.36L168.004,89.579L168.004,113.913C168.004,124.914 173.864,135.264 183.298,140.924L208.278,155.912C208.098,157.083 208.004,158.281 208.004,159.501L208.004,167.057C194.605,164.515 170.348,157.303 150.09,151.28C125.64,144.01 102.546,137.144 92.079,136.042C76.316,134.384 62.789,140.469 57.621,151.544C54.08,159.135 55.467,167.316 61.241,172.895C68.427,179.837 90.857,186.589 103.588,189.996C124.658,195.635 144.827,199.001 157.539,199.001C167.736,199.001 178.619,197.862 188.272,196.431L171.443,210.455C164.653,216.114 159.586,223.538 156.79,231.925L136.811,291.861L73.647,370.817C71.059,374.051 71.584,378.771 74.818,381.359C76.201,382.465 77.856,383.003 79.499,383.003C81.699,383.003 83.879,382.039 85.36,380.188L149.36,300.188C149.913,299.497 150.339,298.714 150.619,297.875L171.02,236.67C172.933,230.932 176.4,225.852 181.046,221.98L208.003,199.516L208.003,204.872L186.412,231.861C179.7,240.25 176.003,250.788 176.003,261.534L176.003,317.826L112.717,452.309C110.953,456.057 112.562,460.525 116.31,462.288C117.342,462.774 118.428,463.004 119.498,463.004C122.312,463.004 125.011,461.411 126.289,458.695L190.289,322.695C190.759,321.696 191.003,320.606 191.003,319.502L191.003,261.533C191.003,254.18 193.532,246.97 198.125,241.23L208.003,228.882L208.003,255.501C208.003,278.02 218.106,295.001 231.503,295.001C244.9,295.001 255.003,278.02 255.003,255.501L255.003,228.882L264.881,241.23C269.474,246.97 272.003,254.18 272.003,261.532L272.003,319.501C272.003,320.605 272.247,321.695 272.717,322.694L336.717,458.694C337.995,461.41 340.693,463.003 343.508,463.003C344.577,463.003 345.664,462.773 346.696,462.287C350.444,460.523 352.052,456.055 350.289,452.308L287.003,317.825L287.003,261.533C287.003,250.787 283.306,240.249 276.594,231.86L255.003,204.871L255.003,199.515L281.96,221.979C286.606,225.851 290.073,230.931 291.986,236.668L312.387,297.873C312.667,298.712 313.093,299.496 313.646,300.186L377.646,380.186C379.127,382.038 381.307,383.001 383.507,383.001C385.15,383.001 386.805,382.463 388.188,381.357C391.422,378.77 391.947,374.05 389.359,370.815L326.195,291.859L306.216,231.922C303.42,223.536 298.353,216.112 291.563,210.453L274.734,196.429C284.387,197.86 295.27,198.999 305.467,198.999C318.178,199.001 338.347,195.635 359.418,189.996ZM317.19,165.658C339.912,158.902 363.407,151.916 372.497,150.96C383.073,149.845 389.809,153.637 391.791,157.886C392.6,159.619 392.448,161.039 391.343,162.107C385.276,167.968 332.843,184.001 305.467,184.001C292.399,184.001 277.709,181.891 266.635,179.869C279.162,176.881 296.154,171.913 317.19,165.658ZM223.002,200.001L223.002,181.404C225.64,182.431 228.505,183.001 231.502,183.001C234.499,183.001 237.364,182.431 240.002,181.404L240.002,200.001L223.002,200.001ZM240.002,215.001L240.002,232.001L223.002,232.001L223.002,215.001L240.002,215.001ZM231.502,151.001C236.189,151.001 240.002,154.814 240.002,159.501C240.002,164.188 236.189,168.001 231.502,168.001C226.815,168.001 223.002,164.188 223.002,159.501C223.002,154.814 226.815,151.001 231.502,151.001ZM71.661,162.107C70.556,161.039 70.404,159.619 71.213,157.886C72.957,154.147 78.381,150.763 86.866,150.763C88.023,150.763 89.238,150.826 90.507,150.96C99.597,151.916 123.092,158.902 145.814,165.658C166.85,171.913 183.842,176.881 196.37,179.869C185.296,181.89 170.606,184.001 157.538,184.001C130.161,184.001 77.728,167.969 71.661,162.107ZM231.502,280.001C229.386,280.001 223.002,271.312 223.002,255.501L223.002,247.001L240.002,247.001L240.002,255.501C240.002,271.312 233.618,280.001 231.502,280.001Z" style="fill:white;fill-rule:nonzero;"/>
    </g>
</svg>
