<?xml version="1.0" encoding="UTF-8" standalone="no"?>
<!DOCTYPE svg PUBLIC "-//W3C//DTD SVG 1.1//EN" "http://www.w3.org/Graphics/SVG/1.1/DTD/svg11.dtd">
<svg width="100%" height="100%" viewBox="0 0 100 100" version="1.1" xmlns="http://www.w3.org/2000/svg" xmlns:xlink="http://www.w3.org/1999/xlink" xml:space="preserve" style="fill-rule:evenodd;clip-rule:evenodd;stroke-miterlimit:10;">
    <circle cx="50" cy="50" r="45.097" style="fill:rgb(216,216,216);"/>
    <g transform="matrix(0.636415,0,0,0.636415,-287.414,-40.4835)">
        <path d="M527.219,120.615C527.219,116.822 524.144,113.747 520.351,113.747C516.558,113.747 513.483,116.822 513.483,120.615C513.483,124.408 516.558,127.483 520.351,127.483C524.144,127.483 527.219,124.408 527.219,120.615" style="fill:rgb(216,216,216);fill-rule:nonzero;"/>
    </g>
    <g transform="matrix(0.636415,0,0,0.636415,-287.414,-40.4835)">
        <path d="M527.219,120.615C527.219,116.822 524.144,113.747 520.351,113.747C516.558,113.747 513.483,116.822 513.483,120.615C513.483,124.408 516.558,127.483 520.351,127.483C524.144,127.483 527.219,124.408 527.219,120.615Z" style="fill:none;stroke:white;stroke-width:2.81px;"/>
    </g>
    <g transform="matrix(0.636415,0,0,0.636415,-287.414,-40.4835)">
        <path d="M537.122,131.663C537.122,126.114 532.794,121.615 527.456,121.615C522.117,121.615 517.789,126.114 517.789,131.663C517.789,137.212 522.117,141.711 527.456,141.711C532.794,141.711 537.122,137.212 537.122,131.663" style="fill:rgb(216,216,216);fill-rule:nonzero;"/>
    </g>
    <g transform="matrix(0.636415,0,0,0.636415,-287.414,-40.4835)">
        <path d="M537.122,131.663C537.122,126.114 532.794,121.615 527.456,121.615C525.12,121.615 522.978,122.476 521.307,123.909C519.158,125.752 517.789,128.541 517.789,131.663C517.789,137.212 522.117,141.711 527.456,141.711C532.794,141.711 537.122,137.212 537.122,131.663Z" style="fill:none;stroke:white;stroke-width:2.81px;stroke-linecap:round;"/>
    </g>
    <g transform="matrix(0.636415,0,0,0.636415,-287.414,-40.4835)">
        <path d="M559.397,149.895C553.787,137.94 541.091,132.072 531.039,136.788C520.988,141.505 517.387,155.02 522.996,166.975C528.606,178.931 541.302,184.799 551.354,180.082C561.406,175.365 565.007,161.85 559.397,149.895" style="fill:rgb(216,216,216);fill-rule:nonzero;"/>
    </g>
    <g transform="matrix(0.636415,0,0,0.636415,-287.414,-40.4835)">
        <path d="M559.397,149.895C553.787,137.94 541.091,132.072 531.039,136.788C520.988,141.505 517.387,155.02 522.996,166.975C528.606,178.931 541.302,184.799 551.354,180.082C561.406,175.365 565.007,161.85 559.397,149.895Z" style="fill:none;stroke:white;stroke-width:2.81px;"/>
    </g>
    <g transform="matrix(0.636415,0,0,0.636415,-287.414,-40.4835)">
        <path d="M532.818,123.303C532.818,123.303 541.003,118.356 534.268,102.641" style="fill:none;stroke:white;stroke-width:2.81px;stroke-linecap:round;"/>
    </g>
    <g transform="matrix(0.636415,0,0,0.636415,-287.414,-40.4835)">
        <path d="M535.984,126.934C535.984,126.934 553.276,121.35 551.779,106.981" style="fill:none;stroke:white;stroke-width:2.81px;stroke-linecap:round;"/>
    </g>
    <g transform="matrix(0.636415,0,0,0.636415,-287.414,-40.4835)">
        <path d="M537.122,130.929C537.122,130.929 554.773,135.145 563.604,120.615" style="fill:none;stroke:white;stroke-width:2.81px;stroke-linecap:round;"/>
    </g>
    <g transform="matrix(0.636415,0,0,0.636415,-287.414,-40.4835)">
        <path d="M522.594,113.747C522.594,113.747 526.635,105.935 515.56,106.234" style="fill:none;stroke:white;stroke-width:2.81px;stroke-linecap:round;"/>
    </g>
    <g transform="matrix(0.636415,0,0,0.636415,-287.414,-40.4835)">
        <path d="M517.286,132.009C517.286,132.009 508.877,136.564 498.733,122.801" style="fill:none;stroke:white;stroke-width:2.81px;stroke-linecap:round;"/>
    </g>
    <g transform="matrix(0.636415,0,0,0.636415,-287.414,-40.4835)">
        <path d="M518.815,136.577C518.815,136.577 505.246,148.664 493.612,140.1" style="fill:none;stroke:white;stroke-width:2.81px;stroke-linecap:round;"/>
    </g>
    <g transform="matrix(0.636415,0,0,0.636415,-287.414,-40.4835)">
        <path d="M521.684,139.58C521.684,139.58 516.386,156.937 499.384,157.197" style="fill:none;stroke:white;stroke-width:2.81px;stroke-linecap:round;"/>
    </g>
    <g transform="matrix(0.636415,0,0,0.636415,-288.307,-40.4835)">
        <path d="M514.219,118.353C514.219,118.353 505.436,117.884 511.3,108.483" style="fill:none;stroke:white;stroke-width:2.81px;stroke-linecap:round;"/>
    </g>
</svg>
