<?xml version="1.0" encoding="UTF-8" standalone="no"?>
<!DOCTYPE svg PUBLIC "-//W3C//DTD SVG 1.1//EN" "http://www.w3.org/Graphics/SVG/1.1/DTD/svg11.dtd">
<svg width="100%" height="100%" viewBox="0 0 251 251" version="1.1" xmlns="http://www.w3.org/2000/svg" xmlns:xlink="http://www.w3.org/1999/xlink" xml:space="preserve" xmlns:serif="http://www.serif.com/" style="fill-rule:evenodd;clip-rule:evenodd;stroke-linejoin:round;stroke-miterlimit:1.41421;">
    <rect id="Artboard1" x="0" y="0" width="250.02" height="250.02" style="fill:none;"/>
    <clipPath id="_clip1">
        <rect id="Artboard11" serif:id="Artboard1" x="0" y="0" width="250.02" height="250.02"/>
    </clipPath>
    <g clip-path="url(#_clip1)">
        <g transform="matrix(1.39715,0,0,1.39715,35.5929,35.5887)">
            <path d="M14.646,2.701L14.646,69.006L63.999,97.138L63.999,78.015L30.982,59.195L30.982,29.633L63.999,48.454L63.999,30.834L14.646,2.701Z" style="fill:rgb(0,42,65);fill-rule:nonzero;"/>
        </g>
        <g transform="matrix(1.39715,0,0,1.39715,35.5929,35.5887)">
            <path d="M14.646,125.303L14.646,58.998L63.999,30.864L63.999,49.989L30.982,68.808L30.982,96.867L63.999,78.047L63.999,97.171L14.646,125.304L14.646,125.303Z" style="fill:rgb(0,113,181);fill-rule:nonzero;"/>
        </g>
        <g transform="matrix(1.39715,0,0,1.39715,35.5929,35.5887)">
            <path d="M113.353,2.701L113.353,69.006L64,97.138L64,78.015L97.016,59.195L97.016,29.633L64,48.454L64,30.834L113.353,2.701Z" style="fill:rgb(0,113,181);fill-rule:nonzero;"/>
        </g>
        <g transform="matrix(1.39715,0,0,1.39715,35.5929,35.5887)">
            <path d="M113.353,125.303L113.353,58.998L64,30.864L64,49.989L97.016,68.808L97.016,96.867L64,78.047L64,97.171L113.353,125.304L113.353,125.303Z" style="fill:rgb(0,42,65);fill-rule:nonzero;"/>
        </g>
    </g>
</svg>
