<?xml version="1.0" encoding="UTF-8" standalone="no"?>
<!DOCTYPE svg PUBLIC "-//W3C//DTD SVG 1.1//EN" "http://www.w3.org/Graphics/SVG/1.1/DTD/svg11.dtd">
<svg width="100%" height="100%" viewBox="0 0 251 251" version="1.1" xmlns="http://www.w3.org/2000/svg" xmlns:xlink="http://www.w3.org/1999/xlink" xml:space="preserve" xmlns:serif="http://www.serif.com/" style="fill-rule:evenodd;clip-rule:evenodd;stroke-linejoin:round;stroke-miterlimit:1.41421;">
    <rect id="Artboard1" x="0" y="0" width="250.02" height="250.02" style="fill:none;"/>
    <clipPath id="_clip1">
        <rect id="Artboard11" serif:id="Artboard1" x="0" y="0" width="250.02" height="250.02"/>
    </clipPath>
    <g clip-path="url(#_clip1)">
        <g id="logos" transform="matrix(0.693189,0,0,0.693189,-6.3048,26.7358)">
            <g transform="matrix(1,0,0,1,1.85253,0)">
                <path d="M208.94,212.64C208.94,212.605 208.94,212.571 208.94,212.536C208.94,168.682 172.854,132.596 129,132.596C85.146,132.596 49.06,168.682 49.06,212.536C49.06,219.721 50.029,226.874 51.94,233.8C52.64,236.36 53.467,238.883 54.42,241.36C54.917,242.616 56.139,243.444 57.49,243.44L79.26,243.44C79.263,243.44 79.267,243.44 79.27,243.44C81.07,243.44 82.55,241.959 82.55,240.16C82.55,239.611 82.413,239.072 82.15,238.59C81.29,237.04 80.52,235.44 79.81,233.81C76.904,227.092 75.405,219.85 75.405,212.531C75.405,183.127 99.601,158.931 129.005,158.931C158.409,158.931 182.605,183.127 182.605,212.531C182.605,219.85 181.106,227.092 178.2,233.81C177.46,235.543 176.629,237.235 175.71,238.88C175.458,239.336 175.326,239.849 175.326,240.37C175.326,242.06 176.716,243.45 178.406,243.45C178.41,243.45 178.415,243.45 178.42,243.45L200.66,243.45C201.943,243.449 203.098,242.65 203.55,241.45C204.52,238.935 205.361,236.371 206.07,233.77C207.97,226.887 208.935,219.78 208.94,212.64Z" style="fill:rgb(0,135,116);fill-rule:nonzero;"/>
            </g>
            <g transform="matrix(1,0,0,1,1.85253,0)">
                <path d="M220.23,106.34C220.203,106.34 220.176,106.34 220.149,106.34C164.528,106.34 118.759,152.109 118.759,207.73C118.759,216.469 119.889,225.171 122.12,233.62C122.8,236.22 123.55,238.8 124.43,241.31C124.882,242.577 126.085,243.43 127.43,243.44L149,243.44C150.75,243.44 152.19,242 152.19,240.25C152.19,239.791 152.091,239.337 151.9,238.92C151.11,237.19 150.41,235.42 149.76,233.62C146.698,225.305 145.13,216.514 145.13,207.653C145.13,166.438 179.045,132.523 220.26,132.523C261.475,132.523 295.39,166.438 295.39,207.653C295.39,216.514 293.822,225.305 290.76,233.62C290.093,235.493 289.34,237.333 288.5,239.14C288.305,239.546 288.204,239.99 288.204,240.44C288.204,242.086 289.558,243.44 291.204,243.44C291.219,243.44 291.235,243.44 291.25,243.44L313,243.44C314.283,243.447 315.438,242.644 315.88,241.44C316.78,238.89 317.54,236.28 318.23,233.64C320.461,225.191 321.591,216.489 321.591,207.75C321.591,152.129 275.822,106.36 220.201,106.36C220.174,106.36 220.147,106.36 220.12,106.36L220.23,106.34Z" style="fill:rgb(0,174,158);fill-rule:nonzero;"/>
            </g>
            <g transform="matrix(1,0,0,1,1.85253,0)">
                <path d="M276.4,133C276.431,132.031 276.447,131.062 276.447,130.092C276.447,80.72 235.82,40.092 186.447,40.092C138.124,40.092 97.984,79.01 96.49,127.31C96.43,129.203 96.43,131.1 96.49,133C96.49,135.77 96.63,138.5 96.88,141.21L123.38,141.21C123.027,138.493 122.85,135.756 122.85,133.016C122.85,98.126 151.56,69.416 186.45,69.416C221.334,69.416 250.041,98.116 250.05,133C250.05,134.16 250.05,135.31 249.95,136.45C249.289,149.06 244.864,161.187 237.25,171.26C236.799,171.852 236.555,172.576 236.555,173.32C236.555,175.185 238.09,176.72 239.955,176.72C239.96,176.72 239.965,176.72 239.97,176.72L262.97,176.72C264.222,176.713 265.375,176.022 265.97,174.92C272.251,163.035 275.768,149.884 276.26,136.45C276.33,135.31 276.4,134.17 276.4,133ZM330.69,231.66L330.69,243.44L329,243.44L329,231.66L325.24,231.66L325.24,230.08L334.47,230.08L334.47,231.66L330.69,231.66ZM347.93,243.44L347.93,232.39L343.38,243.44L342.89,243.44L338.34,232.39L338.34,243.44L336.64,243.44L336.64,230.08L339.25,230.08L343.14,239.79L347.03,230.08L349.64,230.08L349.64,243.44L347.93,243.44Z" style="fill:rgb(0,135,116);fill-rule:nonzero;"/>
            </g>
        </g>
    </g>
</svg>
