<?xml version="1.0" encoding="UTF-8" standalone="no"?>
<!DOCTYPE svg PUBLIC "-//W3C//DTD SVG 1.1//EN" "http://www.w3.org/Graphics/SVG/1.1/DTD/svg11.dtd">
<svg width="100%" height="100%" viewBox="0 0 251 251" version="1.1" xmlns="http://www.w3.org/2000/svg" xmlns:xlink="http://www.w3.org/1999/xlink" xml:space="preserve" xmlns:serif="http://www.serif.com/" style="fill-rule:evenodd;clip-rule:evenodd;stroke-linejoin:round;stroke-miterlimit:1.41421;">
    <rect id="Artboard1" x="0" y="0" width="250.02" height="250.02" style="fill:none;"/>
    <clipPath id="_clip1">
        <rect id="Artboard11" serif:id="Artboard1" x="0" y="0" width="250.02" height="250.02"/>
    </clipPath>
    <g clip-path="url(#_clip1)">
        <g transform="matrix(8.2534,0,0,8.2534,18.406,4.92306)">
            <path d="M10,18.65C8.914,17.565 8.303,16.09 8.303,14.555C8.303,13.02 8.914,11.545 10,10.46C10.484,10.029 10.762,9.411 10.762,8.763C10.762,7.518 9.737,6.493 8.492,6.493C7.846,6.493 7.23,6.769 6.8,7.25C4.886,9.198 3.808,11.819 3.8,14.55C3.827,17.277 4.902,19.892 6.8,21.85C7.224,22.274 7.8,22.513 8.4,22.513C9.641,22.513 10.663,21.491 10.663,20.25C10.663,19.65 10.424,19.074 10,18.65Z" style="fill:rgb(255,216,95);fill-rule:nonzero;"/>
        </g>
        <g transform="matrix(8.2534,0,0,8.2534,18.406,4.92306)">
            <path d="M10,10.45C11.085,9.364 12.56,8.753 14.095,8.753C15.63,8.753 17.105,9.364 18.19,10.45C18.606,10.822 19.145,11.028 19.703,11.028C20.949,11.028 21.973,10.003 21.973,8.758C21.973,8.202 21.769,7.665 21.4,7.25C19.452,5.336 16.831,4.258 14.1,4.25C11.373,4.277 8.758,5.352 6.8,7.25C6.376,7.674 6.137,8.25 6.137,8.85C6.137,10.091 7.159,11.113 8.4,11.113C9,11.113 9.576,10.874 10,10.45Z" style="fill:rgb(59,180,231);fill-rule:nonzero;"/>
        </g>
        <g transform="matrix(8.2534,0,0,8.2534,18.406,4.92306)">
            <path d="M18.17,18.65C17.085,19.736 15.61,20.347 14.075,20.347C12.54,20.347 11.065,19.736 9.98,18.65C9.549,18.166 8.931,17.888 8.283,17.888C7.038,17.888 6.013,18.913 6.013,20.158C6.013,20.804 6.289,21.42 6.77,21.85C8.718,23.764 11.339,24.842 14.07,24.85C16.797,24.823 19.412,23.748 21.37,21.85C21.794,21.426 22.033,20.85 22.033,20.25C22.033,19.009 21.011,17.987 19.77,17.987C19.17,17.987 18.594,18.226 18.17,18.65Z" style="fill:rgb(237,92,104);fill-rule:nonzero;"/>
        </g>
        <g transform="matrix(5.834,-5.83807,5.83807,5.834,-12.9574,75.41)">
            <circle cx="8.4" cy="8.85" r="2.3" style="fill:rgb(48,139,197);"/>
        </g>
        <g transform="matrix(5.834,-5.83807,5.83807,5.834,-79.4846,102.973)">
            <circle cx="8.4" cy="20.25" r="2.3" style="fill:rgb(213,70,95);"/>
        </g>
    </g>
</svg>
