<?xml version="1.0" encoding="UTF-8" standalone="no"?>
<!DOCTYPE svg PUBLIC "-//W3C//DTD SVG 1.1//EN" "http://www.w3.org/Graphics/SVG/1.1/DTD/svg11.dtd">
<svg width="100%" height="100%" viewBox="0 0 251 251" version="1.1" xmlns="http://www.w3.org/2000/svg" xmlns:xlink="http://www.w3.org/1999/xlink" xml:space="preserve" xmlns:serif="http://www.serif.com/" style="fill-rule:evenodd;clip-rule:evenodd;stroke-linejoin:round;stroke-miterlimit:1.41421;">
    <rect id="Artboard1" x="0" y="0" width="250.02" height="250.02" style="fill:none;"/>
    <clipPath id="_clip1">
        <rect id="Artboard11" serif:id="Artboard1" x="0" y="0" width="250.02" height="250.02"/>
    </clipPath>
    <g clip-path="url(#_clip1)">
        <g transform="matrix(1.48907,0,0,1.48907,40.185,40.2579)">
            <path d="M111.78,52L62,2.24C59.154,-0.601 54.476,-0.601 51.63,2.24L41.33,12.57L54.43,25.67C55.323,25.37 56.258,25.218 57.2,25.218C61.978,25.218 65.91,29.15 65.91,33.928C65.91,34.899 65.748,35.863 65.43,36.78L78.1,49.41C79.011,49.097 79.967,48.938 80.93,48.938C85.714,48.938 89.65,52.874 89.65,57.658C89.65,59.968 88.732,62.186 87.1,63.82C85.463,65.458 83.24,66.38 80.924,66.38C76.135,66.38 72.194,62.439 72.194,57.65C72.194,56.511 72.417,55.383 72.85,54.33L61.09,42.55L61.09,73.55C64.058,75.018 65.944,78.055 65.944,81.366C65.944,86.15 62.007,90.086 57.224,90.086C52.44,90.086 48.504,86.15 48.504,81.366C48.504,77.837 50.646,74.641 53.91,73.3L53.91,42C52.839,41.565 51.866,40.919 51.05,40.1C48.552,37.601 47.807,33.82 49.17,30.56L36.26,17.64L2.15,51.75C-0.697,54.597 -0.697,59.283 2.15,62.13L51.89,111.87C54.737,114.717 59.423,114.717 62.27,111.87L111.78,62.36C114.627,59.513 114.627,54.827 111.78,51.98" style="fill:rgb(240,81,51);fill-rule:nonzero;"/>
        </g>
    </g>
</svg>
