<?xml version="1.0" encoding="UTF-8" standalone="no"?>
<!DOCTYPE svg PUBLIC "-//W3C//DTD SVG 1.1//EN" "http://www.w3.org/Graphics/SVG/1.1/DTD/svg11.dtd">
<svg width="100%" height="100%" viewBox="0 0 251 251" version="1.1" xmlns="http://www.w3.org/2000/svg" xmlns:xlink="http://www.w3.org/1999/xlink" xml:space="preserve" xmlns:serif="http://www.serif.com/" style="fill-rule:evenodd;clip-rule:evenodd;stroke-linejoin:round;stroke-miterlimit:1.41421;">
    <rect id="Artboard1" x="0" y="0" width="250.02" height="250.02" style="fill:none;"/>
    <clipPath id="_clip1">
        <rect id="Artboard11" serif:id="Artboard1" x="0" y="0" width="250.02" height="250.02"/>
    </clipPath>
    <g clip-path="url(#_clip1)">
        <g id="gradient" transform="matrix(2.11263,0,0,2.11263,-27.099,-35.0445)">
            <path d="M100.8,36L43.2,36C39.224,36 36,39.224 36,43.2L36,108.8C36,112.776 39.224,116 43.2,116L100.8,116C104.776,116 108,112.776 108,108.8L108,43.2C108,39.224 104.776,36 100.8,36Z" style="fill:url(#_Radial2);fill-rule:nonzero;"/>
            <path d="M100.8,36L43.2,36C39.224,36 36,39.224 36,43.2L36,108.8C36,112.776 39.224,116 43.2,116L100.8,116C104.776,116 108,112.776 108,108.8L108,43.2C108,39.224 104.776,36 100.8,36Z" style="fill:url(#_Linear3);fill-rule:nonzero;"/>
        </g>
        <g id="logo_6_" transform="matrix(2.11263,0,0,2.11263,-27.099,-35.0445)">
            <path d="M54,104L63,96L54,88L54,104Z" style="fill:white;fill-rule:nonzero;"/>
            <path d="M86.517,71.575C84.905,69.944 81.945,68 77,68C71.577,68 65.994,69.411 62,70.711L62,48L54,48L54,82.692L59.651,80.132C59.742,80.091 68.866,76 77,76C81.062,76 81.961,78.243 82,80.11L82,104L90,104L90,80C90.005,79.488 89.958,75.055 86.517,71.575Z" style="fill:white;fill-rule:nonzero;"/>
            <path d="M76,61L84,61C87.618,56.9 89.46,52.544 90,48L82,48C81.118,52.534 79.144,56.875 76,61Z" style="fill:white;fill-rule:nonzero;"/>
        </g>
    </g>
    <defs>
        <radialGradient id="_Radial2" cx="0" cy="0" r="1" gradientUnits="userSpaceOnUse" gradientTransform="matrix(53.5023,0,0,53.5023,72,76)"><stop offset="0" style="stop-color:rgb(132,77,184);stop-opacity:1"/><stop offset="1" style="stop-color:rgb(91,22,163);stop-opacity:1"/></radialGradient>
        <linearGradient id="_Linear3" x1="0" y1="0" x2="1" y2="0" gradientUnits="userSpaceOnUse" gradientTransform="matrix(76.2647,-76.2648,76.2648,76.2647,36.5,111.5)"><stop offset="0" style="stop-color:rgb(118,115,192);stop-opacity:0.498039"/><stop offset="1" style="stop-color:rgb(118,115,192);stop-opacity:0"/></linearGradient>
    </defs>
</svg>
