<?xml version="1.0" encoding="UTF-8" standalone="no"?>
<!DOCTYPE svg PUBLIC "-//W3C//DTD SVG 1.1//EN" "http://www.w3.org/Graphics/SVG/1.1/DTD/svg11.dtd">
<svg width="100%" height="100%" viewBox="0 0 251 251" version="1.1" xmlns="http://www.w3.org/2000/svg" xmlns:xlink="http://www.w3.org/1999/xlink" xml:space="preserve" xmlns:serif="http://www.serif.com/" style="fill-rule:evenodd;clip-rule:evenodd;stroke-linejoin:round;stroke-miterlimit:1.41421;">
    <rect id="Artboard1" x="0" y="0" width="250.02" height="250.02" style="fill:none;"/>
    <clipPath id="_clip1">
        <rect id="Artboard11" serif:id="Artboard1" x="0" y="0" width="250.02" height="250.02"/>
    </clipPath>
    <g clip-path="url(#_clip1)">
        <g transform="matrix(0.068008,0,0,0.068008,40,40)">
            <path d="M2273.37,0L226.631,0C101.465,0 0,101.465 0,226.631L0,2273.37C0,2398.53 101.465,2500 226.631,2500L2273.37,2500C2398.53,2500 2500,2398.53 2500,2273.37L2500,226.631C2500,101.465 2398.53,0 2273.37,0" style="fill:rgb(220,57,95);fill-rule:nonzero;"/>
        </g>
        <g transform="matrix(0.068008,0,0,0.068008,40,40)">
            <path d="M835.498,786.572C918.604,786.572 988.223,721.436 988.223,636.064C988.223,550.752 918.604,485.625 835.498,485.625C752.393,485.625 682.793,550.752 682.793,636.064C682.793,721.426 752.393,786.572 835.498,786.572M518.838,1592.43C509.863,1630.62 505.361,1671.85 505.361,1705.48C505.361,1838.01 577.227,1925.99 729.951,1925.99C856.611,1925.99 959.297,1850.77 1033.23,1729.32L988.086,1910.5L1239.6,1910.5L1383.35,1333.94C1419.29,1187.97 1488.91,1112.2 1594.47,1112.2C1677.57,1112.2 1729.22,1163.88 1729.22,1249.19C1729.22,1273.91 1726.97,1300.83 1717.99,1330.04L1643.87,1595.05C1632.64,1633.23 1628.16,1671.44 1628.16,1707.34C1628.16,1833.15 1702.26,1925.18 1857.23,1925.18C1989.74,1925.18 2095.28,1839.87 2153.68,1635.49L2054.87,1597.34C2005.46,1734.27 1962.78,1759.02 1929.09,1759.02C1895.4,1759.02 1877.43,1736.58 1877.43,1691.69C1877.43,1671.48 1881.94,1649.04 1888.66,1622.03L1960.55,1363.85C1978.51,1303.22 1985.25,1249.46 1985.25,1200.07C1985.25,1006.92 1868.46,906.123 1726.97,906.123C1594.47,906.123 1459.71,1025.64 1392.34,1151.44L1441.74,925.654L1057.71,925.654L1003.81,1124.52L1183.49,1124.52L1072.84,1567.49C985.957,1760.63 826.357,1763.77 806.328,1759.29C773.438,1751.87 752.402,1739.38 752.402,1696.64C752.402,1671.98 756.895,1636.56 768.125,1593.86L936.582,925.654L509.863,925.654L455.957,1124.52L633.369,1124.52L518.848,1592.43" style="fill:white;fill-rule:nonzero;"/>
        </g>
    </g>
</svg>
