<?xml version="1.0" encoding="UTF-8" standalone="no"?>
<!DOCTYPE svg PUBLIC "-//W3C//DTD SVG 1.1//EN" "http://www.w3.org/Graphics/SVG/1.1/DTD/svg11.dtd">
<svg width="100%" height="100%" viewBox="0 0 251 251" version="1.1" xmlns="http://www.w3.org/2000/svg" xmlns:xlink="http://www.w3.org/1999/xlink" xml:space="preserve" xmlns:serif="http://www.serif.com/" style="fill-rule:evenodd;clip-rule:evenodd;">
    <rect id="Artboard1" x="0" y="0" width="250.02" height="250.02" style="fill:none;"/>
    <clipPath id="_clip1">
        <rect id="Artboard11" serif:id="Artboard1" x="0" y="0" width="250.02" height="250.02"/>
    </clipPath>
    <g clip-path="url(#_clip1)">
        <g transform="matrix(0.542956,0,0,0.542956,38.2619,4.70628)">
            <path d="M269.15,215.3C269.15,277.09 220.15,327.17 159.78,327.17C99.41,327.17 50.4,277.09 50.4,215.3C50.4,153.51 99.4,103.42 159.77,103.42C220.14,103.42 269.15,153.52 269.15,215.3" style="fill:rgb(211,56,51);fill-rule:nonzero;"/>
        </g>
        <g transform="matrix(0.542956,0,0,0.542956,38.2619,4.70628)">
            <path d="M54.86,243C54.86,243 46.94,126.33 154.44,123L146.94,110.5L88.61,130.1L71.94,149.26L57.36,177.18L49,209.68L51.5,231.35" style="fill:rgb(239,61,58);fill-rule:nonzero;"/>
        </g>
        <g transform="matrix(0.542956,0,0,0.542956,38.2619,4.70628)">
            <path d="M84.86,139C43.692,181.509 43.692,249.961 84.86,292.47C104.493,312.751 131.543,324.214 159.77,324.214C187.997,324.214 215.047,312.751 234.68,292.47C275.848,249.961 275.848,181.509 234.68,139C215.047,118.719 187.997,107.256 159.77,107.256C131.543,107.256 104.493,118.719 84.86,139ZM80,297.2C36.24,252.067 36.24,179.333 80,134.2C100.903,112.597 129.71,100.386 159.77,100.386C189.83,100.386 218.637,112.597 239.54,134.2C283.3,179.333 283.3,252.067 239.54,297.2C218.637,318.803 189.83,331.014 159.77,331.014C129.71,331.014 100.903,318.803 80,297.2" style="fill:rgb(35,31,32);fill-rule:nonzero;"/>
        </g>
        <g transform="matrix(0.542956,0,0,0.542956,38.2619,4.70628)">
            <path d="M205.81,215.92L189.14,218.42L166.64,220.92L152.06,221.34L137.89,220.92L127.06,217.59L117.48,207.17L110,185.92L108.33,181.34L98.33,178.01L92.5,168.43L88.33,154.68L92.91,142.6L103.74,138.85L112.49,143.02L116.66,152.19L121.66,151.36L123.33,149.28L121.66,139.7L121.24,127.62L123.74,110.95L123.64,101.43L131.24,89.28L144.57,79.7L167.9,69.7L193.73,73.45L216.23,89.7L226.65,106.37L233.32,118.45L234.99,148.45L229.99,174.28L220.82,197.2L212.07,209.28" style="fill:rgb(240,214,183);fill-rule:nonzero;"/>
        </g>
        <g transform="matrix(0.542956,0,0,0.542956,38.2619,4.70628)">
            <path d="M191.65,288L132.07,290.5L132.07,300.5L137.07,335.5L134.57,338.42L92.9,324.26L89.98,319.26L85.81,272.18L76.23,243.85L74.15,237.18L107.48,214.26L117.9,210.09L127.07,221.34L134.99,228.42L144.16,231.34L148.33,232.59L153.33,254.26L157.08,258.84L166.66,255.51L160,268.42L196.25,285.5L191.67,288" style="fill:rgb(51,80,97);fill-rule:nonzero;"/>
        </g>
        <g transform="matrix(0.542956,0,0,0.542956,38.2619,4.70628)">
            <path d="M110.81,178.42L116.27,173.13C117.843,173.413 119.034,174.736 119.15,176.33C119.57,179.25 120.82,205.5 138.73,219.66C140.37,220.95 125.4,217.57 125.4,217.57L112.07,196.74M187.49,170.49C187.49,170.49 188.49,157.86 191.86,158.83C193.821,159.387 195.202,161.163 195.26,163.2C195.318,165.237 187,168.54 187.49,170.49M222.06,124.26C222.06,124.26 215.19,125.71 214.56,131.76C213.93,137.81 222.06,133.01 223.31,132.59M171.64,124.67C171.64,124.67 162.47,125.92 162.47,131.75C162.47,137.58 172.89,137.17 175.8,134.67M115,151.76C115,151.76 99.17,142.18 97.5,151.34C95.83,160.5 92.08,167.17 100,176.76L94.58,175.09L89.58,162.17L87.91,149.67L97.49,139.67L108.32,140.5L114.57,145.5L114.99,151.75M122.49,125.5C122.49,125.5 129.57,88.83 165.41,81.75C194.91,75.92 210.41,83 216.24,89.67C216.24,89.67 189.99,58.42 164.99,68C139.99,77.58 121.66,95.08 122.07,106.33C122.78,125.49 122.49,125.5 122.49,125.5M219.16,93.83C219.16,93.83 207.08,93.41 206.66,104.25C206.701,105.406 206.984,106.54 207.49,107.58C207.996,108.62 217.08,96.75 222.91,102.58" style="fill:rgb(247,228,205);fill-rule:nonzero;"/>
        </g>
        <g transform="matrix(0.542956,0,0,0.542956,38.2619,4.70628)">
            <path d="M127.06,221.34L87.9,238.84C87.9,238.84 104.15,303.42 95.82,323.42L90,321.34L89.58,296.76L78.73,250.09L74.15,237.17L115,209.68L127.08,221.34M131.08,257.06L136.64,263.84L136.64,288.84L130,288.84C130,288.84 129.17,271.34 129.17,269.26C129.17,267.18 130,259.68 130,259.68M131.25,292.6L112.5,293.43L117.92,297.18L131.25,299.26" style="fill:rgb(73,114,139);fill-rule:nonzero;"/>
        </g>
        <g transform="matrix(0.542956,0,0,0.542956,38.2619,4.70628)">
            <path d="M200.77,331.24C200.49,337.82 201.42,348.38 201.77,355.24C206.15,355.24 208.02,354.24 211.29,353.18C211.66,345.06 208.72,337.54 207.87,330.12C206.1,329.7 202.93,331.38 200.77,331.24ZM132.63,293.8C135.52,320.33 139.7,342.63 147.36,366.12C164.36,371.29 184.89,371.74 199.92,367.12C197.16,353.86 198.37,337.72 196.75,323.57C195.54,312.94 196.15,302.24 194.49,291.39C176.27,287.6 150.49,290.5 132.63,293.85L132.63,293.8ZM198.8,291.51C198.65,302.9 199.31,314.14 200.18,325.51C204.56,324.85 207.52,324.41 211.59,323.51C210.27,312.51 210.43,300.17 207.74,290.46C204.64,290.54 201.9,290.47 198.8,291.51ZM221,289.67C218.92,289.19 216.51,289.67 214.52,289.67C215.45,298.96 217.72,309.21 218.52,318.96C221.64,319.06 223.31,317.59 225.88,317.09C226.02,308.53 225.13,296.74 221.01,289.66L221,289.67ZM254.6,320.37C261.11,318.79 265.2,310.82 263.38,302.64C262.16,297.14 259.98,286.78 257.66,283.27C255.94,280.67 251.28,277.27 247.55,279.65C241.49,283.53 230.82,284.65 226.4,289.35C228.61,296.73 229.3,306.86 230.22,316.2C237.79,316.67 247.1,314.12 253.39,316.83C249,318.25 243.29,318.26 239.5,320.34C242.6,321.84 249.87,321.54 254.6,320.34L254.6,320.37ZM194.1,280.8C189.53,270.05 185.38,258.92 178.56,250.26C171.95,254.69 164.67,258.86 162.81,266.91C172.27,272.27 183.3,277.56 194.1,280.81L194.1,280.8ZM205.36,247.52C204.93,258.27 203.7,272.37 200.84,280.79C207.67,272.09 213.19,261.96 218.94,252.09C216.49,248.16 211.36,244.72 205.36,247.53L205.36,247.52ZM192.59,243C190,242.72 187.8,246 184.44,244.57C183.67,245.42 182.97,246.35 182.18,247.18C189.61,256.18 192.99,268.85 198.74,279.38C201.82,269.26 201.47,258.18 202.14,247.14C197.91,247.41 195.56,243.31 192.59,243ZM184.38,232.16C184.1,235.23 184.82,236.23 185.43,239.75C195.52,242.9 193.76,225.9 184.38,232.15L184.38,232.16ZM173.19,228.49C168.005,225.721 162.453,223.7 156.7,222.49C149.7,221.16 150.39,231.98 150.7,238.44C150.93,243.55 153.59,248.96 154.7,252.35C155.24,253.94 155.36,255.62 156.7,255.93C159.1,256.49 167,253.33 169.26,252.1C174.02,249.5 177.72,245.38 181.77,242.61L181.93,238.61C179.185,237.24 176.176,236.479 173.11,236.38C175.53,235.16 179.11,235.18 181.3,233.73C181.3,233.19 181.3,232.65 181.36,232.12C177.39,231.73 175.85,229.93 173.2,228.48L173.19,228.49ZM131.67,220.95C128.06,224.61 141.79,229.6 146.16,229.87C146.16,227.55 147.48,225.37 147.21,223.71C142.02,222.8 135.21,223.4 131.67,220.95ZM176.11,222.67C176.11,223.03 175.63,222.9 175.55,223.19C180.19,226.82 183.64,227.57 189.96,227.26C192.81,225.19 195.34,222.77 198.3,220.84C191.47,221.45 182.87,225.69 176.11,222.68L176.11,222.67ZM216.91,235C216.71,230.93 215.65,222.56 213.13,221.1C207.85,218.02 198.47,227.32 194.49,228.74C194.92,229.98 195.64,230.97 195.69,232.56C198.131,232.029 200.68,232.317 202.94,233.38C200.58,233.64 197.94,233.63 196.41,234.75C195.84,236.4 196.55,238.65 196.17,240.94C202.39,242.587 208.787,243.47 215.22,243.57C216.6,241.78 217.06,238.38 216.9,235L216.91,235ZM125.61,224.45C124.48,223.64 116.81,213.67 115.76,214.08C101.89,219.59 88.93,229 77.34,238C88.34,261.71 92.85,290.75 93.63,318.74C106.29,324.66 117.4,333.19 134.57,334.08C132.57,320.02 130.77,307.48 129.64,294.24C125.33,292.42 119.14,294.32 115.1,293.68C115.1,288.81 121.27,291.55 121.78,288.28C122.17,285.8 118.37,285.62 119.61,281.72C122.77,282.87 124.42,285.4 127.79,286.35C130.87,279.62 127.79,267.71 128.19,262.09C128.27,261.03 128.72,256.24 131.08,257.09C133.17,257.83 130.96,269.84 131.19,275.17C131.4,280.07 130.6,284.82 132.58,287.9C149.63,285.555 166.796,284.139 184,283.66C180.05,281.97 175.36,280.36 170.21,277.46C167.42,275.89 158.63,272.62 157.82,269.97C156.54,265.75 161.19,263.5 161.99,259.88C153.61,264.45 151.99,255.5 149.99,249.16C148.538,244.811 147.448,240.349 146.73,235.82C139.53,232.38 131.82,228.89 125.61,224.48L125.61,224.45ZM209.61,215.29C221.16,209.69 223.25,236.23 218.72,244.78C219.42,247.33 221.83,248.31 222.81,250.6C216.36,262.15 209.2,272.93 202.62,284.34C207.51,281.34 214.5,283.8 220.26,281.52C222.36,280.69 223.89,275.87 225.48,272.01C229.86,261.4 234.48,248.01 236.48,237.91C236.94,235.6 238.2,230.58 237.92,228.53C237.42,224.85 232.43,222.13 229.92,219.86C225.25,215.66 222.3,211.97 217.43,208.04C215.44,211 211.2,213 209.58,215.32L209.61,215.29ZM99.18,112.86C93.67,118.92 94.83,130.27 95.49,138.34C105.49,132.08 118.65,138.84 118.49,149.48C123.24,149.35 120.27,143.55 119.41,139.8C116.6,127.58 124.14,114.3 119.75,103.13C111.89,103.566 104.503,107.06 99.18,112.86ZM138.57,77.7C126.11,81.23 110.13,90.29 105.01,101.49C109.01,100.91 111.73,98.91 115.64,98.67C117.12,98.57 119.06,99.29 120.75,98.87C124.14,98.03 126.99,90.44 129.55,87.61C132.11,84.78 135.03,83.67 137.08,81.16C138.4,80.52 140.34,80.57 140.42,78.59C139.86,78 139.26,77.51 138.57,77.71L138.57,77.7ZM203.45,81C190.51,73.7 168.62,68.21 154.86,75.07C143.76,80.61 128.75,89.77 123.63,101.37C128.41,112.57 122.21,122.84 121.82,134.21C121.61,140.26 124.67,145.54 124.9,152.13C123.26,154.83 118.27,155.13 114.81,154.98C113.65,149.15 111.61,142.6 105.61,141.98C97.12,141.05 90.91,148.08 90.53,155.42C90.07,164.06 97.16,178.42 107.21,177.42C111.09,177.04 112.04,173.14 116.28,173.18C118.57,177.75 112.74,179.18 112.14,182.46C112.217,184.386 112.505,186.297 113,188.16C114.83,195.7 118.89,205.46 122.9,211.16C127.98,218.44 137.97,219.54 148.71,220.25C150.63,216.12 157.71,216.46 162.3,217.54C156.78,215.35 151.65,210.05 147.4,205.36C142.51,199.98 137.57,194.2 137.32,187.17C146.55,199.98 154.18,211.17 170.97,216.8C183.67,221.06 198.51,214.8 208.27,207.99C212.32,205.14 214.74,200.62 217.62,196.48C228.39,180.99 233.42,158.87 232.31,137.48C231.85,128.64 231.88,119.83 228.91,113.88C225.81,107.66 215.32,102.1 209.19,107.72C208.05,101.72 214.29,97.93 221.62,100.11C216.37,93.33 210.88,85.22 203.45,81ZM227.55,280.46C237.66,275.46 256.55,266.93 262.88,280.46C265.503,286.466 267.608,292.685 269.17,299.05C270.88,306.32 267.32,321.6 259.84,324.05C253.24,326.2 245.54,326.05 237.59,324.48C236.475,323.475 235.556,322.271 234.88,320.93C229.2,320.71 223.88,321.23 219.4,323.57C219.83,327.77 216.99,328.44 214.32,329.31C212.32,337.14 218.27,347.31 216.85,354.49C215.85,359.57 209.58,360.36 204.99,361.31C204.914,363.844 205.085,366.379 205.5,368.88C204.45,372.75 199.73,374.96 195.27,375.5C180.57,377.27 158.27,378.06 144.12,372.98C140.18,363.3 137.07,351.53 133.78,340.48C119.99,341.95 108.84,334.48 98.32,329.67C94.68,327.98 89.65,327.05 88.32,324.16C86.99,321.27 87.54,315.98 87.21,310.9C86.38,297.9 85.66,285.42 82.21,272.14C80.67,266.14 77.99,260.92 76.12,255.14C74.39,249.82 71.37,243.24 70.58,237.93C69.41,230.06 76.82,229.63 81.58,226.22C88.9,220.95 94.65,218.03 102.58,213.28C104.93,211.87 112.01,208.28 112.82,206.66C114.42,203.4 110.07,198.81 108.91,196.26C107.169,192.673 106.131,188.787 105.85,184.81C99.844,183.82 94.506,180.391 91.11,175.34C86.11,167.95 82.58,154.28 86.94,143.89C87.28,143.07 88.94,141.46 89.24,140.2C89.74,137.72 88.31,134.43 88.24,131.8C87.78,118.29 90.53,106.65 99.62,102.57C103.31,87.86 116.53,82.97 128.98,75.66C133.63,72.93 138.77,71.18 144.06,69.23C163.06,62.23 192.24,63.55 208.06,75.48C214.75,80.54 225.44,91.22 229.27,98.96C239.37,119.38 238.65,153.51 231.59,178.35C230.507,182.538 229.086,186.632 227.34,190.59C226,193.39 221.83,198.99 222.34,201.46C222.85,203.93 231.85,210.84 233.77,212.69C237.24,216.04 243.83,220.48 244.36,224.69C244.93,229.18 242.36,235.33 241.09,239.69C236.77,254.16 232.55,267.54 227.64,280.44" style="fill:rgb(35,31,32);fill-rule:nonzero;"/>
        </g>
        <g transform="matrix(0.542956,0,0,0.542956,38.2619,4.70628)">
            <path d="M92.9,142.59L103.73,138.84L112.48,143.01L116.65,152.18L121.65,151.35L122.9,146.35L120.4,136.77L122.9,113.85L120.82,101.35L128.32,92.6L144.57,79.68L140,73.42L117.06,84.67L107.48,92.17L102.06,103.84L93.73,115.09L91.23,128.42L92.9,142.59" style="fill:rgb(109,107,109);fill-rule:nonzero;"/>
        </g>
        <g transform="matrix(0.542956,0,0,0.542956,38.2619,4.70628)">
            <path d="M110,103.42C110,103.42 116.23,88 141.23,80.51C166.23,73.02 142.48,75.09 142.48,75.09L115.39,85.51L105,95.92L100.42,104.25L110,103.42M97.5,139.67C97.5,139.67 88.75,110.5 122.08,106.34L120.83,101.34L97.9,106.76L91.23,128.43L92.9,142.6L97.48,139.68" style="fill:rgb(220,217,216);fill-rule:nonzero;"/>
        </g>
        <g transform="matrix(0.542956,0,0,0.542956,38.2619,4.70628)">
            <path d="M166.24,108.72C166.24,108.72 164.16,92.09 149.98,101.72C140.81,107.97 141.65,116.72 143.31,118.39C144.97,120.06 144.52,123.39 145.79,121.11C147.06,118.83 146.64,111.31 151.22,109.22C155.8,107.13 163.32,104.81 166.22,108.68" style="fill:rgb(247,228,205);fill-rule:nonzero;"/>
        </g>
        <g transform="matrix(0.542956,0,0,0.542956,38.2619,4.70628)">
            <path d="M195.4,288.42L210.82,288L214.57,326.33L198.74,328.41L195.41,288.41" style="fill:rgb(51,80,97);fill-rule:nonzero;"/>
        </g>
        <g transform="matrix(0.542956,0,0,0.542956,38.2619,4.70628)">
            <path d="M199.56,288.42L222.89,287.17C222.89,287.17 232.47,263 232.47,261.75C232.47,260.5 240.8,226.75 240.8,226.75L222.05,207.17L218.3,203.84L208.3,213.84L208.3,252.59L199.55,288.42" style="fill:rgb(51,80,97);fill-rule:nonzero;"/>
        </g>
        <g transform="matrix(0.542956,0,0,0.542956,38.2619,4.70628)">
            <path d="M210,285.51L195.42,288.43L197.5,300.1C202.92,302.6 212.08,295.93 212.08,295.93M210.41,212.6L239.58,234.27L240.41,224.27L218.33,203.85L210.41,212.6" style="fill:rgb(73,114,139);fill-rule:nonzero;"/>
        </g>
        <g transform="matrix(0.542956,0,0,0.542956,38.2619,4.70628)">
            <path d="M145.69,370.51L137.06,335.51L132.77,309.68L132.06,290.51L171.06,288.43L195.4,288.43L193.19,332.18L196.94,365.93L196.52,372.18L164.85,374.68L145.68,370.51" style="fill:white;fill-rule:nonzero;"/>
        </g>
        <g transform="matrix(0.542956,0,0,0.542956,38.2619,4.70628)">
            <path d="M190,288C190,288 187.92,331.33 194.17,362.17C184.688,367.583 174.193,370.987 163.34,372.17L198.34,370.92L202.51,368.42L197.51,300.09L196.26,285.5" style="fill:rgb(220,217,216);fill-rule:nonzero;"/>
        </g>
        <g transform="matrix(0.542956,0,0,0.542956,38.2619,4.70628)">
            <path d="M215.27,323L231.52,318.42L262.35,316.75L266.93,302.58L258.61,278L249,276.76L235.67,280.93L222.88,287.18L216.09,285.93L210.81,288" style="fill:white;fill-rule:nonzero;"/>
        </g>
        <g transform="matrix(0.542956,0,0,0.542956,38.2619,4.70628)">
            <path d="M215,314.67C215,314.67 225.83,309.67 227.5,310.09L222.92,287.17L228.34,285.09C228.34,285.09 232.09,306.76 232.09,309.26C232.09,309.26 255.42,310.51 257.51,310.51C257.51,310.51 262.51,300.93 261.26,290.93L265.84,304.26L266.26,311.76L259.59,321.76L252.09,323.43L239.59,323.01L235.42,317.59L220.84,319.67L216.26,321.34" style="fill:rgb(220,217,216);fill-rule:nonzero;"/>
        </g>
        <g transform="matrix(0.542956,0,0,0.542956,38.2619,4.70628)">
            <path d="M198.6,285.1L189.43,261.77L179.85,248C179.85,248 181.93,242.17 184.85,242.17L194.43,242.17L203.6,245.5L202.77,260.92L198.6,285.1" style="fill:white;fill-rule:nonzero;"/>
        </g>
        <g transform="matrix(0.542956,0,0,0.542956,38.2619,4.70628)">
            <path d="M200.4,277.17C200.4,277.17 188.73,254.67 188.73,251.34C188.73,251.34 190.81,246.34 193.73,247.59C196.65,248.84 202.9,252.17 202.9,252.17L202.9,244.25L188.73,241.33L179.15,242.58L195.4,280.91L198.73,281.33" style="fill:rgb(220,217,216);fill-rule:nonzero;"/>
        </g>
        <g transform="matrix(0.542956,0,0,0.542956,38.2619,4.70628)">
            <path d="M149.44,222.18L137.9,220.92L127.07,217.59L127.07,221.34L132.36,227.18L149.03,234.68" style="fill:white;fill-rule:nonzero;"/>
        </g>
        <g transform="matrix(0.542956,0,0,0.542956,38.2619,4.70628)">
            <path d="M130.81,223.43C130.81,223.43 143.73,228.85 147.89,227.6L148.31,232.6L136.64,230.11L129.56,225.11L130.81,223.44" style="fill:rgb(220,217,216);fill-rule:nonzero;"/>
        </g>
        <g transform="matrix(0.542956,0,0,0.542956,38.2619,4.70628)">
            <path d="M215.23,243.6C208.798,243.51 202.401,242.637 196.18,241C196.56,238.71 195.85,236.46 196.42,234.81C197.98,233.69 200.59,233.71 202.95,233.44C200.69,232.377 198.141,232.089 195.7,232.62C195.65,231.03 194.93,230.04 194.5,228.8C198.5,227.38 207.86,218.08 213.14,221.16C215.65,222.62 216.72,230.99 216.92,235.06C217.08,238.44 216.61,241.84 215.24,243.63" style="fill:rgb(211,56,51);fill-rule:nonzero;"/>
        </g>
        <g transform="matrix(0.542956,0,0,0.542956,38.2619,4.70628)">
            <path d="M215.23,243.6C208.798,243.51 202.401,242.637 196.18,241C196.56,238.71 195.85,236.46 196.42,234.81C197.98,233.69 200.59,233.71 202.95,233.44C200.69,232.377 198.141,232.089 195.7,232.62C195.65,231.03 194.93,230.04 194.5,228.8C198.5,227.38 207.86,218.08 213.14,221.16C215.65,222.62 216.72,230.99 216.92,235.06C217.08,238.44 216.61,241.84 215.24,243.63L215.23,243.6Z" style="fill:none;stroke:rgb(211,56,51);stroke-width:2.5px;"/>
        </g>
        <g transform="matrix(0.542956,0,0,0.542956,38.2619,4.70628)">
            <path d="M181.42,232C181.42,232.54 181.42,233.07 181.36,233.61C179.15,235.06 175.59,235.04 173.17,236.26C176.236,236.359 179.245,237.119 181.99,238.49L181.83,242.49C177.83,245.26 174.09,249.39 169.32,251.98C167.07,253.21 159.16,256.37 156.77,255.81C155.41,255.5 155.29,253.81 154.77,252.23C153.62,248.83 150.96,243.43 150.77,238.32C150.47,231.86 149.82,221.04 156.77,222.37C162.523,223.58 168.075,225.6 173.26,228.37C175.92,229.82 177.45,231.62 181.48,231.93" style="fill:rgb(211,56,51);fill-rule:nonzero;"/>
        </g>
        <g transform="matrix(0.542956,0,0,0.542956,38.2619,4.70628)">
            <path d="M181.42,232C181.42,232.54 181.42,233.07 181.36,233.61C179.15,235.06 175.59,235.04 173.17,236.26C176.236,236.359 179.245,237.119 181.99,238.49L181.83,242.49C177.83,245.26 174.09,249.39 169.32,251.98C167.07,253.21 159.16,256.37 156.77,255.81C155.41,255.5 155.29,253.81 154.77,252.23C153.62,248.83 150.96,243.43 150.77,238.32C150.47,231.86 149.82,221.04 156.77,222.37C162.523,223.58 168.075,225.6 173.26,228.37C175.92,229.82 177.45,231.62 181.48,231.93L181.42,232Z" style="fill:none;stroke:rgb(211,56,51);stroke-width:2.5px;"/>
        </g>
        <g transform="matrix(0.542956,0,0,0.542956,38.2619,4.70628)">
            <path d="M185.44,239.74C184.82,236.22 184.11,235.22 184.39,232.15C193.77,225.89 195.53,242.89 185.44,239.74" style="fill:rgb(211,56,51);fill-rule:nonzero;"/>
        </g>
        <g transform="matrix(0.542956,0,0,0.542956,38.2619,4.70628)">
            <path d="M185.44,239.74C184.82,236.22 184.11,235.22 184.39,232.15C193.77,225.89 195.53,242.89 185.44,239.74Z" style="fill:none;stroke:rgb(211,56,51);stroke-width:2.5px;"/>
        </g>
        <g transform="matrix(0.542956,0,0,0.542956,38.2619,4.70628)">
            <path d="M199,242.6C199,242.6 196.08,238.43 198.17,237.18C200.26,235.93 202.34,237.18 203.59,235.1C204.84,233.02 203.59,231.77 204.01,229.27C204.43,226.77 206.51,226.35 208.59,225.94C210.67,225.53 216.51,224.69 217.34,226.77L214.84,219.27L209.84,217.6L194,226.76L193.17,231.34L193.17,240.51M155.25,256.34C154.75,249.84 154.21,243.343 153.63,236.85C152.75,227.15 155.96,228.85 164.37,228.85C165.65,228.85 172.28,230.38 172.75,231.35C175.02,235.99 168.95,234.96 175.37,238.46C180.79,241.46 190.37,236.67 188.17,230.1C186.94,228.64 181.79,229.64 179.94,228.69L170.18,223.63C166.04,221.48 156.47,218.35 152.05,221.35C140.86,228.96 152.76,247.97 156.75,255.91" style="fill:rgb(239,61,58);fill-rule:nonzero;"/>
        </g>
        <g transform="matrix(0.542956,0,0,0.542956,38.2619,4.70628)">
            <path d="M166.24,108.72C154.88,106.07 149.24,113.47 145.8,121.14C142.73,120.4 143.95,116.22 144.73,114.08C146.73,108.49 154.95,101.08 161.65,102.08C164.53,102.51 168.43,105.15 166.25,108.73M221.58,121.66L222.12,121.66C224.69,126.99 226.91,132.66 230.12,137.35C227.95,142.4 213.7,146.87 213.92,137.8C217,136.45 222.32,137.52 225.06,135.8C223.48,131.46 221.2,127.8 221.56,121.64M172.04,121.78C174.47,126.24 175.27,130.93 178.73,134.31C180.29,135.83 183.32,137.68 181.82,141.9C181.47,142.9 178.9,145.12 177.42,145.55C172.01,147.15 159.42,145.88 163.67,139.13C168.14,139.34 174.16,142.04 177.51,138.79C174.94,134.68 170.36,126.56 172.05,121.79M219.54,167.16C211.39,172.39 202.31,178.09 188.96,176.76C185.791,173.7 185.293,168.749 187.79,165.12C189.23,167.6 188.33,172.12 192.35,172.85C199.92,174.15 208.74,168.22 214.19,166.14C217.57,160.44 213.9,158.35 210.86,154.68C204.63,147.17 196.27,137.86 196.57,126.61C199.09,124.78 199.31,129.4 199.67,130.24C202.92,137.85 211.11,147.59 217.09,154.11C218.56,155.72 220.97,157.25 221.24,158.32C222.01,161.41 219.24,165.1 219.55,167.16M112.14,161.65C109.59,160.19 108.98,153.77 105.98,153.59C101.7,153.33 102.48,161.92 102.49,166.94C99.49,164.26 99.02,156.02 101.19,151.79C98.72,150.58 97.62,153.13 96.25,154.03C98.01,141.24 114.96,148.1 112.14,161.66M224.74,172.49C220.95,179.71 215.58,187.66 204.45,187.89C204.22,185.56 204.05,182.01 204.45,180.61C212.96,179.79 218.21,175.46 224.72,172.49M171.4,177.17C178.5,180.9 191.54,181.3 201.19,181.02C201.631,183.427 201.809,185.875 201.72,188.32C189.32,188.94 174.66,185.87 171.4,177.17M170.05,184.17C174.96,196.49 191.83,195.07 206.05,194.74C205.396,196.542 204.085,198.032 202.38,198.91C197.82,200.76 185.25,202.17 178.92,198.81C174.92,196.68 172.33,191.81 170.13,189.03C169.07,187.66 163.78,184.18 170.05,184.17" style="fill:rgb(35,31,32);fill-rule:nonzero;"/>
        </g>
        <g transform="matrix(0.542956,0,0,0.542956,38.2619,4.70628)">
            <path d="M218.95,252.1C213.19,261.97 207.68,272.1 200.85,280.8C203.72,272.38 204.94,258.28 205.37,247.53C211.37,244.73 216.5,248.16 218.95,252.1" style="fill:rgb(129,176,196);fill-rule:nonzero;"/>
        </g>
        <g transform="matrix(0.542956,0,0,0.542956,38.2619,4.70628)">
            <path d="M249.94,287.56C243.49,288.85 238.94,295.12 232.67,294.72C236.13,289.85 242.19,287.79 249.94,287.56M252.79,297.65C247.53,298.2 241.36,299.06 236.03,298.65C238.55,294.8 248.28,296.13 252.79,297.65M254.61,306.35C248.7,306.48 241.36,306.35 235.74,305.89C239.06,302.32 250.74,304.57 254.61,306.35" style="fill:rgb(35,31,32);fill-rule:nonzero;"/>
        </g>
        <g transform="matrix(0.542956,0,0,0.542956,38.2619,4.70628)">
            <path d="M207.83,330.16C208.68,337.58 211.62,345.1 211.25,353.22C207.98,354.32 206.11,355.29 201.73,355.28C201.42,348.38 200.5,337.82 200.73,331.28C202.88,331.42 206.06,329.74 207.78,330.2" style="fill:rgb(220,217,216);fill-rule:nonzero;"/>
        </g>
        <g transform="matrix(0.542956,0,0,0.542956,38.2619,4.70628)">
            <path d="M198.31,220.82C195.31,222.76 192.82,225.17 189.97,227.24C183.65,227.55 180.21,226.8 175.56,223.17C175.64,222.88 176.1,223.01 176.12,222.65C182.88,225.65 191.48,221.42 198.31,220.81" style="fill:rgb(240,214,183);fill-rule:nonzero;"/>
        </g>
        <g transform="matrix(0.542956,0,0,0.542956,38.2619,4.70628)">
            <path d="M162.81,266.92C164.67,258.87 171.95,254.7 178.56,250.27C185.38,258.93 189.56,270.07 194.1,280.81C183.3,277.55 172.27,272.27 162.81,266.92" style="fill:rgb(129,176,196);fill-rule:nonzero;"/>
        </g>
        <g transform="matrix(0.542956,0,0,0.542956,38.2619,4.70628)">
            <path d="M160.11,180.32C160.66,179.59 163.67,178.48 167.89,180.51C167.89,180.51 162.89,181.34 163.31,189.68L161.23,189.26C161.23,189.26 159.08,181.7 160.12,180.32" style="fill:rgb(247,228,205);fill-rule:nonzero;"/>
        </g>
        <g transform="matrix(0.542956,0,0,0.542956,38.2619,4.70628)">
            <path d="M196.65,252C196.65,252.015 196.65,252.03 196.65,252.045C196.65,253.301 195.616,254.335 194.36,254.335C193.12,254.335 192.094,253.329 192.07,252.09L192.07,251.99C192.07,250.734 193.104,249.7 194.36,249.7C195.616,249.7 196.65,250.734 196.65,251.99M198.94,262.62C198.94,263.876 197.906,264.91 196.65,264.91C195.394,264.91 194.36,263.876 194.36,262.62C194.36,261.364 195.394,260.33 196.65,260.33C197.906,260.33 198.94,261.364 198.94,262.62" style="fill:rgb(29,25,25);fill-rule:nonzero;"/>
        </g>
    </g>
</svg>
