<?xml version="1.0" encoding="UTF-8" standalone="no"?>
<!DOCTYPE svg PUBLIC "-//W3C//DTD SVG 1.1//EN" "http://www.w3.org/Graphics/SVG/1.1/DTD/svg11.dtd">
<svg width="100%" height="100%" viewBox="0 0 251 251" version="1.1" xmlns="http://www.w3.org/2000/svg" xmlns:xlink="http://www.w3.org/1999/xlink" xml:space="preserve" xmlns:serif="http://www.serif.com/" style="fill-rule:evenodd;clip-rule:evenodd;stroke-linejoin:round;stroke-miterlimit:1.41421;">
    <rect id="Artboard1" x="0" y="0" width="250.02" height="250.02" style="fill:none;"/>
    <clipPath id="_clip1">
        <rect id="Artboard11" serif:id="Artboard1" x="0" y="0" width="250.02" height="250.02"/>
    </clipPath>
    <g clip-path="url(#_clip1)">
        <g transform="matrix(0.339262,0,0,0.339262,-14.9241,20.0885)">
            <path d="M610.15,340C592.959,340.022 575.997,343.955 560.55,351.5C555.45,341.4 550.35,332.4 549.45,325.8C548.45,318.1 547.25,313.4 548.45,304.2C549.65,295 555.05,281.9 554.95,280.9C554.85,279.9 553.75,275.2 542.75,275.1C531.75,275 522.25,277.2 521.15,280.1C519.237,285.419 517.7,290.866 516.55,296.4C514.65,306.4 494.55,342.1 483.05,360.8C479.35,353.5 476.15,347.1 475.45,342C474.45,334.3 473.25,329.6 474.45,320.4C475.65,311.2 481.05,298.1 480.95,297.1C480.85,296.1 479.75,291.4 468.75,291.3C457.75,291.2 448.25,293.4 447.15,296.3C446.05,299.2 444.85,306 442.55,312.6C440.25,319.2 413.55,378.8 406.55,394.2C402.95,402.1 399.85,408.4 397.65,412.7C395.45,417 397.55,413 397.25,413.5C395.35,417.2 394.25,419.2 394.25,419.2L394.25,419.3C392.75,422 391.15,424.5 390.35,424.5C389.75,424.5 388.65,417.3 390.55,407.5C394.55,386.8 404.05,354.6 403.95,353.5C403.95,352.9 405.75,347.3 397.75,344.4C389.95,341.5 387.15,346.3 386.45,346.3C385.75,346.3 385.25,348 385.25,348C385.25,348 393.95,311.8 368.65,311.8C352.85,311.8 331.05,329.1 320.25,344.7C313.45,348.4 298.95,356.3 283.45,364.8C277.55,368.1 271.45,371.4 265.75,374.5C265.35,374.1 264.95,373.6 264.55,373.2C233.95,340.5 177.35,317.4 179.75,273.5C180.65,257.5 186.15,215.5 288.45,164.5C372.65,123 439.65,134.5 451.25,160C467.85,196.4 415.35,264 328.35,273.8C295.15,277.5 277.75,264.7 273.35,259.9C268.75,254.9 268.05,254.6 266.35,255.6C263.55,257.1 265.35,261.6 266.35,264.2C268.95,271 279.65,283 297.75,288.9C313.75,294.1 352.65,297 399.75,278.8C452.45,258.4 493.65,201.7 481.55,154.2C469.45,106 389.45,90.1 313.75,117C268.75,133 219.95,158.2 184.85,191C143.15,230 136.55,263.9 139.25,278.1C148.95,328.5 218.45,361.3 246.25,385.6C244.85,386.4 243.55,387.1 242.45,387.7C228.55,394.6 175.55,422.3 162.35,451.6C147.35,484.8 164.75,508.6 176.25,511.8C211.95,521.7 248.65,503.9 268.35,474.5C288.05,445.1 285.65,406.9 276.55,389.4C276.452,389.178 276.317,388.975 276.15,388.8C279.75,386.7 283.45,384.5 287.05,382.4C294.15,378.2 301.15,374.3 307.15,371.1C303.75,380.4 301.25,391.5 300.05,407.5C298.55,426.3 306.25,450.7 316.35,460.3C320.85,464.5 326.15,464.6 329.55,464.6C341.35,464.6 346.65,454.8 352.55,443.2C359.75,429 366.25,412.5 366.25,412.5C366.25,412.5 358.15,457.1 380.15,457.1C388.15,457.1 396.25,446.7 399.85,441.4L399.85,441.5C399.85,441.5 400.05,441.2 400.45,440.5L401.75,438.4L401.75,438.2C404.95,432.6 412.15,419.9 422.85,398.8C436.65,371.6 449.95,337.6 449.95,337.6C451.233,345.074 453.003,352.457 455.25,359.7C457.65,367.8 462.65,376.7 466.65,385.3C463.45,389.8 461.45,392.3 461.45,392.3L461.55,392.4C458.95,395.8 456.15,399.5 453.05,403.1C442.15,416.1 429.15,431 427.35,435.3C425.25,440.4 425.75,444.1 429.75,447.1C432.65,449.3 437.85,449.6 443.15,449.3C450.061,448.908 456.857,447.353 463.25,444.7C469.428,442.523 475.256,439.457 480.55,435.6C491.25,427.7 497.75,416.4 497.15,401.5C496.85,393.3 494.15,385.1 490.85,377.4C491.85,376 492.75,374.6 493.75,373.2C504.869,356.606 514.89,339.302 523.75,321.4C525.033,328.874 526.803,336.257 529.05,343.5C531.05,350.5 535.15,358.1 538.75,365.5C522.85,378.4 513.05,393.4 509.55,403.2C503.25,421.4 508.15,429.6 517.45,431.5C521.65,432.4 527.65,430.4 532.05,428.5C538.677,426.323 544.92,423.117 550.55,419C561.25,411.1 571.55,400.1 570.95,385.2C570.504,378.329 568.951,371.575 566.35,365.2C579.85,359.6 597.25,356.5 619.45,359.1C667.05,364.7 676.45,394.4 674.65,406.9C672.85,419.4 662.85,426.2 659.55,428.3C656.25,430.4 655.15,431.1 655.45,432.6C655.85,434.8 657.45,434.7 660.25,434.3C664.15,433.6 685.25,424.2 686.15,401.2C687.65,371.8 659.65,339.7 610.15,340ZM243,463.8C227.2,481 205.2,487.5 195.7,482C185.5,476.1 189.5,450.7 208.9,432.5C220.7,421.4 235.9,411.1 246,404.8C248.3,403.4 251.7,401.4 255.8,398.9C256.5,398.5 256.9,398.3 256.9,398.3L259.3,396.8C266.35,422.8 259.55,445.7 243,463.8ZM358,385.6C352.5,399 341,433.3 334,431.4C328,429.8 324.3,403.8 332.8,378.1C337.1,365.2 346.2,349.8 351.5,343.8C360.1,334.2 369.6,331 371.9,334.9C374.75,340 361.35,377.2 358,385.6ZM452.9,431C450.6,432.2 448.4,433 447.4,432.4C446.7,432 448.4,430.4 448.4,430.4C448.4,430.4 460.3,417.6 465,411.8C467.7,408.4 470.9,404.4 474.3,399.9L474.3,401.2C474.3,416.5 459.5,426.8 452.9,431ZM526.1,414.3C524.4,413.1 524.7,409.1 530.4,396.6C532.6,391.7 537.8,383.5 546.7,375.6C547.739,378.557 548.28,381.666 548.3,384.8C548.2,404.1 534.4,411.3 526.1,414.3Z" style="fill:rgb(205,103,153);fill-rule:nonzero;"/>
        </g>
    </g>
</svg>
