<?xml version="1.0" encoding="UTF-8" standalone="no"?>
<!DOCTYPE svg PUBLIC "-//W3C//DTD SVG 1.1//EN" "http://www.w3.org/Graphics/SVG/1.1/DTD/svg11.dtd">
<svg width="100%" height="100%" viewBox="0 0 251 251" version="1.1" xmlns="http://www.w3.org/2000/svg" xmlns:xlink="http://www.w3.org/1999/xlink" xml:space="preserve" xmlns:serif="http://www.serif.com/" style="fill-rule:evenodd;clip-rule:evenodd;stroke-linejoin:round;stroke-miterlimit:1.41421;">
    <rect id="Artboard1" x="0" y="0" width="250.02" height="250.02" style="fill:none;"/>
    <clipPath id="_clip1">
        <rect id="Artboard11" serif:id="Artboard1" x="0" y="0" width="250.02" height="250.02"/>
    </clipPath>
    <g clip-path="url(#_clip1)">
        <g id="logo-mark" transform="matrix(4.90717,0,0,4.91184,33.5163,52.1754)">
            <path d="M0,23.481L6.6,23.481L4.555,29.657L0,29.657L0,23.481ZM0,11.741L10.488,11.741L8.443,17.916L0,17.916L0,11.741ZM0,0L14.376,0L12.331,6.176L0,6.176L0,0ZM20.881,0L37.29,0L37.29,6.176L18.836,6.176L20.881,0ZM14.948,17.916L16.993,11.741L37.29,11.741L37.29,17.916L14.948,17.916ZM13.105,23.481L37.29,23.481L37.29,29.657L11.061,29.657L13.105,23.481Z" style="fill:rgb(253,87,80);"/>
        </g>
    </g>
</svg>
