<?xml version="1.0" encoding="UTF-8" standalone="no"?>
<!DOCTYPE svg PUBLIC "-//W3C//DTD SVG 1.1//EN" "http://www.w3.org/Graphics/SVG/1.1/DTD/svg11.dtd">
<svg width="100%" height="100%" viewBox="0 0 47 47" version="1.1" xmlns="http://www.w3.org/2000/svg" xmlns:xlink="http://www.w3.org/1999/xlink" xml:space="preserve" xmlns:serif="http://www.serif.com/" style="fill-rule:evenodd;clip-rule:evenodd;stroke-linejoin:round;stroke-miterlimit:1.41421;">
    <g id="Artboard2" transform="matrix(0.612837,0,0,0.612837,65.8956,-3.64141)">
        <rect x="-107.526" y="5.942" width="76.039" height="76.039" style="fill:none;"/>
        <g transform="matrix(0.423174,0.423174,-0.423174,0.423174,308.769,-999.918)">
            <path d="M772.538,1694.25L800.346,1694.25L800.346,1666.44" style="fill:none;"/>
        </g>
        <g transform="matrix(3.43218,0,0,3.36313,-5444.06,-2760.82)">
            <rect x="1558.3" y="826.315" width="5.682" height="5.682" style="fill:rgb(33,31,57);"/>
        </g>
        <g transform="matrix(3.43218,0,0,3.36313,-5411.22,-2760.82)">
            <rect x="1558.3" y="826.315" width="5.682" height="5.682" style="fill:rgb(33,31,57);"/>
        </g>
        <g transform="matrix(3.43218,0,0,3.36313,-5444.06,-2728.37)">
            <rect x="1558.3" y="826.315" width="5.682" height="5.682" style="fill:rgb(33,31,57);"/>
        </g>
        <g transform="matrix(3.43218,0,0,3.36313,-5411.22,-2728.37)">
            <rect x="1558.3" y="826.315" width="5.682" height="5.682" style="fill:rgb(33,31,57);"/>
        </g>
    </g>
</svg>
