<?xml version="1.0" encoding="utf-8"?>
<!-- Generator: Adobe Illustrator 17.1.0, SVG Export Plug-In . SVG Version: 6.00 Build 0)  -->
<!DOCTYPE svg PUBLIC "-//W3C//DTD SVG 1.1//EN" "http://www.w3.org/Graphics/SVG/1.1/DTD/svg11.dtd">
<svg version="1.1" id="Layer_1" xmlns="http://www.w3.org/2000/svg" xmlns:xlink="http://www.w3.org/1999/xlink" x="0px" y="0px"
	 viewBox="0 0 180 180" enable-background="new 0 0 180 180" xml:space="preserve">
<path fill="#BE1E2D" d="M108.013,163.378c0-0.416-1.914-0.753-4.276-0.753H82.359c-2.361,0-4.276,0.337-4.276,0.753v14.053
	c0,0.416,1.914,0.753,4.276,0.753h21.378c2.361,0,4.276-0.337,4.276-0.753V163.378z"/>
<g>
	<path fill="#BE1E2D" d="M103.737,164.9c-5.879,0-15.499,0-21.378,0h-13.96c-5.879,0-8.284-4.166-5.345-9.257l6.98-12.09
		c2.939-5.091,7.75-13.423,10.689-18.514l6.98-12.09c2.939-5.091,7.75-5.091,10.689,0l6.98,12.09
		c2.939,5.091,7.75,13.423,10.689,18.514l6.98,12.09c2.939,5.091,0.534,9.257-5.345,9.257H103.737z"/>
</g>
<path fill="#BE1E2D" d="M36.828,55.066c0,0,2.164-41.806,39.388-28.062c0,0,9.736-35.395,43.524-23.711
	c0,0,25.198,9.966,23.48,35.737c0,0,29.78-0.573,29.78,26.916c0,0-2.863,25.771-21.189,25.771H23.529
	c0,0-18.326-5.154-16.608-20.617S23.784,50.484,36.828,55.066z"/>
</svg>
