<?xml version="1.0" encoding="utf-8"?>
<!-- Generator: Adobe Illustrator 17.1.0, SVG Export Plug-In . SVG Version: 6.00 Build 0)  -->
<!DOCTYPE svg PUBLIC "-//W3C//DTD SVG 1.1//EN" "http://www.w3.org/Graphics/SVG/1.1/DTD/svg11.dtd">
<svg version="1.1" id="Layer_1" xmlns="http://www.w3.org/2000/svg" xmlns:xlink="http://www.w3.org/1999/xlink" x="0px" y="0px"
	 viewBox="0 0 180 180" enable-background="new 0 0 180 180" xml:space="preserve">
<g>
	<polygon fill="#BE1E2D" points="59.103,48.982 59.103,38.932 38.445,38.932 38.445,18.274 28.395,18.274 28.395,38.932 
		7.738,38.932 7.738,48.982 28.395,48.982 28.395,69.639 38.445,69.639 38.445,48.982 	"/>
	<rect x="121.635" y="38.932" fill="#BE1E2D" width="51.365" height="10.05"/>
	<path fill="#BE1E2D" d="M112.733,87.733c-8.559-18.914-20.747-50.851-24.598-86.209c-1.967,18.065-6.119,35.212-10.844,50.214
		c-0.117,0.323-0.243,0.717-0.374,1.144c-1.382,4.329-2.803,8.466-4.237,12.39c-7.2,18.171-18.826,37.878-22.377,43.753
		c-0.366,0.542-0.679,1.121-1.022,1.679c-0.004,0.007-0.018,0.031-0.022,0.036l0,0c-4.177,6.816-6.627,14.804-6.627,23.384
		c0,24.784,20.091,44.875,44.875,44.875s44.875-20.091,44.875-44.875c0-9.393-2.896-18.104-7.829-25.311
		C122.41,105.263,117.702,97.281,112.733,87.733z"/>
</g>
</svg>
