<?xml version="1.0" encoding="utf-8"?>
<!-- Generator: Adobe Illustrator 17.1.0, SVG Export Plug-In . SVG Version: 6.00 Build 0)  -->
<!DOCTYPE svg PUBLIC "-//W3C//DTD SVG 1.1//EN" "http://www.w3.org/Graphics/SVG/1.1/DTD/svg11.dtd">
<svg version="1.1" id="Layer_1" xmlns="http://www.w3.org/2000/svg" xmlns:xlink="http://www.w3.org/1999/xlink" x="0px" y="0px"
	 viewBox="0 0 180 180" enable-background="new 0 0 180 180" xml:space="preserve">
<path fill="#BE1E2D" d="M96.192,106.178V67.313c0-3.109-2.52-5.629-5.629-5.629c-3.109,0-5.629,2.52-5.629,5.629v39.019
	c-12.275,2.732-21.459,13.669-21.459,26.767c0,15.155,12.285,27.44,27.44,27.44s27.44-12.285,27.44-27.44
	C118.355,119.75,108.82,108.639,96.192,106.178z"/>
<path fill="#BE1E2D" d="M112.726,90.469V25.613C112.726,12.02,102.567,1,90.036,1C77.504,1,67.345,12.02,67.345,25.613v65.635
	c0,0.078,0.01,0.154,0.011,0.232c-13.487,8.163-22.526,23.113-22.526,40.212c0,25.841,20.633,46.789,46.085,46.789
	S137,157.532,137,131.691C137,113.863,127.176,98.367,112.726,90.469z M90.563,168.344c-20.463,0-37.052-16.842-37.052-37.617
	c0-15.567,9.315-28.924,22.594-34.644V69.542v-7.858v-34.98c0-8.872,6.631-16.064,14.81-16.064s14.81,7.192,14.81,16.064v40.609
	v2.229v26.885c12.896,5.886,21.89,19.015,21.89,34.3C127.615,151.503,111.026,168.344,90.563,168.344z"/>
</svg>
