<?xml version="1.0" encoding="utf-8"?>
<!-- Generator: Adobe Illustrator 17.1.0, SVG Export Plug-In . SVG Version: 6.00 Build 0)  -->
<!DOCTYPE svg PUBLIC "-//W3C//DTD SVG 1.1//EN" "http://www.w3.org/Graphics/SVG/1.1/DTD/svg11.dtd">
<svg version="1.1" id="Layer_1" xmlns="http://www.w3.org/2000/svg" xmlns:xlink="http://www.w3.org/1999/xlink" x="0px" y="0px"
	 viewBox="0 0 180 180" enable-background="new 0 0 180 180" xml:space="preserve">
<g>
	<path fill="#BE1E2D" d="M7.018,70.464h86.361c0.463,0,0.907-0.077,1.338-0.193c10.402-1.336,18.447-10.204,18.447-20.97
		c0-11.688-9.475-21.163-21.163-21.163s-21.163,9.475-21.163,21.163c0,2.863,0.575,5.59,1.606,8.08H7.018
		c-3.194,0-5.783,2.929-5.783,6.541C1.235,67.535,3.824,70.464,7.018,70.464z"/>
	<path fill="#BE1E2D" d="M156.837,55.073c-11.688,0-21.163,9.475-21.163,21.163c0,2.863,0.575,5.59,1.606,8.08h-0.035H93.379H67.237
		H50.883H7.018c-3.194,0-5.783,2.929-5.783,6.541c0,3.613,2.589,6.541,5.783,6.541h43.865h16.353h26.143h43.865h16.353
		c0.351,0,0.691-0.049,1.025-0.117c0.728,0.076,1.466,0.117,2.214,0.117c11.688,0,21.163-9.475,21.163-21.163
		S168.525,55.073,156.837,55.073z"/>
	<path fill="#BE1E2D" d="M118.6,111.012c-0.555-0.201-1.135-0.338-1.749-0.338H93.379H30.49H7.018c-3.194,0-5.783,2.929-5.783,6.541
		s2.589,6.541,5.783,6.541H30.49h62.889h2.002c-1.03,2.491-1.606,5.218-1.606,8.08c0,11.688,9.475,21.163,21.163,21.163
		s21.163-9.475,21.163-21.163C136.101,121.4,128.54,112.749,118.6,111.012z"/>
</g>
</svg>
