<?xml version="1.0" encoding="utf-8"?>
<!-- Generator: Adobe Illustrator 17.1.0, SVG Export Plug-In . SVG Version: 6.00 Build 0)  -->
<!DOCTYPE svg PUBLIC "-//W3C//DTD SVG 1.1//EN" "http://www.w3.org/Graphics/SVG/1.1/DTD/svg11.dtd">
<svg version="1.1" id="Layer_1" xmlns="http://www.w3.org/2000/svg" xmlns:xlink="http://www.w3.org/1999/xlink" x="0px" y="0px"
	 viewBox="0 0 200 50" enable-background="new 0 0 200 50" xml:space="preserve">
<g>
	<path d="M24.252,32.2l-2.48-3.154c-0.063-0.08-0.177-0.091-0.259-0.028l-0.428,0.337c-0.082,0.064-0.097,0.178-0.035,0.259
		l2.48,3.154c0.06,0.077,0.177,0.09,0.259,0.028l0.428-0.337C24.299,32.395,24.314,32.277,24.252,32.2z"/>
	<path d="M26.25,29.046c-0.063-0.08-0.177-0.091-0.26-0.028l-0.429,0.337c-0.081,0.064-0.096,0.178-0.033,0.259l2.477,3.154
		c0.063,0.077,0.178,0.09,0.259,0.028l0.429-0.337c0.082-0.064,0.097-0.181,0.035-0.259L26.25,29.046z"/>
	<path d="M30.871,29.019l-0.428,0.337c-0.081,0.064-0.096,0.178-0.034,0.259l2.478,3.154c0.063,0.077,0.178,0.09,0.26,0.028
		l0.429-0.337c0.081-0.064,0.097-0.181,0.033-0.259l-2.478-3.154C31.069,28.967,30.953,28.955,30.871,29.019z"/>
	<polygon points="64.915,32.183 62.499,26.357 60.096,32.183 57.807,26.954 56.307,26.954 60.113,35.231 62.499,29.468 
		64.883,35.231 68.718,26.954 67.221,26.954 	"/>
	<path d="M74.726,31.263c0,1.296-0.147,2.423-1.749,2.423c-1.592,0-1.739-1.127-1.739-2.423v-4.308h-1.32v4.458
		c0,2.056,0.773,3.488,3.058,3.488c2.292,0,3.065-1.432,3.065-3.488v-4.458h-1.316V31.263z"/>
	<path d="M82.002,26.736c-0.956,0-1.663,0.416-2.21,1.153h-0.03v-0.935h-1.314v7.728h1.314v-3.661c0-1.389,0.112-3.063,1.928-3.063
		c1.529,0,1.628,1.123,1.628,2.364v4.36h1.316v-4.583C84.634,28.286,84.142,26.736,82.002,26.736z"/>
	<path d="M92.881,28.059h-0.036c-0.628-0.826-1.61-1.323-2.646-1.323c-2.324,0-3.722,1.891-3.722,4.1
		c0,2.14,1.431,4.064,3.701,4.064c1.056,0,2.021-0.443,2.666-1.279h0.036v1.062h1.316V21.113h-1.316V28.059z M90.36,33.685
		c-1.646,0-2.536-1.432-2.536-2.95c0-1.445,0.988-2.777,2.52-2.777c1.631,0,2.602,1.248,2.602,2.796
		C92.947,32.315,92.056,33.685,90.36,33.685z"/>
	<path d="M99.696,26.736c-2.427,0-3.759,1.891-3.759,4.183c0,2.223,1.483,3.981,3.787,3.981c1.576,0,2.827-0.79,3.568-2.169
		l-1.116-0.643c-0.511,0.919-1.235,1.598-2.351,1.598c-1.5,0-2.521-1.152-2.535-2.584h6.074
		C103.49,28.797,102.177,26.736,99.696,26.736z M97.357,29.983c0.162-1.123,1.213-2.026,2.353-2.026
		c1.151,0,2.089,0.902,2.271,2.026H97.357z"/>
	<path d="M106.457,27.795h-0.037v-0.84h-1.313v7.728h1.313v-3.862c0-1.005,0.068-2.862,1.512-2.862c0.345,0,0.531,0.169,0.795,0.345
		l0.626-1.202c-0.379-0.211-0.741-0.364-1.187-0.364C107.31,26.736,106.914,27.187,106.457,27.795z"/>
	<path d="M116.346,28.059h-0.034c-0.626-0.843-1.566-1.323-2.632-1.323c-2.294,0-3.735,1.945-3.735,4.116
		c0,2.155,1.427,4.048,3.684,4.048c1.038,0,2.057-0.477,2.683-1.279h0.034v0.914c0,1.746-0.446,3.245-2.487,3.245
		c-1.414,0-2.449-0.903-2.473-2.334h-1.306c0.044,2.189,1.641,3.555,3.8,3.555c1.147,0,2.27-0.449,2.987-1.366
		c0.792-1.018,0.792-2.088,0.792-3.326v-7.353h-1.313V28.059z M113.826,33.685c-1.641,0-2.534-1.432-2.534-2.95
		c0-1.445,0.992-2.777,2.521-2.777c1.624,0,2.598,1.248,2.598,2.796C116.41,32.315,115.52,33.685,113.826,33.685z"/>
	<path d="M121.508,27.795h-0.03v-0.84h-1.316v7.728h1.316v-3.862c0-1.005,0.064-2.862,1.515-2.862c0.346,0,0.525,0.169,0.792,0.345
		l0.625-1.202c-0.382-0.211-0.744-0.364-1.187-0.364C122.371,26.736,121.969,27.187,121.508,27.795z"/>
	<path d="M129.114,26.736c-2.266,0-4.063,1.83-4.063,4.1c0,2.274,1.81,4.064,4.063,4.064c2.253,0,4.064-1.79,4.064-4.064
		C133.178,28.566,131.384,26.736,129.114,26.736z M129.114,33.685c-1.627,0-2.747-1.289-2.747-2.866c0-1.563,1.12-2.862,2.747-2.862
		c1.631,0,2.751,1.299,2.751,2.862C131.865,32.396,130.745,33.685,129.114,33.685z"/>
	<path d="M139.694,31.263c0,1.296-0.145,2.423-1.743,2.423c-1.593,0-1.748-1.127-1.748-2.423v-4.308h-1.31v4.458
		c0,2.056,0.772,3.488,3.058,3.488c2.29,0,3.062-1.432,3.062-3.488v-4.458h-1.32V31.263z"/>
	<path d="M146.973,26.736c-0.957,0-1.668,0.416-2.206,1.153h-0.035v-0.935h-1.32v7.728h1.32v-3.661c0-1.389,0.112-3.063,1.925-3.063
		c1.53,0,1.631,1.123,1.631,2.364v4.36h1.31v-4.583C149.598,28.286,149.11,26.736,146.973,26.736z"/>
	<path d="M157.85,28.059h-0.037c-0.62-0.826-1.614-1.323-2.65-1.323c-2.321,0-3.714,1.891-3.714,4.1c0,2.14,1.432,4.064,3.704,4.064
		c1.046,0,2.019-0.443,2.66-1.279h0.037v1.062h1.315V21.113h-1.315V28.059z M155.329,33.685c-1.643,0-2.534-1.432-2.534-2.95
		c0-1.445,0.992-2.777,2.521-2.777c1.627,0,2.595,1.248,2.595,2.796C157.911,32.315,157.02,33.685,155.329,33.685z"/>
	<path d="M162.881,33.063c-0.512,0-0.921,0.405-0.921,0.905c0,0.505,0.409,0.932,0.921,0.932c0.51,0,0.924-0.426,0.924-0.932
		C163.805,33.468,163.391,33.063,162.881,33.063z"/>
	<path d="M169.911,33.685c-1.614,0-2.669-1.333-2.669-2.866c0-1.548,1.14-2.862,2.737-2.862c1.032,0,1.79,0.524,2.398,1.299h0.03
		V27.51c-0.69-0.494-1.542-0.774-2.382-0.774c-2.274,0-4.134,1.779-4.134,4.083c0,2.341,1.776,4.08,4.113,4.08
		c0.924,0,1.698-0.277,2.454-0.79v-1.758h-0.03C171.785,33.194,171.011,33.685,169.911,33.685z"/>
	<path d="M177.875,26.736c-2.271,0-4.064,1.83-4.064,4.1c0,2.274,1.806,4.064,4.064,4.064s4.066-1.79,4.066-4.064
		C181.942,28.566,180.145,26.736,177.875,26.736z M177.875,33.685c-1.635,0-2.747-1.289-2.747-2.866
		c0-1.563,1.112-2.862,2.747-2.862c1.627,0,2.747,1.299,2.747,2.862C180.622,32.396,179.502,33.685,177.875,33.685z"/>
	<path d="M191.415,26.736c-0.934,0-1.853,0.425-2.318,1.286c-0.412-0.806-1.234-1.286-2.141-1.286c-0.788,0-1.445,0.416-1.858,1.058
		h-0.037v-0.84h-1.308v7.728h1.308v-3.992c0-1.169,0.163-2.732,1.712-2.732c1.273,0,1.383,1.381,1.383,2.341v4.383h1.317V30.59
		c0-1.165,0.166-2.632,1.682-2.632c1.35,0,1.414,1.238,1.414,2.239v4.485h1.32v-4.699C193.888,28.353,193.394,26.736,191.415,26.736
		z"/>
	<path d="M18.781,27.938c-1.148,2.062-1.805,4.427-1.805,6.941h0.926c0-2.535,0.715-4.909,1.953-6.941H18.781z"/>
	<path d="M31.649,21.346c7.574,0,13.737,6.079,13.737,13.554h0.926c0-7.986-6.577-14.48-14.663-14.48
		c-1.068,0-2.109,0.116-3.113,0.331c0.472,0.243,1.149,0.475,2.122,0.635C30.986,21.362,31.316,21.346,31.649,21.346z"/>
	<path d="M17.989,27.938l-4.172-0.005c-0.869,2.151-1.345,4.5-1.345,6.956h3.786C16.261,32.381,16.889,30.017,17.989,27.938z"/>
	<path d="M31.649,16.016c-2.423,0-4.741,0.443-6.875,1.25l3.034,2.974c1.228-0.31,2.515-0.475,3.841-0.475
		c8.475,0,15.349,6.793,15.388,15.124h3.79C50.827,24.467,42.24,16.016,31.649,16.016z"/>
	<path d="M37.325,26.692c0-0.589-0.113-0.728-1.674-1.354c-1.514-0.606-1.781-1.029-2.123-1.728c-0.048-0.098-0.1-0.203-0.16-0.317
		c-0.416-0.768-0.842-1.205-1.904-1.311c-0.914-0.093-1.638-0.245-2.215-0.426l0,0c-0.221-0.068-0.419-0.143-0.598-0.218
		c-0.014-0.006-0.029-0.012-0.043-0.018c-0.049-0.021-0.094-0.043-0.141-0.064c-0.017-0.008-0.035-0.017-0.051-0.024
		c-0.042-0.021-0.085-0.041-0.125-0.062c-0.017-0.01-0.032-0.019-0.048-0.026c-0.04-0.021-0.08-0.043-0.118-0.064
		c-0.007-0.003-0.011-0.008-0.018-0.011c-0.088-0.05-0.168-0.102-0.244-0.154c-0.154-0.107-0.28-0.212-0.381-0.311l-0.254-0.248
		l-2.952-2.893h-0.001l-5.302-5.197c-0.508-0.5-1.469-0.886-2.109-0.827c-0.617,0.055-1.447,0.615-1.82,1.224
		c-0.082,0.18-0.84,1.823-1.705,2.953c-0.926,1.214-4.508,2.305-4.66,2.351c-0.658,0.247-1.428,1.028-1.674,1.704
		c-0.048,0.19-0.529,2.069-1.386,3.222c-1.03,1.385-2.689,2.462-3.636,2.668c-0.763,0.166-1.282,0.589-1.323,1.078
		c-0.017,0.196,0.079,0.349,0.165,0.44c0.203,0.222,0.557,0.355,0.946,0.356l17.668,0.017h0.725l0,0l15.91,0.017
		C36.451,27.469,37.325,27.391,37.325,26.692z"/>
	<path d="M197.373,21.389c-1.141,0-2.047,0.907-2.047,2.041c0,1.134,0.906,2.041,2.047,2.041c1.142,0,2.046-0.907,2.046-2.041
		C199.419,22.296,198.516,21.389,197.373,21.389z M197.373,25.158c-0.931,0-1.73-0.763-1.73-1.728c0-0.964,0.799-1.728,1.73-1.728
		c0.939,0,1.739,0.764,1.739,1.728C199.112,24.395,198.312,25.158,197.373,25.158z"/>
	<path d="M198.377,22.891c0-0.481-0.39-0.586-0.793-0.586h-0.974v2.232h0.315v-1.033h0.375l0.669,1.033h0.379l-0.683-1.033
		C198.069,23.496,198.377,23.334,198.377,22.891z M197.301,23.191h-0.375v-0.575h0.592c0.246,0,0.548,0.044,0.548,0.27
		C198.066,23.241,197.578,23.191,197.301,23.191z"/>
</g>
</svg>
