<?xml version="1.0" encoding="utf-8"?>
<!-- Generator: Adobe Illustrator 18.0.0, SVG Export Plug-In . SVG Version: 6.00 Build 0)  -->
<!DOCTYPE svg PUBLIC "-//W3C//DTD SVG 1.1//EN" "http://www.w3.org/Graphics/SVG/1.1/DTD/svg11.dtd">
<svg version="1.1" xmlns="http://www.w3.org/2000/svg" xmlns:xlink="http://www.w3.org/1999/xlink" x="0px" y="0px"
	 viewBox="0 0 612 792" enable-background="new 0 0 612 792" xml:space="preserve">
<g id="Layer_1" display="none">
	<rect x="0" display="inline" opacity="0.1" width="18" height="791.9"/>
	<rect x="0.1" y="774.1" display="inline" opacity="0.1" width="610.4" height="18"/>
	<rect x="593.9" y="0.2" display="inline" opacity="0.1" width="18" height="791.9"/>
	<rect x="1.5" display="inline" opacity="0.1" width="610.4" height="18"/>
	
		<line display="inline" fill="none" stroke="#E6E7E8" stroke-width="0.5" stroke-miterlimit="10" x1="409.2" y1="18" x2="409.2" y2="774.1"/>
</g>
<g id="Layer_2">
	<rect y="0" fill="#FFFFFF" width="612" height="792"/>
	<polygon fill="none" stroke="#414042" stroke-width="0.5" stroke-miterlimit="10" points="18.3,91 19.7,89.3 23.6,92.7 29.8,85.4 
		31.4,86.8 23.9,95.7 	"/>
	
		<text transform="matrix(1 0 0 1 35.6328 95.7149)" fill="#414042" stroke="#FFFFFF" stroke-miterlimit="10" font-family="'Multicolore'" font-size="14">objective</text>
	<rect x="18" y="116" fill="none" width="381" height="37"/>
	<text transform="matrix(1 0 0 1 18 123.6001)"><tspan x="0" y="0" font-family="'OpenSans-Light'" font-size="10">To obtain an internship as a web developer where I can use my programming </tspan><tspan x="0" y="16" font-family="'OpenSans-Light'" font-size="10">and design skills to further the growth of the company</tspan></text>
	<text transform="matrix(1 0 0 1 18.3141 202)"><tspan x="0" y="0" font-family="'OpenSans-Bold'" font-size="10.95">B.S. in Interactive Digital Media with Computer Science Concentration</tspan><tspan x="0" y="16" font-family="'OpenSans-Italic'" font-size="10">Northwest Missouri State University, Maryville, MO</tspan><tspan x="0" y="32" font-family="'OpenSans-Light'" font-size="10">GPA : </tspan><tspan x="26.7" y="32" font-family="'OpenSansLight-Italic'" font-size="10">3.96 / 4.0    </tspan><tspan x="77.6" y="32" font-family="'OpenSans-Light'" font-size="10">|    Expected Graduation : </tspan><tspan x="196" y="32" font-family="'OpenSansLight-Italic'" font-size="10">May 2016</tspan></text>
	<g>
		<path fill="#414042" d="M251.1,34.2c-3.1-2.7-7.3-4.4-11.7-4.4c-9.9,0-17.9,8-17.9,17.9c0,9.9,8,17.9,17.9,17.9
			c9.9,0,17.9-8,17.9-17.9C257.3,42.3,254.9,37.5,251.1,34.2z M239.3,59.3c-6.1,0-11.1-5-11.1-11.1c0-6.1,5-11.1,11.1-11.1
			c3.5,0,6.5,1.6,8.6,4c1.6,1.9,2.5,4.4,2.5,7.1C250.5,54.3,245.5,59.3,239.3,59.3z"/>
		<path fill="#414042" d="M239.3,66.1c-10.1,0-18.3-8.2-18.3-18.3c0-10.1,8.2-18.3,18.3-18.3c4.4,0,8.7,1.6,12,4.5
			c4,3.5,6.3,8.5,6.3,13.9C257.7,57.8,249.5,66.1,239.3,66.1z M239.3,30.2c-9.7,0-17.5,7.9-17.5,17.5c0,9.7,7.9,17.5,17.5,17.5
			c9.7,0,17.5-7.9,17.5-17.5c0-5.1-2.2-9.9-6-13.2C247.6,31.7,243.6,30.2,239.3,30.2z M239.3,59.7c-6.4,0-11.5-5.2-11.5-11.5
			c0-6.4,5.2-11.5,11.5-11.5c3.5,0,6.7,1.5,8.9,4.2c1.7,2.1,2.6,4.7,2.6,7.3C250.9,54.6,245.7,59.7,239.3,59.7z M239.3,37.5
			c-5.9,0-10.7,4.8-10.7,10.7s4.8,10.7,10.7,10.7s10.7-4.8,10.7-10.7c0-2.5-0.9-4.9-2.4-6.8C245.6,38.9,242.5,37.5,239.3,37.5z"/>
	</g>
	<g>
		<path fill="#FFFFFF" d="M268.4,59.1C268.4,59.1,268.4,59.1,268.4,59.1c-6.1,0-11.1-5-11.1-11.1c0-6.1,5-11.1,11.1-11.1
			c3.5,0,6.5,1.6,8.6,4c1.5,1.9,2.5,4.2,2.5,6.8h6.8c0-0.1,0-0.1,0-0.2c0-5.4-2.4-10.3-6.2-13.5c-3.1-2.7-7.3-4.4-11.7-4.4
			c-9.9,0-17.9,8-17.9,17.9c0,9.9,8,17.9,17.9,17.9c0,0,0,0,0,0V59.1z"/>
		<path fill="#414042" d="M268.9,65.9h-0.4c-10.1,0-18.3-8.2-18.3-18.3c0-10.1,8.2-18.3,18.3-18.3c4.4,0,8.7,1.6,12,4.5
			c4,3.5,6.3,8.5,6.3,13.9c0,0,0,0.1,0,0.1l0,0.5h-7.6l0-0.4c-0.1-2.4-0.9-4.7-2.4-6.6c-2-2.5-5.1-3.9-8.3-3.9
			c-5.9,0-10.7,4.8-10.7,10.7s4.8,10.7,10.7,10.7h0.4L268.9,65.9z M268.4,30c-9.7,0-17.5,7.9-17.5,17.5c0,9.5,7.6,17.3,17.1,17.5
			v-5.5c-6.2-0.2-11.1-5.3-11.1-11.5c0-6.4,5.2-11.5,11.5-11.5c3.5,0,6.7,1.5,8.9,4.2c1.6,1.9,2.5,4.2,2.6,6.7h6
			c-0.1-5-2.3-9.7-6-13C276.7,31.5,272.7,30,268.4,30z"/>
	</g>
	<text transform="matrix(1 0 0 1 298.2684 42.4352)"><tspan x="0" y="0" fill="#414042" stroke="#FFFFFF" stroke-miterlimit="10" font-family="'Multicolore'" font-size="16">OWEN</tspan><tspan x="0" y="20.1" fill="#414042" stroke="#FFFFFF" stroke-miterlimit="10" font-family="'Multicolore'" font-size="16">rauckman</tspan></text>
	<polygon fill="#FFFFFF" stroke="#414042" stroke-width="0.5" stroke-miterlimit="10" points="19.6,167.9 16.8,166.4 24.3,162.9 
		31.6,166.4 30.7,167 31.2,171 29.7,171 29.8,167.5 29,168 28.4,168 28.4,169.5 20.2,169.5 20.2,167.9 	"/>
	
		<text transform="matrix(1 0 0 1 35.9406 172.2148)" fill="#414042" stroke="#FFFFFF" stroke-miterlimit="10" font-family="'Multicolore'" font-size="14">education</text>
	<line fill="none" stroke="#414042" stroke-width="0.5" stroke-miterlimit="10" x1="18" y1="106" x2="399" y2="106"/>
	<line fill="none" stroke="#414042" stroke-width="0.5" stroke-miterlimit="10" x1="18" y1="182.2" x2="399" y2="182.2"/>
	<path fill="#414042" d="M29.1,267.8h-7.5c-0.8,0-1.5-0.7-1.5-1.5v-9.4c0-0.8,0.7-1.5,1.5-1.5h7.5c0.8,0,1.5,0.7,1.5,1.5v9.4
		C30.7,267.2,30,267.8,29.1,267.8z M21.6,255.8c-0.6,0-1.1,0.5-1.1,1.1v9.4c0,0.6,0.5,1.1,1.1,1.1h7.5c0.6,0,1.1-0.5,1.1-1.1v-9.4
		c0-0.6-0.5-1.1-1.1-1.1H21.6z"/>
	<g>
		<path fill="#FFFFFF" d="M25.8,255.3c0,0.3-0.2,0.5-0.5,0.5c-0.3,0-0.5-0.2-0.5-0.5c0-0.3,0.2-0.5,0.5-0.5
			C25.6,254.8,25.8,255.1,25.8,255.3"/>
		<path fill="#414042" d="M25.3,256c-0.4,0-0.7-0.3-0.7-0.7s0.3-0.7,0.7-0.7c0.4,0,0.7,0.3,0.7,0.7S25.7,256,25.3,256z M25.3,255.1
			c-0.1,0-0.3,0.1-0.3,0.3s0.1,0.3,0.3,0.3c0.1,0,0.3-0.1,0.3-0.3S25.4,255.1,25.3,255.1z"/>
	</g>
	<g>
		<path fill="#FFFFFF" d="M26.9,254.8h-0.4c-0.2-0.5-0.6-0.9-1.2-0.9c-0.6,0-1,0.4-1.2,0.9h-0.4c-0.5,0-0.9,0.4-0.9,0.9v0.8
			c0,0.5,0.4,0.9,0.9,0.9h3.3c0.5,0,0.9-0.4,0.9-0.9v-0.8C27.8,255.2,27.4,254.8,26.9,254.8z M25.3,255.8c-0.3,0-0.5-0.2-0.5-0.5
			c0-0.3,0.2-0.5,0.5-0.5c0.3,0,0.5,0.2,0.5,0.5C25.8,255.6,25.6,255.8,25.3,255.8z"/>
		<path fill="#414042" d="M26.9,257.6h-3.3c-0.6,0-1.1-0.5-1.1-1.1v-0.8c0-0.6,0.5-1.1,1.1-1.1H24c0.2-0.5,0.8-0.9,1.3-0.9
			c0.6,0,1.1,0.3,1.3,0.9h0.3c0.6,0,1.1,0.5,1.1,1.1v0.8C28,257.1,27.5,257.6,26.9,257.6z M23.7,255.1c-0.4,0-0.7,0.3-0.7,0.7v0.8
			c0,0.4,0.3,0.7,0.7,0.7h3.3c0.4,0,0.7-0.3,0.7-0.7v-0.8c0-0.4-0.3-0.7-0.7-0.7h-0.6l0-0.2c-0.1-0.4-0.5-0.7-1-0.7
			c-0.5,0-0.9,0.3-1,0.7l0,0.2H23.7z M25.3,256c-0.4,0-0.7-0.3-0.7-0.7s0.3-0.7,0.7-0.7c0.4,0,0.7,0.3,0.7,0.7S25.7,256,25.3,256z
			 M25.3,255.1c-0.1,0-0.3,0.1-0.3,0.3s0.1,0.3,0.3,0.3c0.1,0,0.3-0.1,0.3-0.3S25.4,255.1,25.3,255.1z"/>
	</g>
	<rect x="21.6" y="260.5" fill="#414042" width="7.5" height="0.4"/>
	<rect x="21.6" y="262.7" fill="#414042" width="7.5" height="0.4"/>
	<rect x="21.6" y="264.9" fill="#414042" width="7.5" height="0.4"/>
	
		<text transform="matrix(1 0 0 1 36.9406 266.2148)" fill="#414042" stroke="#FFFFFF" stroke-miterlimit="10" font-family="'Multicolore'" font-size="14">experience</text>
	<line fill="none" stroke="#414042" stroke-width="0.5" stroke-miterlimit="10" x1="19" y1="276.2" x2="399" y2="276.2"/>
	
		<text transform="matrix(1 0 0 1 436.7995 95.7445)" fill="#414042" stroke="#FFFFFF" stroke-miterlimit="10" font-family="'Multicolore'" font-size="14">SKILLS</text>
	<line fill="none" stroke="#414042" stroke-width="0.5" stroke-miterlimit="10" x1="419.2" y1="106" x2="594" y2="106"/>
	<rect x="418.2" y="116" fill="none" width="175.8" height="293"/>
	<text transform="matrix(1 0 0 1 418.1671 125.1201)"><tspan x="0" y="0" font-family="'OpenSans-SemiboldItalic'" font-size="12">Technical</tspan><tspan x="0" y="20" font-family="'OpenSans-Light'" font-size="10">HTML</tspan><tspan x="0" y="40" font-family="'OpenSans-Light'" font-size="10">CSS</tspan><tspan x="0" y="60" font-family="'OpenSans-Light'" font-size="10">jQuery</tspan><tspan x="0" y="80" font-family="'OpenSans-Light'" font-size="10">Javascript</tspan><tspan x="0" y="100" font-family="'OpenSans-Light'" font-size="10">Responsive Web Design</tspan><tspan x="0" y="120" font-family="'OpenSans-Light'" font-size="10">Wordpress</tspan><tspan x="0" y="140" font-family="'OpenSans-Light'" font-size="10">Git</tspan><tspan x="0" y="160" font-family="'OpenSans-Light'" font-size="10">MySQL</tspan><tspan x="0" y="180" font-family="'OpenSans-Light'" font-size="10">PHP</tspan><tspan x="0" y="200" font-family="'OpenSans-Light'" font-size="10">SASS/SCSS</tspan><tspan x="0" y="220" font-family="'OpenSans-Light'" font-size="10">Java</tspan><tspan x="0" y="240" font-family="'OpenSans-Light'" font-size="10">Python</tspan><tspan x="0" y="260" font-family="'OpenSans-Light'" font-size="10">Google Analytics</tspan><tspan x="0" y="280" font-family="'OpenSans-Light'" font-size="10">Node.JS</tspan></text>
	<rect x="418.2" y="425" fill="none" width="175.8" height="154"/>
	<text transform="matrix(1 0 0 1 418.1671 434.1201)"><tspan x="0" y="0" font-family="'OpenSans-SemiboldItalic'" font-size="12">Creative</tspan><tspan x="0" y="20" font-family="'OpenSans-Light'" font-size="10">UI Design</tspan><tspan x="0" y="40" font-family="'OpenSans-Light'" font-size="10">Photoshop</tspan><tspan x="0" y="60" font-family="'OpenSans-Light'" font-size="10">Illustrator</tspan><tspan x="0" y="80" font-family="'OpenSans-Light'" font-size="10">InDesign</tspan><tspan x="0" y="100" font-family="'OpenSans-Light'" font-size="10">Company Branding</tspan><tspan x="0" y="120" font-family="'OpenSans-Light'" font-size="10">Icon Design</tspan><tspan x="0" y="140" font-family="'OpenSans-Light'" font-size="10">Wireframing</tspan></text>
	<text transform="matrix(1 0 0 1 16.823 296)"><tspan x="0" y="0" font-family="'OpenSans-Bold'" font-size="12">Garmin International</tspan><tspan x="0" y="15" font-family="'OpenSans-Italic'" font-size="12">User Experience Developer Intern  |  May 2014-Aug. 2014</tspan><tspan x="0" y="35" font-family="'OpenSans-Light'" font-size="10">Transferred projects to a new repository and applied Google Analytics updates</tspan><tspan x="0" y="55" font-family="'OpenSans-Light'" font-size="10">Collaborated with social media and design teams to create websites for ad campaigns</tspan><tspan x="0" y="75" font-family="'OpenSans-Light'" font-size="10">Made day-to-day updates to various product websites</tspan></text>
	<text transform="matrix(1 0 0 1 16.8226 401)"><tspan x="0" y="0" font-family="'OpenSans-Bold'" font-size="12">Northwest Missouri State University</tspan><tspan x="0" y="15" font-family="'OpenSans-Italic'" font-size="12">Teaching Assistant  |  Jan. 2014-Present</tspan><tspan x="0" y="35" font-family="'OpenSans-Light'" font-size="10">Assist students and professor through introductory computer programming class</tspan><tspan x="0" y="55" font-family="'OpenSans-Light'" font-size="10">Consistently grade exams, quizzes, and assignments</tspan><tspan x="0" y="75" font-family="'OpenSans-Light'" font-size="10">Host weekly tutoring sessions for students to recieve extra aid</tspan></text>
	<text transform="matrix(1 0 0 1 16.8225 506)"><tspan x="0" y="0" font-family="'OpenSans-Bold'" font-size="12">Freelance Design</tspan><tspan x="0" y="15" font-family="'OpenSans-Italic'" font-size="12">Web/Graphic Designer  |  Sept. 2011-Present</tspan><tspan x="0" y="35" font-family="'OpenSans-Light'" font-size="10">Design innovative websites and develop corporate branding for small businesses</tspan><tspan x="0" y="55" font-family="'OpenSans-Light'" font-size="10">Photograph and post-process sporting events, portraits, and artistic pictures</tspan><tspan x="0" y="75" font-family="'OpenSans-Light'" font-size="10">Generate an efficient workflow, meet deadlines, and communicate directly with clients</tspan></text>
	
		<text transform="matrix(1 0 0 1 35.6568 614.3528)" fill="#414042" stroke="#FFFFFF" stroke-miterlimit="10" font-family="'Multicolore'" font-size="14">eXtra Cirricular</text>
	<line fill="none" stroke="#414042" stroke-width="0.5" stroke-miterlimit="10" x1="17.7" y1="624.4" x2="397.7" y2="624.4"/>
	<path fill="#414042" d="M24.1,611.7c-3.3,0-6-2.7-6-6c0-3.3,2.7-6,6-6s6,2.7,6,6C30,609,27.4,611.7,24.1,611.7z M24.1,600.3
		c-3,0-5.4,2.4-5.4,5.4c0,3,2.4,5.4,5.4,5.4s5.4-2.4,5.4-5.4C29.5,602.7,27.1,600.3,24.1,600.3z"/>
	<polygon fill="#414042" points="22.3,617.1 21.3,615.1 18.9,615.7 21,610.8 21.5,611 19.8,614.9 21.6,614.5 22.2,615.8 23.9,611.4 
		24.4,611.6 	"/>
	<polygon fill="#414042" points="26.1,617.1 23.9,611.6 24.4,611.4 26.1,615.8 26.7,614.5 28.5,614.9 26.7,610.8 27.2,610.6 
		29.4,615.7 27,615.1 	"/>
	<path fill="#414042" d="M24.1,609.4c-2,0-3.7-1.7-3.7-3.7c0-2,1.7-3.7,3.7-3.7s3.7,1.7,3.7,3.7C27.8,607.8,26.1,609.4,24.1,609.4z
		 M24.1,602.5c-1.8,0-3.2,1.4-3.2,3.2c0,1.8,1.4,3.2,3.2,3.2c1.8,0,3.2-1.4,3.2-3.2C27.3,604,25.8,602.5,24.1,602.5z"/>
	<rect x="418.2" y="595" fill="none" width="175.8" height="136.3"/>
	<text transform="matrix(1 0 0 1 418.1671 604.1201)"><tspan x="0" y="0" font-family="'OpenSans-SemiboldItalic'" font-size="12">Intangibles</tspan><tspan x="0" y="20" font-family="'OpenSans-Light'" font-size="10">makes lots of puns</tspan><tspan x="0" y="40" font-family="'OpenSans-Light'" font-size="10">Made 362 consecutive free throws</tspan><tspan x="0" y="60" font-family="'OpenSans-Light'" font-size="10">App arranging expert</tspan><tspan x="0" y="80" font-family="'OpenSans-Light'" font-size="10">100 WPM typist</tspan><tspan x="0" y="100" font-family="'OpenSans-Light'" font-size="10">Occasionally freestyle raps</tspan><tspan x="0" y="120" font-family="'OpenSans-Light'" font-size="10">proofreads emails 3 times each</tspan></text>
	<g>
		<path fill="#414042" d="M430.4,97.4c-0.8,0-2.1-0.4-2.2-3.1l-5.9-5.9c-1.4,0-2.3-0.4-2.8-1.1c-0.6-0.8-0.3-1.7-0.3-1.8l0.1-0.4
			l0.2,0.4c0.5,0.8,1,1.2,1.4,1.2c0.4,0,0.8-0.4,0.8-0.4l0,0c0,0,0.4-0.3,0.4-0.8c0-0.5-0.4-0.9-1.2-1.4l-0.4-0.2l0.4-0.1
			c0,0,0.3-0.1,0.6-0.1c0.8,0,2.1,0.4,2.2,3.1l5.9,5.9c1.4,0,2.3,0.4,2.8,1.1c0.6,0.8,0.3,1.7,0.3,1.8l-0.1,0.4l-0.2-0.4
			c-0.5-0.8-1-1.2-1.4-1.2c-0.4,0-0.8,0.4-0.8,0.4l0,0c0,0-0.4,0.3-0.4,0.8c0,0.5,0.4,0.9,1.2,1.4l0.4,0.2l-0.4,0.1
			C431,97.4,430.7,97.4,430.4,97.4z M419.6,86.2c0,0.3,0.1,0.6,0.3,0.9c0.4,0.6,1.3,0.9,2.5,0.9l0.1,0l6.1,6.1l0,0.1
			c0,2.3,1,2.8,1.8,2.8c0,0,0,0,0,0c-0.6-0.4-0.9-0.9-0.9-1.4c0-0.6,0.4-1.1,0.5-1.1c0.1-0.1,0.5-0.5,1.1-0.5c0.5,0,1,0.3,1.5,0.9
			c0-0.3-0.1-0.6-0.3-0.9c-0.4-0.6-1.3-0.9-2.5-0.9l-0.1,0l-6.1-6.1l0-0.1c0-2.3-1-2.8-1.8-2.8c0,0,0,0,0,0c0.6,0.4,0.9,0.9,0.9,1.4
			c0,0.6-0.4,1.1-0.5,1.1c-0.1,0.1-0.5,0.5-1.1,0.5C420.6,87.2,420.1,86.9,419.6,86.2z"/>
		<path fill="#414042" d="M420.9,97.3c-0.2,0-0.5-0.1-0.6-0.3l-0.8-0.8c-0.2-0.2-0.3-0.4-0.3-0.6c0-0.2,0.1-0.5,0.3-0.6l4-4
			c0.3-0.3,0.9-0.3,1.3,0l0.8,0.8c0.2,0.2,0.3,0.4,0.3,0.6s-0.1,0.5-0.3,0.6l-4,4C421.3,97.2,421.1,97.3,420.9,97.3z M424.1,91.1
			c-0.1,0-0.2,0-0.3,0.1l-4,4c-0.1,0.1-0.1,0.2-0.1,0.3c0,0.1,0.1,0.2,0.1,0.3l0.8,0.8c0.2,0.2,0.5,0.2,0.7,0l4-4
			c0.1-0.1,0.1-0.2,0.1-0.3c0-0.1-0.1-0.2-0.1-0.3l-0.8-0.8C424.3,91.1,424.2,91.1,424.1,91.1z"/>
		<path fill="#414042" d="M427.2,90.2l-0.9-0.9l2.9-2.9c0-0.3,0.1-0.5,0.3-0.7l0.9-0.9c0.3-0.3,0.9-0.3,1.3,0
			c0.2,0.2,0.3,0.4,0.3,0.7c0,0.2-0.1,0.5-0.3,0.6l-0.9,0.9c-0.2,0.2-0.4,0.3-0.6,0.3c0,0,0,0,0,0L427.2,90.2z M426.9,89.3l0.3,0.3
			l2.7-2.7l0.1,0c0.2,0,0.3,0,0.4-0.1l0.9-0.9c0.1-0.1,0.1-0.2,0.1-0.3c0-0.1-0.1-0.2-0.1-0.3c-0.2-0.2-0.5-0.2-0.7,0l-0.9,0.9
			c-0.1,0.1-0.2,0.3-0.1,0.4l0,0.1L426.9,89.3z"/>
	</g>
	<rect x="181" y="634" fill="none" width="216.2" height="93"/>
	<text transform="matrix(1 0 0 1 180.9917 643.1201)"><tspan x="0" y="0" font-family="'OpenSans-Bold'" font-size="12">Awards</tspan><tspan x="0" y="20" font-family="'OpenSans-Light'" font-size="10">National Science Foundation STEM Scholar</tspan><tspan x="0" y="40" font-family="'OpenSans-Light'" font-size="10">Outstanding Interactive Digital Media Freshman</tspan><tspan x="0" y="60" font-family="'OpenSans-Light'" font-size="10">Presidential Honor Roll</tspan></text>
	<rect x="16.7" y="634" fill="none" width="156.3" height="93"/>
	<text transform="matrix(1 0 0 1 16.6917 643.1201)"><tspan x="0" y="0" font-family="'OpenSans-Bold'" font-size="12">Clubs</tspan><tspan x="0" y="20" font-family="'OpenSans-Light'" font-size="10">Yearbook Photographer</tspan><tspan x="0" y="40" font-family="'OpenSans-Light'" font-size="10">DigEm (Vice President)</tspan><tspan x="0" y="60" font-family="'OpenSans-Light'" font-size="10">iOS Storyboard Sessions</tspan><tspan x="0" y="80" font-family="'OpenSans-Light'" font-size="10">Knacktive Ad Agency</tspan></text>
	<text transform="matrix(1 0 0 1 116.7094 755.6667)"><tspan x="0" y="0" fill="#414042" stroke="#FFFFFF" stroke-width="0.5" stroke-miterlimit="10" font-family="'Multicolore'" font-size="10">owenrauckman.com    </tspan><tspan x="128.4" y="0" fill="#414042" stroke="#FFFFFF" stroke-width="0.5" stroke-miterlimit="10" font-family="'MyriadPro-Regular'" font-size="10">|    </tspan><tspan x="139.2" y="0" fill="#414042" stroke="#FFFFFF" stroke-width="0.5" stroke-miterlimit="10" font-family="'Multicolore'" font-size="10">owenrauckmaN</tspan><tspan x="230" y="0" fill="#414042" font-family="'MyriadPro-Regular'" font-size="8">@</tspan><tspan x="235.9" y="0" fill="#414042" stroke="#FFFFFF" stroke-width="0.5" stroke-miterlimit="10" font-family="'Multicolore'" font-size="10">gmail.com    </tspan><tspan x="305.3" y="0" fill="#414042" stroke="#FFFFFF" stroke-width="0.5" stroke-miterlimit="10" font-family="'MyriadPro-Regular'" font-size="10">|    </tspan><tspan x="316.2" y="0" fill="#414042" stroke="#FFFFFF" stroke-width="0.5" stroke-miterlimit="10" font-family="'Multicolore'" font-size="10">913.832.9981</tspan></text>
	<rect y="0" fill="#434244" width="612" height="10.7"/>
	<rect y="781.3" fill="#434244" width="612" height="10.7"/>
</g>
</svg>
