<?xml version="1.0" standalone="no"?>
<!DOCTYPE svg PUBLIC "-//W3C//DTD SVG 1.1//EN" "http://www.w3.org/Graphics/SVG/1.1/DTD/svg11.dtd">
<svg width="100%" height="100%" viewBox="0 0 768 500" version="1.1" xmlns="http://www.w3.org/2000/svg" xmlns:xlink="http://www.w3.org/1999/xlink" xml:space="preserve" style="fill-rule:evenodd;clip-rule:evenodd;stroke-linejoin:round;stroke-miterlimit:1.41421;">
    <g transform="matrix(-0.586441,1.88614e-16,-1.88614e-16,-0.586441,759.799,205.409)">
        <clipPath id="_clip1">
            <rect x="206.499" y="172.553" width="110.683" height="102.893"/>
        </clipPath>
        <g clip-path="url(#_clip1)">
            <g opacity="0.1">
                <clipPath id="_clip2">
                    <rect x="185.333" y="172.55" width="153.254" height="102.896"/>
                </clipPath>
                <g clip-path="url(#_clip2)">
                    <path d="M206.499,275.446L317.182,275.446L261.841,172.553L206.499,275.446L317.182,275.446" style="fill:rgb(249,172,138);fill-opacity:0.6;fill-rule:nonzero;"/>
                </g>
            </g>
        </g>
    </g>
    <g transform="matrix(-0.586441,1.88614e-16,-1.88614e-16,-0.586441,759.799,205.409)">
        <clipPath id="_clip3">
            <rect x="149.89" y="171.661" width="445.938" height="414.539"/>
        </clipPath>
        <g clip-path="url(#_clip3)">
            <g opacity="0.1">
                <clipPath id="_clip4">
                    <rect x="149.89" y="171.66" width="445.938" height="414.54"/>
                </clipPath>
                <g clip-path="url(#_clip4)">
                    <path d="M149.89,586.2L595.828,586.2L372.857,171.661L149.89,586.2L595.828,586.2" style="fill:rgb(166,218,206);fill-opacity:0.6;fill-rule:nonzero;"/>
                </g>
            </g>
        </g>
    </g>
    <g transform="matrix(-0.586441,1.88614e-16,-1.88614e-16,-0.586441,759.799,205.409)">
        <clipPath id="_clip5">
            <rect x="149.89" y="276.186" width="332.67" height="309.247"/>
        </clipPath>
        <g clip-path="url(#_clip5)">
            <g opacity="0.1">
                <clipPath id="_clip6">
                    <rect x="149.89" y="276.186" width="332.671" height="309.247"/>
                </clipPath>
                <g clip-path="url(#_clip6)">
                    <path d="M149.89,585.433L482.56,585.433L316.223,276.185L149.89,585.433L482.56,585.433" style="fill:rgb(251,225,96);fill-opacity:0.6;fill-rule:nonzero;"/>
                </g>
            </g>
        </g>
    </g>
    <g transform="matrix(-0.586441,1.88614e-16,-1.88614e-16,-0.586441,759.799,205.409)">
        <clipPath id="_clip7">
            <rect x="374.127" y="276.186" width="332.667" height="309.247"/>
        </clipPath>
        <g clip-path="url(#_clip7)">
            <g opacity="0.1">
                <clipPath id="_clip8">
                    <rect x="374.126" y="276.186" width="332.668" height="309.247"/>
                </clipPath>
                <g clip-path="url(#_clip8)">
                    <path d="M374.126,585.433L706.794,585.433L540.459,276.185L374.126,585.433L706.794,585.433" style="fill:rgb(251,225,96);fill-opacity:0.6;fill-rule:nonzero;"/>
                </g>
            </g>
        </g>
    </g>
    <g transform="matrix(-0.586441,1.88614e-16,-1.88614e-16,-0.586441,759.799,205.409)">
        <clipPath id="_clip9">
            <rect x="205.632" y="276.186" width="111.484" height="103.633"/>
        </clipPath>
        <g clip-path="url(#_clip9)">
            <g opacity="0.1">
                <clipPath id="_clip10">
                    <rect x="205.632" y="276.186" width="111.484" height="103.633"/>
                </clipPath>
                <g clip-path="url(#_clip10)">
                    <path d="M317.116,276.186L205.632,276.186L261.373,379.819L317.116,276.186L205.632,276.186" style="fill:rgb(240,233,223);fill-opacity:0.6;fill-rule:nonzero;"/>
                </g>
            </g>
        </g>
    </g>
    <g transform="matrix(-0.586441,1.88614e-16,-1.88614e-16,-0.586441,759.799,205.409)">
        <clipPath id="_clip11">
            <rect x="388.176" y="167.682" width="111.487" height="103.637"/>
        </clipPath>
        <g clip-path="url(#_clip11)">
            <g opacity="0.1">
                <clipPath id="_clip12">
                    <rect x="388.176" y="167.68" width="111.487" height="103.639"/>
                </clipPath>
                <g clip-path="url(#_clip12)">
                    <path d="M499.663,167.682L388.176,167.682L443.919,271.319L499.663,167.682L388.176,167.682" style="fill:rgb(245,205,196);fill-opacity:0.6;fill-rule:nonzero;"/>
                </g>
            </g>
        </g>
    </g>
    <g transform="matrix(0.615282,0,0,0.615282,351.823,266.304)">
        <clipPath id="_clip13">
            <rect x="206.499" y="172.553" width="110.683" height="102.893"/>
        </clipPath>
        <g clip-path="url(#_clip13)">
            <g opacity="0.2">
                <clipPath id="_clip14">
                    <rect x="185.333" y="172.55" width="153.254" height="102.896"/>
                </clipPath>
                <g clip-path="url(#_clip14)">
                    <path d="M206.499,275.446L317.182,275.446L261.841,172.553L206.499,275.446L317.182,275.446" style="fill:rgb(249,172,138);fill-opacity:0.6;fill-rule:nonzero;"/>
                </g>
            </g>
        </g>
    </g>
    <g transform="matrix(0.615282,0,0,0.615282,351.823,266.304)">
        <clipPath id="_clip15">
            <rect x="205.632" y="276.186" width="111.484" height="103.633"/>
        </clipPath>
        <g clip-path="url(#_clip15)">
            <g opacity="0.2">
                <clipPath id="_clip16">
                    <rect x="205.632" y="276.186" width="111.484" height="103.633"/>
                </clipPath>
                <g clip-path="url(#_clip16)">
                    <path d="M317.116,276.186L205.632,276.186L261.373,379.819L317.116,276.186L205.632,276.186" style="fill:rgb(240,233,223);fill-opacity:0.6;fill-rule:nonzero;"/>
                </g>
            </g>
        </g>
    </g>
    <g transform="matrix(0.615282,0,0,0.615282,352.823,251.028)">
        <clipPath id="_clip17">
            <rect x="388.176" y="167.682" width="111.487" height="103.637"/>
        </clipPath>
        <g clip-path="url(#_clip17)">
            <g opacity="0.2">
                <clipPath id="_clip18">
                    <rect x="388.176" y="167.68" width="111.487" height="103.639"/>
                </clipPath>
                <g clip-path="url(#_clip18)">
                    <path d="M499.663,167.682L388.176,167.682L443.919,271.319L499.663,167.682L388.176,167.682" style="fill:rgb(245,205,196);fill-opacity:0.6;fill-rule:nonzero;"/>
                </g>
            </g>
        </g>
    </g>
    <g transform="matrix(1,0,0,1,0,-58.085)">
        <path d="M642.842,494.321L636.543,482.034L649.14,482.034L642.842,494.321ZM654.501,471.577L631.183,471.577L625.809,461.093L659.875,461.093L654.501,471.577ZM665.235,450.636L620.448,450.636L614.907,439.825L670.777,439.825L665.235,450.636ZM676.137,429.368L609.546,429.368L604.172,418.884L681.511,418.884L676.137,429.368ZM686.872,408.427L598.812,408.427L593.437,397.941L692.247,397.941L686.872,408.427ZM697.607,387.484L588.076,387.484L582.702,377L702.981,377L697.607,387.484Z" style="fill:rgb(204,204,204);fill-opacity:0.0509804;"/>
    </g>
    <g transform="matrix(-1,3.21625e-16,-3.21625e-16,-1,1142.68,527.715)">
        <path d="M642.842,494.321L636.543,482.034L649.14,482.034L642.842,494.321ZM654.501,471.577L631.183,471.577L625.809,461.093L659.875,461.093L654.501,471.577ZM665.235,450.636L620.448,450.636L614.907,439.825L670.777,439.825L665.235,450.636ZM676.137,429.368L609.546,429.368L604.172,418.884L681.511,418.884L676.137,429.368ZM686.872,408.427L598.812,408.427L593.437,397.941L692.247,397.941L686.872,408.427ZM697.607,387.484L588.076,387.484L582.702,377L702.981,377L697.607,387.484Z" style="fill:rgb(204,204,204);fill-opacity:0.0509804;"/>
    </g>
    <g transform="matrix(-0.586441,1.88614e-16,-1.88614e-16,-0.586441,175.584,435.409)">
        <clipPath id="_clip19">
            <rect x="206.499" y="172.554" width="110.683" height="102.892"/>
        </clipPath>
        <g clip-path="url(#_clip19)">
            <g opacity="0.1">
                <clipPath id="_clip20">
                    <rect x="185.333" y="172.55" width="153.254" height="102.896"/>
                </clipPath>
                <g clip-path="url(#_clip20)">
                    <path d="M206.499,275.446L317.182,275.446L261.841,172.553L206.499,275.446L317.182,275.446" style="fill:rgb(249,172,138);fill-opacity:0.6;fill-rule:nonzero;"/>
                </g>
            </g>
        </g>
    </g>
    <g transform="matrix(-0.586441,1.88614e-16,-1.88614e-16,-0.586441,944.928,516.014)">
        <clipPath id="_clip21">
            <rect x="206.499" y="172.554" width="110.683" height="102.893"/>
        </clipPath>
        <g clip-path="url(#_clip21)">
            <g opacity="0.1">
                <clipPath id="_clip22">
                    <rect x="185.333" y="172.55" width="153.254" height="102.896"/>
                </clipPath>
                <g clip-path="url(#_clip22)">
                    <path d="M206.499,275.446L317.182,275.446L261.841,172.553L206.499,275.446L317.182,275.446" style="fill:rgb(249,172,138);fill-opacity:0.6;fill-rule:nonzero;"/>
                </g>
            </g>
        </g>
    </g>
    <g transform="matrix(-0.586441,1.88614e-16,-1.88614e-16,-0.586441,145.584,435.409)">
        <g opacity="0.1">
            <clipPath id="_clip23">
                <rect x="149.89" y="276.186" width="332.671" height="309.247"/>
            </clipPath>
            <g clip-path="url(#_clip23)">
                <path d="M149.89,585.433L482.56,585.433L316.223,276.185L149.89,585.433L482.56,585.433" style="fill:rgb(251,225,96);fill-opacity:0.6;fill-rule:nonzero;"/>
            </g>
        </g>
    </g>
    <g transform="matrix(-0.586441,1.88614e-16,-1.88614e-16,-0.586441,175.584,435.409)">
        <g opacity="0.1">
            <clipPath id="_clip24">
                <rect x="205.632" y="276.186" width="111.484" height="103.633"/>
            </clipPath>
            <g clip-path="url(#_clip24)">
                <path d="M317.116,276.186L205.632,276.186L261.373,379.819L317.116,276.186L205.632,276.186" style="fill:rgb(240,233,223);fill-opacity:0.6;fill-rule:nonzero;"/>
            </g>
        </g>
    </g>
    <g transform="matrix(-0.586441,1.88614e-16,-1.88614e-16,-0.586441,944.928,516.014)">
        <g opacity="0.1">
            <clipPath id="_clip25">
                <rect x="205.632" y="276.186" width="111.484" height="103.633"/>
            </clipPath>
            <g clip-path="url(#_clip25)">
                <path d="M317.116,276.186L205.632,276.186L261.373,379.819L317.116,276.186L205.632,276.186" style="fill:rgb(240,233,223);fill-opacity:0.6;fill-rule:nonzero;"/>
            </g>
        </g>
    </g>
    <g transform="matrix(-0.586441,1.88614e-16,-1.88614e-16,-0.586441,175.584,435.409)">
        <clipPath id="_clip26">
            <rect x="150.69" y="379.823" width="221.367" height="205.783"/>
        </clipPath>
        <g clip-path="url(#_clip26)">
            <g opacity="0.1">
                <clipPath id="_clip27">
                    <rect x="150.69" y="379.822" width="221.367" height="205.784"/>
                </clipPath>
                <g clip-path="url(#_clip27)">
                    <path d="M372.057,379.823L150.69,379.823L261.373,585.606L372.057,379.823L150.69,379.823" style="fill:rgb(19,134,153);fill-opacity:0.25098;fill-rule:nonzero;"/>
                </g>
            </g>
        </g>
    </g>
    <g transform="matrix(-0.586441,1.88614e-16,-1.88614e-16,-0.586441,944.928,516.014)">
        <clipPath id="_clip28">
            <rect x="150.69" y="379.823" width="221.367" height="205.783"/>
        </clipPath>
        <g clip-path="url(#_clip28)">
            <g opacity="0.1">
                <clipPath id="_clip29">
                    <rect x="150.69" y="379.822" width="221.367" height="205.784"/>
                </clipPath>
                <g clip-path="url(#_clip29)">
                    <path d="M372.057,379.823L150.69,379.823L261.373,585.606L372.057,379.823L150.69,379.823" style="fill:rgb(19,134,153);fill-opacity:0.6;fill-rule:nonzero;"/>
                </g>
            </g>
        </g>
    </g>
    <g transform="matrix(-0.586441,1.88614e-16,-1.88614e-16,-0.586441,175.584,435.409)">
        <clipPath id="_clip30">
            <rect x="261.841" y="482.079" width="111.485" height="103.636"/>
        </clipPath>
        <g clip-path="url(#_clip30)">
            <g opacity="0.1">
                <clipPath id="_clip31">
                    <rect x="261.841" y="482.079" width="111.485" height="103.636"/>
                </clipPath>
                <g clip-path="url(#_clip31)">
                    <path d="M261.841,585.715L373.326,585.715L317.58,482.079L261.841,585.715L373.326,585.715" style="fill:rgb(240,233,223);fill-opacity:0.6;fill-rule:nonzero;"/>
                </g>
            </g>
        </g>
    </g>
    <g transform="matrix(-0.586441,1.88614e-16,-1.88614e-16,-0.586441,944.928,516.014)">
        <clipPath id="_clip32">
            <rect x="261.841" y="482.079" width="111.485" height="103.636"/>
        </clipPath>
        <g clip-path="url(#_clip32)">
            <g opacity="0.1">
                <clipPath id="_clip33">
                    <rect x="261.841" y="482.079" width="111.485" height="103.636"/>
                </clipPath>
                <g clip-path="url(#_clip33)">
                    <path d="M261.841,585.715L373.326,585.715L317.58,482.079L261.841,585.715L373.326,585.715" style="fill:rgb(240,233,223);fill-opacity:0.6;fill-rule:nonzero;"/>
                </g>
            </g>
        </g>
    </g>
    <g transform="matrix(-0.586441,1.88614e-16,-1.88614e-16,-0.586441,944.928,516.014)">
        <clipPath id="_clip34">
            <rect x="371.967" y="482.079" width="111.487" height="103.636"/>
        </clipPath>
        <g clip-path="url(#_clip34)">
            <g opacity="0.1">
                <clipPath id="_clip35">
                    <rect x="371.967" y="482.079" width="111.487" height="103.636"/>
                </clipPath>
                <g clip-path="url(#_clip35)">
                    <path d="M371.967,585.715L483.454,585.715L427.711,482.079L371.967,585.715L483.454,585.715" style="fill:rgb(108,110,112);fill-opacity:0.6;fill-rule:nonzero;"/>
                </g>
            </g>
        </g>
    </g>
</svg>
