<?xml version="1.0" standalone="no"?>
<!DOCTYPE svg PUBLIC "-//W3C//DTD SVG 1.1//EN" "http://www.w3.org/Graphics/SVG/1.1/DTD/svg11.dtd">
<svg width="100%" height="100%" viewBox="0 0 20 20" version="1.1" xmlns="http://www.w3.org/2000/svg" xmlns:xlink="http://www.w3.org/1999/xlink" xml:space="preserve" style="fill-rule:evenodd;clip-rule:evenodd;stroke-miterlimit:1.41421;">
    <g transform="matrix(0.0553844,0,0,0.0553844,-11.0657,-35.6197)">
        <path d="M408,853L352.708,868C352.708,868 350.809,837.291 341.414,827.614C327.635,816.328 318.835,799.184 318.835,780C318.835,746.047 346.4,718.481 380.354,718.481L380.752,718.482C414.523,718.697 441.874,746.179 441.874,780C441.874,799.184 433.074,816.328 419.294,827.614C409.913,837.277 408.005,852.956 408,853Z" style="fill:none;stroke-width:8px;stroke:rgb(44,44,44);"/>
    </g>
    <g transform="matrix(0.0553844,0,0,0.0553844,-11.0657,-35.6197)">
        <path d="M408,853L352.708,868C352.708,868 350.809,837.291 341.414,827.614C327.635,816.328 318.835,799.184 318.835,780C318.835,746.047 346.4,718.481 380.354,718.481L380.752,718.482C414.523,718.697 441.874,746.179 441.874,780C441.874,799.184 433.074,816.328 419.294,827.614C409.913,837.277 408.005,852.956 408,853Z" style="fill:none;stroke-width:14.34px;stroke:rgb(44,44,44);"/>
    </g>
    <g transform="matrix(0.0553844,0,0,0.0553844,-11.0657,-35.6197)">
        <path d="M412.702,871L352,887" style="fill:none;stroke-width:8px;stroke-linecap:round;stroke-linejoin:round;stroke:rgb(44,44,44);"/>
    </g>
    <g transform="matrix(0.0553844,0,0,0.0553844,-11.0657,-35.6197)">
        <path d="M412.702,871L352,887" style="fill:none;stroke-width:8px;stroke-linecap:round;stroke-linejoin:round;stroke:rgb(44,44,44);"/>
    </g>
    <g transform="matrix(0.0553844,0,0,0.0553844,-11.0657,-34.6628)">
        <path d="M412.702,871L352,887" style="fill:none;stroke-width:8px;stroke-linecap:round;stroke-linejoin:round;stroke:rgb(44,44,44);"/>
    </g>
    <g transform="matrix(0.0553844,0,0,0.0553844,-11.0657,-34.6628)">
        <path d="M412.702,871L352,887" style="fill:none;stroke-width:8px;stroke-linecap:round;stroke-linejoin:round;stroke:rgb(44,44,44);"/>
    </g>
    <g transform="matrix(-0.0553844,0,0,0.0553844,31.0577,-36.1735)">
        <path d="M373,847C373,847 375.949,812.447 364,801C352.051,789.553 374.516,799.443 380.211,810" style="fill:none;stroke-width:7.17px;stroke-linecap:round;stroke-linejoin:round;stroke:rgb(44,44,44);"/>
    </g>
    <g transform="matrix(0.0553844,0,0,0.0553844,-11.0577,-36.1735)">
        <path d="M373,847C373,847 375.949,812.447 364,801C352.051,789.553 374.516,799.443 380.211,810" style="fill:none;stroke-width:7.17px;stroke-linecap:round;stroke-linejoin:round;stroke:rgb(44,44,44);"/>
    </g>
    <g transform="matrix(0.0553844,0,0,0.0553844,-11.0657,-35.4535)">
        <path d="M358,915C358,915 383.472,939.528 408,915" style="fill:none;stroke-width:8px;stroke-linecap:round;stroke-linejoin:round;stroke:rgb(44,44,44);"/>
    </g>
    <g transform="matrix(0.0553844,0,0,0.0553844,-11.0657,-35.4535)">
        <path d="M358,915C358,915 383.472,939.528 408,915" style="fill:none;stroke-width:14.34px;stroke-linecap:round;stroke-linejoin:round;stroke:rgb(44,44,44);"/>
    </g>
</svg>
