<?xml version="1.0" standalone="no"?>
<!DOCTYPE svg PUBLIC "-//W3C//DTD SVG 1.1//EN" "http://www.w3.org/Graphics/SVG/1.1/DTD/svg11.dtd">
<svg width="100%" height="100%" viewBox="0 0 105 30" version="1.1" xmlns="http://www.w3.org/2000/svg" xmlns:xlink="http://www.w3.org/1999/xlink" xml:space="preserve" style="fill-rule:evenodd;clip-rule:evenodd;stroke-linejoin:round;stroke-miterlimit:1.41421;">
    <g transform="matrix(0.375555,0,0,0.375555,-2.75555,-116.256)">
        <g transform="matrix(1,0,0,1,10,310.579)">
            <path d="M75.2,39.37C74.721,38.406 73.446,37.619 72.367,37.619L70.174,37.619C69.097,37.619 67.837,38.415 67.371,39.386L49.985,75.708C49.502,76.669 50.027,77.357 51.106,77.357L55.124,77.357C56.71,77.357 57.437,76.636 57.866,75.752C58.297,74.868 59.255,72.947 59.438,72.555C59.686,72.025 60.45,71.7 61.527,71.701L80.234,71.711C81.312,71.713 82.005,71.918 82.324,72.555C82.532,72.97 83.488,74.698 83.958,75.641C84.432,76.584 85.228,77.357 86.773,77.357L92.603,77.357C93.681,77.357 94.153,76.539 93.765,75.779C93.375,75.017 75.2,39.37 75.2,39.37ZM64.216,66.091C63.139,66.091 62.632,65.289 63.085,64.314L69.936,49.637C70.392,48.659 71.129,48.666 71.574,49.643L78.244,64.32C78.689,65.299 78.172,66.101 77.096,66.101L64.216,66.091ZM209.543,39.651C209.543,40.002 209.543,74.979 209.543,75.685C209.543,76.677 210.424,77.357 211.503,77.357L216.254,77.357C217.331,77.357 218.213,76.669 218.213,75.591L218.213,39.578C218.213,38.499 217.517,37.62 216.44,37.62L211.503,37.62C210.424,37.619 209.543,38.282 209.543,39.651ZM129.927,62.221C129.308,61.339 129.648,60.365 130.679,60.057C130.679,60.057 134.784,58.828 136.749,57.066C138.715,55.299 139.703,52.748 139.703,49.423C139.703,47.249 139.323,45.421 138.566,43.934C137.809,42.451 136.724,41.237 135.312,40.308C133.9,39.374 132.21,38.689 130.242,38.26C128.271,37.833 125.612,37.708 125.612,37.708C124.534,37.659 122.773,37.619 121.697,37.619L101.967,37.619C100.891,37.619 100.009,38.498 100.009,39.577L100.009,75.591C100.009,76.67 100.89,77.357 101.967,77.357L106.636,77.357C107.714,77.357 108.595,76.669 108.595,75.591C108.595,75.591 108.598,61.267 108.607,61.267C108.615,61.267 108.62,61.259 108.62,61.249C108.62,61.237 117.471,61.227 117.471,61.227C118.547,61.227 119.937,61.947 120.56,62.829L129.748,75.766C130.602,76.912 131.414,77.357 132.491,77.357L138.594,77.357C139.672,77.357 139.841,76.341 139.468,75.813C139.099,75.288 129.927,62.221 129.927,62.221ZM126.212,54.907C125.003,55.185 123.642,55.241 123.642,55.241C122.566,55.288 120.805,55.326 119.727,55.326L110.581,55.326C109.503,55.326 108.622,54.444 108.622,53.367L108.622,46.07C108.622,44.992 109.503,44.111 110.581,44.111L119.727,44.111C120.805,44.111 122.566,44.15 123.642,44.195C123.642,44.195 125.003,44.249 126.212,44.528C127.421,44.807 128.38,45.196 129.082,45.699C129.787,46.205 130.29,46.798 130.594,47.48C130.894,48.162 131.047,48.905 131.047,49.716C131.047,50.523 130.894,51.27 130.594,51.951C130.29,52.633 129.787,53.226 129.082,53.732C128.38,54.238 127.421,54.632 126.212,54.907ZM267.875,37.619C266.798,37.619 265.927,38.329 265.927,39.367C265.927,39.865 265.939,62.403 265.939,62.403C265.939,63.483 265.329,63.728 264.581,62.952L241.515,39.027C240.766,38.251 239.67,37.619 238.194,37.619L233.856,37.619C232.492,37.619 231.895,38.347 231.895,39.084C231.895,39.818 231.895,75.183 231.895,75.921C231.895,76.656 232.595,77.357 233.674,77.357L238.019,77.357C239.094,77.357 239.848,76.771 239.848,75.779C239.848,75.281 239.87,51.511 239.87,51.511C239.87,50.434 240.479,50.188 241.225,50.966L265.276,75.969C266.04,76.734 266.968,77.357 268.619,77.357L271.883,77.357C272.962,77.357 273.843,76.476 273.843,75.398L273.843,39.578C273.843,38.499 272.962,37.62 271.883,37.62L267.875,37.62L267.875,37.619ZM173.832,60.081C173.309,61.022 172.448,61.019 171.932,60.076L160.657,39.37C160.178,38.409 159.195,37.619 157.825,37.619L151.71,37.619C150.632,37.619 149.749,38.498 149.749,39.577L149.749,75.545C149.749,76.621 150.457,77.357 151.71,77.357L155.511,77.357C156.59,77.357 157.367,76.677 157.367,75.638C157.367,75.14 157.383,49.478 157.424,49.478C157.466,49.478 171.497,75.631 171.497,75.631C172.005,76.58 173.252,76.584 173.77,75.639C173.77,75.639 187.916,49.553 187.958,49.553C188.002,49.553 187.986,74.889 187.986,75.638C187.986,76.678 188.817,77.357 189.896,77.357L194.274,77.357C195.353,77.357 196.232,76.82 196.232,75.398L196.232,39.578C196.232,38.499 195.353,37.62 194.274,37.62L188.412,37.62C186.916,37.62 186.016,38.383 185.481,39.32L173.832,60.081Z" style="fill:rgb(44,44,44);fill-rule:nonzero;"/>
        </g>
        <g transform="matrix(1,0,0,1,10,310.579)">
            <path d="M0,57.453C0,76.858 19.848,77.842 23.828,77.842C36.999,77.842 42.565,74.283 42.796,74.129C43.62,73.663 44.623,72.723 44.623,70.962L44.623,57.568C44.623,56.334 43.618,55.329 42.383,55.329L25.836,55.329C24.599,55.329 23.787,56.334 23.787,57.568L23.787,58.955C23.787,60.191 24.599,61.199 25.836,61.199L35.407,61.199C36.331,61.199 37.082,61.949 37.082,62.873C37.082,62.873 37.073,68.744 37.073,69.116C35.182,69.888 26.57,72.404 19.65,70.754C9.612,68.353 8.83,60.072 8.83,57.591C8.83,55.509 9.454,45.079 21.782,44.024C31.761,43.17 38.332,47.199 38.397,47.238C39.57,47.846 40.784,47.413 41.438,46.171C41.441,46.161 42.683,43.648 42.683,43.648C43.2,42.614 43.026,41.542 41.764,40.686C41.68,40.638 34.685,36.845 23.83,36.845C0.668,36.846 0,55.344 0,57.453Z" style="fill:rgb(44,44,44);fill-rule:nonzero;"/>
        </g>
    </g>
    <g id="XMLID_1_" transform="matrix(0.375555,0,0,0.375555,1,0.383039)">
        <path d="M265.682,27.688L239.69,27.687C238.737,27.687 237.919,27.213 237.443,26.388C236.967,25.563 236.967,24.619 237.444,23.794L250.441,1.296C250.917,0.472 251.734,0 252.687,0C253.639,0 254.457,0.472 254.933,1.296L267.928,23.795C268.406,24.62 268.406,25.565 267.929,26.39C267.453,27.214 266.635,27.688 265.682,27.688Z" style="fill:rgb(44,44,44);"/>
    </g>
</svg>
