<?xml version="1.0" standalone="no"?>
<!DOCTYPE svg PUBLIC "-//W3C//DTD SVG 1.1//EN" "http://www.w3.org/Graphics/SVG/1.1/DTD/svg11.dtd">
<svg width="100%" height="100%" viewBox="0 0 50 50" version="1.1" xmlns="http://www.w3.org/2000/svg" xmlns:xlink="http://www.w3.org/1999/xlink" xml:space="preserve" style="fill-rule:evenodd;clip-rule:evenodd;stroke-linecap:round;stroke-linejoin:round;stroke-miterlimit:1.41421;">
    <g transform="matrix(0.373578,0,0,0.373578,-68.5227,9.9422)">
        <path d="M254.627,36.055C256.148,33.709 258.87,30.373 264.941,30.373C272.47,30.373 278.116,35.294 278.116,45.869L278.116,65.611L266.673,65.611L266.673,47.192C266.673,42.563 265.016,39.406 260.875,39.406C257.714,39.406 255.831,41.535 255.003,43.591C254.701,44.327 254.627,45.355 254.627,46.384L254.627,65.611L243.183,65.611L243.183,65.611L243.183,65.611C243.183,65.583 243.333,34.411 243.183,31.181L254.627,31.181L254.627,36.055C254.601,36.095 254.576,36.135 254.551,36.174L254.627,36.174L254.627,36.055ZM236.851,31.181L236.851,65.611L225.407,65.611L225.407,31.181L236.851,31.181ZM231.129,26.48C235.119,26.48 237.603,23.836 237.603,20.532C237.529,17.153 235.119,14.583 231.204,14.583C227.29,14.583 224.73,17.153 224.73,20.532C224.73,23.836 227.214,26.48 231.054,26.48L231.129,26.48Z" style="fill:rgb(0,102,153);"/>
    </g>
    <g transform="matrix(1.43473,0,0,1.42508,-91.213,-592.059)">
        <g>
            <circle cx="81" cy="433" r="13.312" style="fill:none;stroke-width:1.4px;stroke:rgb(0,102,153);"/>
        </g>
    </g>
</svg>
