<?xml version="1.0" standalone="no"?>
<!DOCTYPE svg PUBLIC "-//W3C//DTD SVG 1.1//EN" "http://www.w3.org/Graphics/SVG/1.1/DTD/svg11.dtd">
<svg width="100%" height="100%" viewBox="0 0 100 110" version="1.1" xmlns="http://www.w3.org/2000/svg" xmlns:xlink="http://www.w3.org/1999/xlink" xml:space="preserve" style="fill-rule:evenodd;clip-rule:evenodd;stroke-linecap:round;stroke-linejoin:round;stroke-miterlimit:1.41421;">
    <g id="logo" transform="matrix(1,0,0,1,-307.401,-61.757)">
        <path d="M339.828,158.081C336.701,158.081 334.757,160.273 334.699,163.327C334.757,166.381 336.701,168.573 339.828,168.573C342.941,168.573 344.899,166.381 344.957,163.327C344.899,160.273 342.941,158.081 339.828,158.081ZM339.828,167.331C337.402,167.331 336.029,165.577 336.029,163.327C336.029,161.076 337.402,159.323 339.828,159.323C342.239,159.323 343.628,161.076 343.628,163.327C343.628,165.577 342.239,167.331 339.828,167.331Z" style="fill:rgb(44,44,44);fill-rule:nonzero;"/>
        <path d="M353.112,158.154C352.761,158.154 352.454,158.388 352.352,158.709L349.882,166.746L347.427,158.68C347.339,158.373 347.091,158.154 346.769,158.154C346.39,158.154 346.097,158.432 346.126,158.797C346.126,158.87 346.141,158.943 346.17,159.045L349.035,167.842C349.195,168.295 349.531,168.5 349.897,168.5C350.291,168.5 350.642,168.222 350.759,167.842L353.112,160.39L355.464,167.842C355.581,168.222 355.932,168.5 356.326,168.5C356.692,168.5 357.028,168.295 357.189,167.842L360.053,159.045C360.082,158.943 360.097,158.87 360.097,158.797C360.126,158.432 359.834,158.154 359.454,158.154C359.132,158.154 358.884,158.373 358.796,158.68L356.341,166.746L353.871,158.709C353.769,158.388 353.462,158.154 353.112,158.154Z" style="fill:rgb(44,44,44);fill-rule:nonzero;"/>
        <path d="M368.397,167.185L363.209,167.185L363.209,163.941L367.871,163.941C368.222,163.941 368.499,163.678 368.499,163.327C368.499,162.976 368.222,162.699 367.871,162.699L363.209,162.699L363.209,159.469L368.397,159.469C368.748,159.469 369.025,159.206 369.025,158.855C369.025,158.505 368.748,158.227 368.397,158.227L362.537,158.227C362.172,158.227 361.88,158.534 361.88,158.899L361.88,167.769C361.88,168.135 362.172,168.427 362.537,168.427L368.397,168.427C368.748,168.427 369.025,168.164 369.025,167.813C369.025,167.462 368.748,167.185 368.397,167.185Z" style="fill:rgb(44,44,44);fill-rule:nonzero;"/>
        <path d="M379.43,158.154C379.065,158.154 378.772,158.461 378.772,158.826L378.772,166.717L373.146,158.592C372.942,158.329 372.664,158.154 372.343,158.154L372.153,158.154C371.626,158.154 371.203,158.592 371.203,159.118L371.203,167.842C371.203,168.208 371.495,168.5 371.86,168.5C372.226,168.5 372.533,168.208 372.533,167.842L372.533,159.937L378.188,168.105C378.363,168.339 378.641,168.5 378.962,168.5L379.138,168.5C379.664,168.5 380.102,168.076 380.102,167.55L380.102,158.826C380.102,158.461 379.795,158.154 379.43,158.154Z" style="fill:rgb(44,44,44);fill-rule:nonzero;"/>
        <g transform="matrix(0.250473,0,0,0.250473,267.573,18.6386)">
            <circle cx="358.632" cy="346.466" r="161.71" style="fill:none;stroke-width:11.98px;stroke:rgb(44,44,44);"/>
        </g>
        <g transform="matrix(0.193902,0,0,0.193902,287.861,38.2384)">
            <circle cx="358.632" cy="346.466" r="161.71" style="fill:none;stroke-width:30.94px;stroke:rgb(44,44,44);"/>
        </g>
    </g>
</svg>
