<?xml version="1.0" standalone="no"?>
<!DOCTYPE svg PUBLIC "-//W3C//DTD SVG 1.1//EN" "http://www.w3.org/Graphics/SVG/1.1/DTD/svg11.dtd">
<svg width="100%" height="100%" viewBox="0 0 260 30" version="1.1" xmlns="http://www.w3.org/2000/svg" xmlns:xlink="http://www.w3.org/1999/xlink" xml:space="preserve" style="fill-rule:evenodd;clip-rule:evenodd;stroke-linejoin:round;stroke-miterlimit:1.41421;">
    <g transform="matrix(0.843061,0,0,0.843061,-377.87,-330.185)">
        <g transform="matrix(1.09874,0,0,1.09874,380.771,172.342)">
            <path d="M66.156,215.252L66.838,217.76L64.462,226.692L62.46,229.288L67.894,229.288L69.632,222.731L73.658,229.288L76.848,229.288L80.566,215.252L75.286,215.252L75.968,217.76L74.846,222.006L70.71,215.252L66.156,215.252Z" style="fill:rgb(44,44,44);"/>
        </g>
        <g transform="matrix(1.09874,0,0,1.09874,380.771,172.342)">
            <path d="M91.896,218.948C92.006,217.452 91.28,216.66 89.982,216.66L84.35,216.66C83.514,216.66 82.744,216.945 82.106,217.583C81.468,218.222 81.028,219.167 80.72,220.312L79.312,225.636C79.18,226.12 79.114,226.582 79.092,226.978C78.982,228.474 79.664,229.288 80.94,229.288L86.638,229.288C87.474,229.288 88.244,229.002 88.882,228.363C89.476,227.748 89.938,226.868 90.224,225.768L91.676,220.333C91.808,219.783 91.874,219.366 91.896,218.948ZM83.954,219.344L87.254,219.344C87.496,219.344 87.694,219.388 87.606,219.739L85.89,226.208C85.802,226.56 85.56,226.604 85.318,226.604L83.734,226.604C83.492,226.604 83.272,226.56 83.36,226.208L84.834,220.708L83.954,219.344Z" style="fill:rgb(44,44,44);"/>
        </g>
        <g transform="matrix(1.09874,0,0,1.09874,380.771,172.342)">
            <path d="M103.666,222.006L104.304,219.607C104.414,219.189 104.458,218.859 104.48,218.551C104.568,217.254 103.798,216.66 102.434,216.66L93.282,216.66L93.898,218.904L91.764,226.956L89.96,229.288L95.372,229.288L96.736,224.118L97.44,224.118L97.814,229.288L103.402,229.288L102.28,227.924L101.796,224.074C102.148,224.007 102.5,223.832 102.786,223.568C103.204,223.194 103.49,222.644 103.666,222.006ZM100.08,219.651L99.707,221.104C99.64,221.324 99.53,221.434 99.333,221.434L97.44,221.434L97.638,220.686L96.758,219.344L99.882,219.344C100.08,219.344 100.146,219.454 100.08,219.651Z" style="fill:rgb(44,44,44);"/>
        </g>
        <g transform="matrix(1.09874,0,0,1.09874,380.771,172.342)">
            <path d="M106.702,216.66L105.338,220.158L107.252,219.344L108.704,219.344L106.68,226.956L104.876,229.288L110.288,229.288L112.928,219.344L114.336,219.344L115.81,220.158L116.316,216.66L106.702,216.66Z" style="fill:rgb(44,44,44);"/>
        </g>
        <g transform="matrix(1.09874,0,0,1.09874,380.771,172.342)">
            <path d="M123.862,216.66L124.478,218.904L123.818,221.412L121.596,221.412L122.85,216.66L117.416,216.66L118.032,218.904L115.898,226.956L114.094,229.288L119.506,229.288L120.87,224.096L123.092,224.096L122.344,226.956L120.54,229.288L125.952,229.288L129.296,216.66L123.862,216.66Z" style="fill:rgb(44,44,44);"/>
        </g>
        <g transform="matrix(1.09874,0,0,1.09874,380.771,172.342)">
            <path d="M143.617,216.66L144.233,218.904L142.144,223.238L142.517,216.66L138.47,216.66L135.477,222.952L135.786,216.66L130.373,216.66L131.473,218.904L130.923,229.288L134.773,229.288L137.985,222.556L137.611,229.288L141.593,229.288L147.6,216.66L143.617,216.66Z" style="fill:rgb(44,44,44);"/>
        </g>
        <g transform="matrix(1.09874,0,0,1.09874,380.771,172.342)">
            <path d="M157.72,219.806L158.138,216.66L148.348,216.66L148.964,218.904L146.83,226.956L145.025,229.288L154.771,229.288L156.047,226.142L153.935,226.604L151.142,226.604L151.802,224.118L154.332,224.118L156.003,224.536L156.928,220.994L155.058,221.434L152.528,221.434L152.726,220.708L151.824,219.344L155.872,219.344L157.72,219.806Z" style="fill:rgb(44,44,44);"/>
        </g>
        <g transform="matrix(1.09874,0,0,1.09874,380.771,172.342)">
            <path d="M164.275,229.288C165.045,229.288 165.727,229.024 166.321,228.474C166.894,227.924 167.312,227.109 167.576,226.12L168.257,223.524C168.323,223.282 168.367,223.04 168.367,222.819C168.456,221.522 167.686,220.928 166.321,220.928L163.197,220.928L163.264,220.708L162.383,219.344L167.553,219.344L169.159,219.959L169.6,216.66L162.471,216.66C161.767,216.66 161.085,216.968 160.514,217.605C160.007,218.156 159.633,218.904 159.413,219.739L158.82,222.027C158.709,222.468 158.644,222.863 158.622,223.194C158.534,224.315 159.193,224.866 160.271,224.866L163.417,224.866C163.77,224.866 163.77,224.954 163.747,225.086L163.396,226.383C163.373,226.494 163.308,226.604 162.956,226.604L159.326,226.604L157.72,225.988L157.279,229.288L164.275,229.288Z" style="fill:rgb(44,44,44);"/>
        </g>
        <g transform="matrix(1.09874,0,0,1.09874,380.771,172.342)">
            <path d="M171.447,216.66L170.083,220.158L171.997,219.344L173.449,219.344L171.425,226.956L169.621,229.288L175.033,229.288L177.673,219.344L179.082,219.344L180.555,220.158L181.062,216.66L171.447,216.66Z" style="fill:rgb(44,44,44);"/>
        </g>
        <g transform="matrix(1.09874,0,0,1.09874,380.771,172.342)">
            <path d="M198.001,215.252L194.371,221.764L194.327,215.252L187.243,215.252L187.925,217.76L185.549,226.692L183.547,229.288L187.903,229.288L190.015,221.346L190.059,229.288L193.095,229.288L197.538,221.301L196.109,226.692L194.107,229.288L200.113,229.288L203.831,215.252L198.001,215.252Z" style="fill:rgb(44,44,44);"/>
        </g>
        <g transform="matrix(1.09874,0,0,1.09874,380.771,172.342)">
            <path d="M205.679,218.904L203.545,226.956L201.741,229.288L207.153,229.288L210.497,216.66L205.063,216.66L205.679,218.904Z" style="fill:rgb(44,44,44);"/>
        </g>
        <g transform="matrix(1.09874,0,0,1.09874,380.771,172.342)">
            <path d="M216.151,229.288C216.921,229.288 217.603,229.024 218.197,228.474C218.769,227.924 219.187,227.109 219.451,226.12L220.133,223.524C220.199,223.282 220.243,223.04 220.243,222.819C220.331,221.522 219.562,220.928 218.197,220.928L215.073,220.928L215.139,220.708L214.259,219.344L219.429,219.344L221.035,219.959L221.475,216.66L214.347,216.66C213.643,216.66 212.961,216.968 212.389,217.605C211.883,218.156 211.509,218.904 211.289,219.739L210.695,222.027C210.585,222.468 210.519,222.863 210.497,223.194C210.409,224.315 211.069,224.866 212.147,224.866L215.293,224.866C215.645,224.866 215.645,224.954 215.623,225.086L215.271,226.383C215.249,226.494 215.183,226.604 214.831,226.604L211.201,226.604L209.595,225.988L209.155,229.288L216.151,229.288Z" style="fill:rgb(44,44,44);"/>
        </g>
        <g transform="matrix(1.09874,0,0,1.09874,380.771,172.342)">
            <path d="M227.481,229.288C228.251,229.288 228.933,229.024 229.527,228.474C230.099,227.924 230.517,227.109 230.781,226.12L231.463,223.524C231.529,223.282 231.573,223.04 231.573,222.819C231.661,221.522 230.891,220.928 229.527,220.928L226.403,220.928L226.469,220.708L225.589,219.344L230.759,219.344L232.365,219.959L232.805,216.66L225.677,216.66C224.973,216.66 224.291,216.968 223.719,217.605C223.213,218.156 222.839,218.904 222.619,219.739L222.025,222.027C221.915,222.468 221.849,222.863 221.827,223.194C221.739,224.315 222.399,224.866 223.477,224.866L226.623,224.866C226.975,224.866 226.975,224.954 226.953,225.086L226.601,226.383C226.579,226.494 226.513,226.604 226.161,226.604L222.531,226.604L220.925,225.988L220.485,229.288L227.481,229.288Z" style="fill:rgb(44,44,44);"/>
        </g>
        <g transform="matrix(1.09874,0,0,1.09874,380.771,172.342)">
            <path d="M245.059,218.948C245.169,217.452 244.443,216.66 243.145,216.66L237.513,216.66C236.677,216.66 235.907,216.945 235.27,217.583C234.631,218.222 234.191,219.167 233.883,220.312L232.475,225.636C232.343,226.12 232.277,226.582 232.255,226.978C232.145,228.474 232.827,229.288 234.103,229.288L239.801,229.288C240.637,229.288 241.407,229.002 242.045,228.363C242.639,227.748 243.101,226.868 243.387,225.768L244.839,220.333C244.971,219.783 245.037,219.366 245.059,218.948ZM237.117,219.344L240.417,219.344C240.659,219.344 240.857,219.388 240.77,219.739L239.053,226.208C238.965,226.56 238.723,226.604 238.481,226.604L236.897,226.604C236.655,226.604 236.435,226.56 236.523,226.208L237.997,220.708L237.117,219.344Z" style="fill:rgb(44,44,44);"/>
        </g>
        <g transform="matrix(1.09874,0,0,1.09874,380.771,172.342)">
            <path d="M254.585,216.66L255.201,218.904L253.265,226.208C253.177,226.56 252.935,226.604 252.693,226.604L249.547,226.604C249.305,226.604 249.085,226.56 249.173,226.208L251.703,216.66L246.269,216.66L246.885,218.904L245.169,225.394C244.707,227.154 244.861,228.649 246.093,229.089C246.533,229.266 247.237,229.288 247.941,229.288L252.165,229.288C252.935,229.288 253.815,229.133 254.541,228.363C255.312,227.594 255.707,226.428 255.993,225.394L258.303,216.66L254.585,216.66Z" style="fill:rgb(44,44,44);"/>
        </g>
        <g transform="matrix(1.09874,0,0,1.09874,380.771,172.342)">
            <path d="M269.875,222.006L270.513,219.607C270.623,219.189 270.667,218.859 270.689,218.551C270.777,217.254 270.007,216.66 268.643,216.66L259.491,216.66L260.107,218.904L257.973,226.956L256.169,229.288L261.581,229.288L262.945,224.118L263.649,224.118L264.023,229.288L269.611,229.288L268.489,227.924L268.005,224.074C268.357,224.007 268.709,223.832 268.995,223.568C269.413,223.194 269.699,222.644 269.875,222.006ZM266.289,219.651L265.915,221.104C265.849,221.324 265.739,221.434 265.541,221.434L263.649,221.434L263.847,220.686L262.967,219.344L266.091,219.344C266.289,219.344 266.355,219.454 266.289,219.651Z" style="fill:rgb(44,44,44);"/>
        </g>
        <g transform="matrix(1.09874,0,0,1.09874,380.771,172.342)">
            <path d="M274.363,218.904L272.229,226.956L270.425,229.288L275.837,229.288L279.181,216.66L273.747,216.66L274.363,218.904Z" style="fill:rgb(44,44,44);"/>
        </g>
        <g transform="matrix(1.09874,0,0,1.09874,380.771,172.342)">
            <path d="M291.104,229.288C291.94,229.288 292.71,229.002 293.348,228.386C293.986,227.77 294.448,226.868 294.757,225.768L295.504,222.886C295.592,222.622 295.636,222.336 295.636,222.094C295.747,220.664 294.866,220.004 293.371,220.004L289.895,220.004L289.96,219.739L288.971,218.222L294.734,218.222L296.517,218.926L297.022,215.252L289.081,215.252C288.288,215.252 287.541,215.604 286.902,216.308C286.353,216.924 285.934,217.738 285.692,218.684L285.033,221.213C284.901,221.72 284.834,222.138 284.791,222.512C284.703,223.766 285.428,224.381 286.66,224.381L290.136,224.381C290.51,224.381 290.533,224.47 290.489,224.602L290.115,226.076C290.071,226.186 290.026,226.318 289.63,226.318L285.604,226.318L283.801,225.613L283.316,229.288L291.104,229.288Z" style="fill:rgb(44,44,44);"/>
        </g>
        <g transform="matrix(1.09874,0,0,1.09874,380.771,172.342)">
            <path d="M298.628,216.66L297.265,220.158L299.178,219.344L300.63,219.344L298.606,226.956L296.802,229.288L302.214,229.288L304.854,219.344L306.263,219.344L307.736,220.158L308.242,216.66L298.628,216.66Z" style="fill:rgb(44,44,44);"/>
        </g>
        <g transform="matrix(1.09874,0,0,1.09874,380.771,172.342)">
            <path d="M310.53,223.524L312.181,220.839L312.356,223.524L310.53,223.524ZM310.245,216.66L310.86,218.904L305.734,226.956L303.931,229.288L308.022,229.288L307.736,227.857L308.902,226.076L312.532,226.076L312.643,227.857L311.521,229.288L317.681,229.288L317.086,227L316.47,216.66L310.245,216.66Z" style="fill:rgb(44,44,44);"/>
        </g>
        <g transform="matrix(1.09874,0,0,1.09874,380.771,172.342)">
            <path d="M320.431,216.66L319.066,220.158L320.98,219.344L322.433,219.344L320.408,226.956L318.604,229.288L324.016,229.288L326.656,219.344L328.064,219.344L329.538,220.158L330.044,216.66L320.431,216.66Z" style="fill:rgb(44,44,44);"/>
        </g>
        <g transform="matrix(1.09874,0,0,1.09874,380.771,172.342)">
            <path d="M340.406,219.806L340.824,216.66L331.034,216.66L331.65,218.904L329.516,226.956L327.712,229.288L337.458,229.288L338.734,226.142L336.622,226.604L333.828,226.604L334.488,224.118L337.019,224.118L338.69,224.536L339.614,220.994L337.744,221.434L335.214,221.434L335.413,220.708L334.51,219.344L338.558,219.344L340.406,219.806Z" style="fill:rgb(44,44,44);"/>
        </g>
    </g>
</svg>
