<?xml version="1.0" encoding="UTF-8" standalone="no"?>
<!DOCTYPE svg PUBLIC "-//W3C//DTD SVG 1.1//EN" "http://www.w3.org/Graphics/SVG/1.1/DTD/svg11.dtd">
<svg width="100%" height="100%" viewBox="0 0 100 100" version="1.1" xmlns="http://www.w3.org/2000/svg" xmlns:xlink="http://www.w3.org/1999/xlink" xml:space="preserve" style="fill-rule:evenodd;clip-rule:evenodd;stroke-miterlimit:10;">
    <circle cx="50" cy="50" r="45.097" style="fill:rgb(216,216,216);"/>
    <g transform="matrix(0.175716,0,0,0.175716,-26.5667,-55.6842)">
        <path d="M293.044,646.194C287.089,639.91 276.773,640.016 270.002,646.431C263.231,652.847 262.57,663.142 268.524,669.427C274.479,675.711 284.795,675.605 291.566,669.189C298.337,662.774 298.999,652.478 293.044,646.194Z" style="fill:rgb(216,216,216);fill-rule:nonzero;stroke:white;stroke-width:11.79px;"/>
    </g>
    <g transform="matrix(0.175716,0,0,0.175716,-27.5667,-55.6842)">
        <path d="M347.304,616.537C340.727,602.521 323.154,596.903 308.053,603.989C292.952,611.075 286.042,628.181 292.619,642.197C299.196,656.213 316.769,661.831 331.87,654.745C346.97,647.659 353.881,630.553 347.304,616.537" style="fill:rgb(216,216,216);fill-rule:nonzero;stroke:white;stroke-width:1px;stroke-linejoin:round;stroke-miterlimit:1.41421;"/>
    </g>
    <g transform="matrix(0.175716,0,0,0.175716,-27.5667,-55.6842)">
        <path d="M347.304,616.537C340.727,602.521 323.154,596.903 308.053,603.989C292.952,611.075 286.042,628.181 292.619,642.197C299.196,656.213 316.769,661.831 331.87,654.745C346.97,647.659 353.881,630.553 347.304,616.537Z" style="fill:rgb(216,216,216);fill-rule:nonzero;stroke:white;stroke-width:11.79px;"/>
    </g>
    <g transform="matrix(0.175716,0,0,0.175716,-27.5667,-55.6842)">
        <path d="M397.681,579.545C388.692,560.389 366.9,551.666 349.006,560.062C331.113,568.458 323.894,590.794 332.883,609.95C341.872,629.107 363.664,637.829 381.557,629.433C399.451,621.037 406.67,598.701 397.681,579.545" style="fill:rgb(216,216,216);fill-rule:nonzero;stroke:white;stroke-width:1px;stroke-linejoin:round;stroke-miterlimit:1.41421;"/>
    </g>
    <g transform="matrix(0.175716,0,0,0.175716,-27.5667,-55.6842)">
        <path d="M397.681,579.545C388.692,560.389 366.9,551.666 349.006,560.062C331.113,568.458 323.894,590.794 332.883,609.95C341.872,629.107 363.664,637.829 381.557,629.433C399.451,621.037 406.67,598.701 397.681,579.545Z" style="fill:rgb(216,216,216);fill-rule:nonzero;stroke:white;stroke-width:11.79px;"/>
    </g>
    <g transform="matrix(0.175716,0,0,0.175716,-27.5667,-55.6842)">
        <path d="M439.93,573.334C434.853,549.799 416.624,533.765 399.216,537.521C381.807,541.276 371.81,563.4 376.887,586.934C381.965,610.469 400.193,626.503 417.602,622.747C435.01,618.992 445.007,596.869 439.93,573.334" style="fill:rgb(216,216,216);fill-rule:nonzero;stroke:white;stroke-width:1px;stroke-linejoin:round;stroke-miterlimit:1.41421;"/>
    </g>
    <g transform="matrix(0.175716,0,0,0.175716,-27.5667,-55.6842)">
        <path d="M439.93,573.334C434.853,549.799 416.624,533.765 399.216,537.521C381.807,541.276 371.81,563.4 376.887,586.934C381.965,610.469 400.193,626.503 417.602,622.747C435.01,618.992 445.007,596.869 439.93,573.334Z" style="fill:rgb(216,216,216);fill-rule:nonzero;stroke:white;stroke-width:11.79px;"/>
    </g>
    <g transform="matrix(0.175716,0,0,0.175716,-27.5667,-55.6842)">
        <path d="M489.249,572.018C488.951,547.944 474.273,528.607 456.465,528.827C438.657,529.048 424.463,548.742 424.761,572.817C425.059,596.891 439.737,616.228 457.545,616.008C475.353,615.787 489.547,596.092 489.249,572.018" style="fill:rgb(216,216,216);fill-rule:nonzero;stroke:white;stroke-width:1px;stroke-linejoin:round;stroke-miterlimit:1.41421;"/>
    </g>
    <g transform="matrix(0.175716,0,0,0.175716,-27.5667,-55.6842)">
        <path d="M489.249,572.018C488.951,547.944 474.273,528.607 456.465,528.827C438.657,529.048 424.463,548.742 424.761,572.817C425.059,596.891 439.737,616.228 457.545,616.008C475.353,615.787 489.547,596.092 489.249,572.018Z" style="fill:rgb(216,216,216);fill-rule:nonzero;stroke:white;stroke-width:11.79px;"/>
    </g>
    <g transform="matrix(0.175716,0,0,0.175716,-27.5667,-55.6842)">
        <path d="M537.649,573.4C537.36,550.075 523.139,531.34 505.886,531.554C488.632,531.767 474.88,550.849 475.169,574.174C475.458,597.499 489.679,616.234 506.932,616.02C524.185,615.806 537.938,596.725 537.649,573.4" style="fill:rgb(216,216,216);fill-rule:nonzero;stroke:white;stroke-width:1px;stroke-linejoin:round;stroke-miterlimit:1.41421;"/>
    </g>
    <g transform="matrix(0.175716,0,0,0.175716,-27.5667,-55.6842)">
        <path d="M537.649,573.4C537.36,550.075 523.139,531.34 505.886,531.554C488.632,531.767 474.88,550.849 475.169,574.174C475.458,597.499 489.679,616.234 506.932,616.02C524.185,615.806 537.938,596.725 537.649,573.4Z" style="fill:rgb(216,216,216);fill-rule:nonzero;stroke:white;stroke-width:11.79px;"/>
    </g>
    <g transform="matrix(0.175716,0,0,0.175716,-27.5667,-55.6842)">
        <path d="M574.461,596.964C581.207,574.634 573.285,552.487 556.768,547.497C540.25,542.508 521.391,556.564 514.646,578.894C507.9,601.224 515.822,623.371 532.339,628.361C548.857,633.351 567.715,619.294 574.461,596.964" style="fill:rgb(216,216,216);fill-rule:nonzero;stroke:white;stroke-width:1px;stroke-linejoin:round;stroke-miterlimit:1.41421;"/>
    </g>
    <g transform="matrix(0.175716,0,0,0.175716,-27.5667,-55.6842)">
        <path d="M574.461,596.964C581.207,574.634 573.285,552.487 556.768,547.497C540.25,542.508 521.391,556.564 514.646,578.894C507.9,601.224 515.822,623.371 532.339,628.361C548.857,633.351 567.715,619.294 574.461,596.964Z" style="fill:rgb(216,216,216);fill-rule:nonzero;stroke:white;stroke-width:11.79px;"/>
    </g>
    <g transform="matrix(0.175716,0,0,0.175716,-27.5667,-55.6842)">
        <path d="M597.661,603.192C590.376,587.666 572.228,580.823 557.127,587.909C542.026,594.995 535.69,613.326 542.976,628.852C550.261,644.378 568.409,651.221 583.51,644.135C598.611,637.049 604.947,618.718 597.661,603.192" style="fill:rgb(216,216,216);fill-rule:nonzero;stroke:white;stroke-width:1px;stroke-linejoin:round;stroke-miterlimit:1.41421;"/>
    </g>
    <g transform="matrix(0.175716,0,0,0.175716,-27.5667,-55.6842)">
        <path d="M597.661,603.192C590.376,587.666 572.228,580.823 557.127,587.909C542.026,594.995 535.69,613.326 542.976,628.852C550.261,644.378 568.409,651.221 583.51,644.135C598.611,637.049 604.947,618.718 597.661,603.192Z" style="fill:rgb(216,216,216);fill-rule:nonzero;stroke:white;stroke-width:11.79px;"/>
    </g>
</svg>
