<?xml version="1.0" encoding="UTF-8" standalone="no"?>
<!DOCTYPE svg PUBLIC "-//W3C//DTD SVG 1.1//EN" "http://www.w3.org/Graphics/SVG/1.1/DTD/svg11.dtd">
<svg width="100%" height="100%" viewBox="0 0 251 251" version="1.1" xmlns="http://www.w3.org/2000/svg" xmlns:xlink="http://www.w3.org/1999/xlink" xml:space="preserve" xmlns:serif="http://www.serif.com/" style="fill-rule:evenodd;clip-rule:evenodd;stroke-linejoin:round;stroke-miterlimit:1.41421;">
    <rect id="Artboard1" x="0" y="0" width="250.02" height="250.02" style="fill:none;"/>
    <clipPath id="_clip1">
        <rect id="Artboard11" serif:id="Artboard1" x="0" y="0" width="250.02" height="250.02"/>
    </clipPath>
    <g clip-path="url(#_clip1)">
        <g transform="matrix(0.194153,0,0,0.194153,49.8727,40)">
            <path d="M387,0L774,218.9L774,656.8L387,875.7L0,656.8L0,218.9L387,0Z" style="fill:white;fill-rule:nonzero;"/>
        </g>
        <g transform="matrix(0.194153,0,0,0.194153,49.8727,40)">
            <path d="M704.9,641.7L399.8,814.3L399.8,679.9L589.9,575.3L704.9,641.7ZM725.8,622.8L725.8,261.9L614.2,326.4L614.2,558.4L725.8,622.8ZM67.9,641.7L373,814.3L373,679.9L182.8,575.3L67.9,641.7ZM47,622.8L47,261.9L158.6,326.4L158.6,558.4L47,622.8ZM60.1,238.5L373,61.5L373,191.4L172.5,301.7L170.9,302.6L60.1,238.5ZM712.7,238.5L399.8,61.5L399.8,191.4L600.3,301.6L601.9,302.5L712.7,238.5Z" style="fill:rgb(142,214,251);fill-rule:nonzero;"/>
        </g>
        <g transform="matrix(0.194153,0,0,0.194153,49.8727,40)">
            <path d="M373,649.3L185.4,546.1L185.4,341.8L373,450.1L373,649.3ZM399.8,649.3L587.4,546.2L587.4,341.8L399.8,450.1L399.8,649.3ZM198.1,318.2L386.4,214.7L574.7,318.2L386.4,426.9L198.1,318.2Z" style="fill:rgb(28,120,192);fill-rule:nonzero;"/>
        </g>
    </g>
</svg>
