<?xml version="1.0" encoding="UTF-8" standalone="no"?>
<!DOCTYPE svg PUBLIC "-//W3C//DTD SVG 1.1//EN" "http://www.w3.org/Graphics/SVG/1.1/DTD/svg11.dtd">
<svg width="100%" height="100%" viewBox="0 0 251 251" version="1.1" xmlns="http://www.w3.org/2000/svg" xmlns:xlink="http://www.w3.org/1999/xlink" xml:space="preserve" xmlns:serif="http://www.serif.com/" style="fill-rule:evenodd;clip-rule:evenodd;stroke-linejoin:round;stroke-miterlimit:1.41421;">
    <rect id="Artboard1" x="0" y="0" width="250.02" height="250.02" style="fill:none;"/>
    <clipPath id="_clip1">
        <rect id="Artboard11" serif:id="Artboard1" x="0" y="0" width="250.02" height="250.02"/>
    </clipPath>
    <g clip-path="url(#_clip1)">
        <g id="XMLID_44_" transform="matrix(0.963969,0,0,0.963969,-45.6005,-3.49915)">
            <path id="XMLID_49_" d="M177,221.5L177,187.3C213.2,187.3 241.3,151.4 227.4,113.3C222.3,99.3 211,88 196.9,82.9C158.8,69.1 122.9,97.1 122.9,133.3L88.8,133.3C88.8,75.6 144.6,30.6 205.1,49.5C231.5,57.8 252.6,78.8 260.8,105.2C279.7,165.7 234.7,221.5 177,221.5Z" style="fill:rgb(0,128,255);fill-rule:nonzero;"/>
            <path id="XMLID_47_" d="M177.1,187.5L143,187.5L143,153.4L177.1,153.4L177.1,187.5Z" style="fill:rgb(0,128,255);"/>
            <rect id="XMLID_46_" x="116.9" y="187.5" width="26.1" height="26.1" style="fill:rgb(0,128,255);"/>
            <rect id="XMLID_45_" x="95" y="165.6" width="21.9" height="21.9" style="fill:rgb(0,128,255);"/>
        </g>
    </g>
</svg>
