<?xml version="1.0" encoding="UTF-8" standalone="no"?>
<!DOCTYPE svg PUBLIC "-//W3C//DTD SVG 1.1//EN" "http://www.w3.org/Graphics/SVG/1.1/DTD/svg11.dtd">
<svg width="100%" height="100%" viewBox="0 0 251 251" version="1.1" xmlns="http://www.w3.org/2000/svg" xmlns:xlink="http://www.w3.org/1999/xlink" xml:space="preserve" xmlns:serif="http://www.serif.com/" style="fill-rule:evenodd;clip-rule:evenodd;stroke-linejoin:round;stroke-miterlimit:1.41421;">
    <rect id="Artboard1" x="0" y="0" width="250.02" height="250.02" style="fill:none;"/>
    <clipPath id="_clip1">
        <rect id="Artboard11" serif:id="Artboard1" x="0" y="0" width="250.02" height="250.02"/>
    </clipPath>
    <g clip-path="url(#_clip1)">
        <g transform="matrix(0.315208,0,0,0.315208,30.725,-28.2141)">
            <path d="M311.47,755.8L297,751C297,751 298.84,677.78 272.44,672.65C255.03,652.47 275.12,-189.24 338.38,669.76C338.38,669.76 316.73,680.63 312.63,699.1C308.53,717.57 311.47,755.79 311.47,755.79L311.47,755.8Z" style="fill:url(#_Linear2);fill-rule:nonzero;"/>
        </g>
        <g transform="matrix(0.315208,0,0,0.315208,30.725,-28.2141)">
            <g id="Elasticsearch_3_">
                <path d="M289.65,689.71C289.65,689.71 171.72,609.27 178.51,467.33C185.3,325.39 268.58,255.59 284.8,242.93C295.29,231.75 295.72,227.44 296.53,216.41C303.88,232.2 302.66,452.26 303.44,477.98C306.44,578.12 297.9,670.81 289.65,689.71Z" style="fill:url(#_Linear3);fill-rule:nonzero;"/>
            </g>
        </g>
        <g transform="matrix(0.315208,0,0,0.315208,30.725,-28.2141)">
            <path d="M319.27,685.12C319.27,685.12 445,602.32 415.54,430.36C387.17,305.43 320.21,264.36 313,248.68C305.08,237.58 297.1,217.92 297.1,217.92L302.45,566C302.45,566 291.39,672.27 319.27,685.12Z" style="fill:url(#_Linear4);fill-rule:nonzero;"/>
        </g>
    </g>
    <defs>
        <linearGradient id="_Linear2" x1="0" y1="0" x2="1" y2="0" gradientUnits="userSpaceOnUse" gradientTransform="matrix(166.803,55.5968,-55.5968,166.803,214.419,491.378)"><stop offset="0" style="stop-color:rgb(153,152,117);stop-opacity:1"/><stop offset="0.23" style="stop-color:rgb(153,152,117);stop-opacity:1"/><stop offset="0.56" style="stop-color:rgb(155,153,119);stop-opacity:1"/><stop offset="0.68" style="stop-color:rgb(160,159,126);stop-opacity:1"/><stop offset="0.77" style="stop-color:rgb(169,168,137);stop-opacity:1"/><stop offset="0.84" style="stop-color:rgb(183,182,154);stop-opacity:1"/><stop offset="0.9" style="stop-color:rgb(201,199,176);stop-opacity:1"/><stop offset="0.95" style="stop-color:rgb(222,221,203);stop-opacity:1"/><stop offset="0.99" style="stop-color:rgb(248,246,235);stop-opacity:1"/><stop offset="1" style="stop-color:rgb(251,249,239);stop-opacity:1"/></linearGradient>
        <linearGradient id="_Linear3" x1="0" y1="0" x2="1" y2="0" gradientUnits="userSpaceOnUse" gradientTransform="matrix(204.31,-47.1504,47.1504,204.31,161.12,483.517)"><stop offset="0" style="stop-color:rgb(65,162,71);stop-opacity:1"/><stop offset="0.35" style="stop-color:rgb(75,167,75);stop-opacity:1"/><stop offset="0.96" style="stop-color:rgb(103,181,84);stop-opacity:1"/><stop offset="1" style="stop-color:rgb(105,182,85);stop-opacity:1"/></linearGradient>
        <linearGradient id="_Linear4" x1="0" y1="0" x2="1" y2="0" gradientUnits="userSpaceOnUse" gradientTransform="matrix(117.211,452.489,-452.489,117.211,277.382,225.582)"><stop offset="0" style="stop-color:rgb(72,165,71);stop-opacity:1"/><stop offset="1" style="stop-color:rgb(63,145,67);stop-opacity:1"/></linearGradient>
    </defs>
</svg>
